<svg width="589" height="477" viewBox="0 0 589 477" fill="none" xmlns="http://www.w3.org/2000/svg">
<g clip-path="url(#clip0)">
<path d="M319.319 456.231L330.541 449.756L342.08 456.419L342.647 456.089L331.108 449.427L342.33 442.952L353.868 449.615L354.436 449.285L342.896 442.622L354.118 436.147L365.658 442.81L366.225 442.481L354.686 435.818L365.908 429.342L377.447 436.004L378.013 435.676L366.474 429.014L377.696 422.537L389.235 429.2L389.803 428.872L378.263 422.209L389.485 415.733L401.025 422.396L401.591 422.068L390.053 415.405L401.273 408.929L412.813 415.591L413.38 415.263L401.841 408.6L413.063 402.124L420.728 406.553C420.866 406.633 421.041 406.587 421.114 406.451C421.194 406.315 421.149 406.145 421.013 406.065L413.629 401.802L424.846 395.326L436.385 401.988L436.953 401.659L425.412 394.996L436.629 388.521L448.169 395.184L448.735 394.854L437.197 388.192L460.201 374.912L471.74 381.575L472.308 381.246L460.768 374.583L471.984 368.107L483.523 374.769L484.091 374.441L472.551 367.779L483.767 361.302L495.307 367.965L495.874 367.637L484.335 360.974L495.557 354.498L500.988 357.634C501.124 357.714 501.295 357.669 501.374 357.531C501.454 357.395 501.407 357.226 501.271 357.147L496.123 354.175L507.339 347.699L518.878 354.362L519.446 354.034L507.906 347.371L519.122 340.895L530.662 347.558L531.229 347.229L519.689 340.565L530.911 334.091L542.451 340.753L543.017 340.424L531.479 333.761L542.7 327.286L554.239 333.949L554.806 333.619L543.267 326.957L554.489 320.482L561.101 324.298C561.237 324.376 561.412 324.331 561.487 324.195C561.565 324.059 561.52 323.89 561.384 323.81L555.055 320.158L578.061 306.877L589.6 313.541L590.167 313.212L578.628 306.549L589.986 299.994L589.419 299.665L578.038 306.203L555.033 292.924L566.391 286.368L565.824 286.039L554.466 292.594L543.25 286.118L548.564 283.051C548.7 282.971 548.745 282.801 548.665 282.665C548.586 282.529 548.415 282.484 548.279 282.563L542.684 285.795L519.678 272.515L531.035 265.96L530.469 265.632L519.111 272.181L496.106 258.901L507.464 252.346L506.896 252.016L495.538 258.571L484.324 252.096L495.681 245.541L495.113 245.212L483.756 251.767L472.539 245.292L483.897 238.737L483.331 238.408L471.967 244.962L460.751 238.487L472.109 231.931L471.542 231.603L460.184 238.158L448.968 231.683L460.326 225.127L459.758 224.799L448.395 231.354L437.178 224.877L448.536 218.323L447.97 217.994L436.612 224.549L425.395 218.073L436.753 211.518L436.187 211.19L424.823 217.745L413.607 211.269L424.965 204.714L424.398 204.384L413.04 210.94L401.824 204.464L413.182 197.91L412.614 197.58L401.251 204.136L390.034 197.66L401.392 191.105L400.826 190.776L389.468 197.33L378.252 190.856L389.61 184.301L389.043 183.971L377.679 190.526L366.463 184.051L377.821 177.495L377.253 177.167L365.897 183.722L354.68 177.247L366.038 170.691L365.47 170.363L354.112 176.917L342.896 170.441L348.363 167.283C348.499 167.204 348.545 167.033 348.465 166.897C348.385 166.761 348.215 166.716 348.079 166.796L342.324 170.113L331.108 163.637L342.466 157.082L341.899 156.754L330.541 163.309L319.325 156.832L330.683 150.278L330.115 149.95L318.751 156.504L307.537 150.028L318.894 143.473L318.326 143.144L306.969 149.7L295.752 143.224L300.476 140.496C300.612 140.418 300.658 140.246 300.578 140.111C300.499 139.975 300.328 139.929 300.192 140.009L295.175 142.907C295.111 142.883 295.044 142.883 294.981 142.907L283.612 136.34L283.045 136.669L294.403 143.224L283.176 149.7L271.818 143.144L271.251 143.473L282.609 150.028L259.603 163.309L248.245 156.754L247.679 157.082L259.037 163.637L247.82 170.113L236.462 163.558L235.896 163.886L247.254 170.441L236.032 176.917L224.674 170.363L224.107 170.691L235.464 177.247L224.249 183.722L212.891 177.167L212.323 177.495L223.681 184.051L212.465 190.526L201.107 183.971L200.54 184.301L211.898 190.856L200.677 197.33L189.319 190.776L188.752 191.105L200.11 197.66L188.894 204.136L177.536 197.58L176.968 197.91L188.326 204.464L177.104 210.94L165.747 204.384L165.179 204.714L176.537 211.269L165.321 217.745L153.963 211.19L153.397 211.518L164.755 218.073L153.533 224.549L142.175 217.994L141.608 218.323L152.966 224.877L141.75 231.354L130.392 224.799L129.825 225.127L141.182 231.683L129.961 238.158L123.802 234.603C123.666 234.523 123.496 234.569 123.417 234.705C123.338 234.841 123.383 235.011 123.519 235.091L129.394 238.482L118.178 244.962L106.82 238.408L106.253 238.737L117.61 245.292L94.6055 258.571L83.2476 252.016L82.6806 252.346L94.0385 258.901L82.8166 265.377L71.4587 258.821L70.8918 259.15L82.2496 265.705L71.0335 272.181L59.6757 265.626L59.1085 265.954L70.4664 272.509L59.2503 278.985L47.8924 272.431L47.3255 272.759L58.6833 279.314L35.6784 292.594L24.3205 286.039L23.7534 286.368L35.1113 292.924L23.8896 299.398L18.3382 296.195C18.2021 296.115 18.032 296.16 17.9526 296.296C17.8732 296.432 17.9185 296.604 18.0547 296.682L23.3224 299.728L12.1064 306.203L0.748497 299.648L0.181454 299.978L11.5393 306.532L0 313.189L0.567043 313.518L12.1064 306.855L35.1113 320.135L23.5719 326.798L24.139 327.128L35.6784 320.465L46.8945 326.94L42.653 329.39C42.517 329.47 42.4715 329.639 42.5509 329.775C42.6303 329.911 42.8004 329.956 42.9366 329.878L47.4615 327.264L58.6776 333.739L47.1382 340.401L47.7054 340.731L59.2447 334.068L70.4608 340.543L58.9215 347.206L59.4884 347.535L71.0278 340.872L82.2439 347.347L70.7045 354.01L71.2717 354.34L82.811 347.677L94.0271 354.153L82.4878 360.816L83.0548 361.144L94.5941 354.481L105.816 360.957L94.2766 367.62L94.8436 367.948L106.383 361.286L117.599 367.762L106.06 374.424L106.627 374.753L118.166 368.09L129.382 374.566L117.843 381.229L118.41 381.557L129.949 374.894L141.165 381.37L129.626 388.033L130.193 388.363L141.733 381.7L152.948 388.175L141.409 394.837L141.976 395.167L153.516 388.504L164.732 394.979L153.192 401.642L153.76 401.971L165.299 395.309L176.515 401.783L164.976 408.446L165.543 408.776L177.081 402.113L188.303 408.589L176.765 415.252L177.331 415.58L188.871 408.917L200.093 415.394L188.553 422.056L189.121 422.384L200.66 415.722L211.882 422.198L200.341 428.861L200.909 429.189L212.448 422.526L223.67 429.002L212.131 435.665L212.698 435.993L224.238 429.33L235.458 435.807L223.92 442.469L224.486 442.799L236.026 436.136L247.248 442.611L235.708 449.274L236.276 449.603L247.815 442.941L259.037 449.415L247.498 456.078L248.064 456.408L259.603 449.745L270.825 456.22L259.286 462.882L259.853 463.212L271.393 456.549L282.609 463.024L277.352 466.059C277.216 466.137 277.171 466.308 277.251 466.444C277.329 466.581 277.499 466.625 277.635 466.545L283.176 463.348L289.639 467.08C289.686 467.108 289.731 467.119 289.782 467.119C289.878 467.119 289.975 467.067 290.025 466.977C290.105 466.841 290.06 466.67 289.924 466.592L283.742 463.018L294.975 456.532C295.01 456.544 295.039 456.56 295.072 456.56C295.106 456.56 295.135 456.544 295.169 456.532L306.402 463.013L295.175 469.495C295.095 469.467 295.01 469.467 294.931 469.511L282.857 476.481L283.425 476.809L294.975 470.141C295.01 470.152 295.039 470.169 295.072 470.169C295.117 470.169 295.169 470.158 295.214 470.13L306.969 463.342L312.577 466.58C312.622 466.609 312.673 466.62 312.718 466.62C312.815 466.62 312.912 466.569 312.962 466.478C313.042 466.342 312.996 466.172 312.86 466.092L307.537 463.018L318.751 456.544L330.292 463.206L330.858 462.877L319.319 456.231ZM330.541 449.098L319.319 442.622L330.541 436.147L341.763 442.622L330.541 449.098ZM318.751 306.203L307.537 299.728L318.751 293.252L329.968 299.728L318.751 306.203ZM330.541 300.051L341.757 306.527L330.541 313.007L319.325 306.532L330.541 300.051ZM283.742 299.728L294.975 293.246C295.01 293.257 295.039 293.274 295.072 293.274C295.106 293.274 295.141 293.263 295.169 293.246L306.402 299.728L295.169 306.208C295.106 306.186 295.039 306.186 294.975 306.208L283.742 299.728ZM294.398 306.532L283.176 313.007L271.96 306.532L283.176 300.056L294.398 306.532ZM306.969 300.051L318.185 306.527L306.969 313.007L295.752 306.532L306.969 300.051ZM306.969 299.398L295.752 292.924L306.969 286.447L318.185 292.924L306.969 299.398ZM295.169 292.6C295.106 292.577 295.039 292.577 294.975 292.6L283.742 286.118L294.975 279.637C295.01 279.649 295.039 279.666 295.072 279.666C295.106 279.666 295.135 279.654 295.169 279.637L306.402 286.118L295.169 292.6ZM294.398 292.924L283.176 299.398L271.96 292.924L283.176 286.447L294.398 292.924ZM282.609 299.728L271.393 306.203L260.177 299.728L271.393 293.252L282.609 299.728ZM270.825 306.532L259.603 313.007L248.387 306.532L259.603 300.056L270.825 306.532ZM271.393 306.855L282.609 313.331L271.393 319.813L260.177 313.337L271.393 306.855ZM283.176 313.659L294.392 320.135L283.176 326.617L271.96 320.141L283.176 313.659ZM283.742 313.337L294.975 306.855C295.01 306.866 295.039 306.884 295.072 306.884C295.106 306.884 295.135 306.872 295.169 306.855L306.402 313.337L295.169 319.819C295.106 319.795 295.039 319.795 294.975 319.819L283.742 313.337ZM306.969 313.659L318.185 320.135L306.969 326.617L295.752 320.141L306.969 313.659ZM307.537 313.337L318.751 306.861L329.968 313.337L318.751 319.813L307.537 313.337ZM330.541 313.659L341.757 320.135L330.541 326.617L319.325 320.141L330.541 313.659ZM331.108 313.337L342.324 306.861L353.54 313.337L342.324 319.813L331.108 313.337ZM342.891 306.532L354.107 300.056L365.323 306.532L354.112 313.007L342.891 306.532ZM342.324 306.203L331.108 299.728L342.324 293.252L353.54 299.728L342.324 306.203ZM330.541 299.398L319.325 292.924L330.541 286.447L341.757 292.924L330.541 299.398ZM318.751 292.594L307.537 286.118L318.751 279.643L329.968 286.118L318.751 292.594ZM306.969 285.79L295.752 279.314L306.969 272.839L318.185 279.314L306.969 285.79ZM295.169 278.991C295.106 278.969 295.039 278.969 294.975 278.991L283.742 272.509L294.975 266.029C295.01 266.04 295.039 266.057 295.072 266.057C295.106 266.057 295.135 266.046 295.169 266.029L306.402 272.509L295.169 278.991ZM294.398 279.314L283.176 285.79L271.96 279.314L283.176 272.839L294.398 279.314ZM282.609 286.118L271.393 292.594L260.177 286.118L271.393 279.643L282.609 286.118ZM270.825 292.924L259.603 299.398L248.387 292.924L259.603 286.447L270.825 292.924ZM259.037 299.728L247.82 306.203L236.604 299.728L247.82 293.252L259.037 299.728ZM247.254 306.532L236.032 313.007L224.816 306.532L236.032 300.056L247.254 306.532ZM247.82 306.855L259.037 313.331L247.82 319.813L236.604 313.337L247.82 306.855ZM259.603 313.659L270.819 320.135L259.603 326.617L248.387 320.141L259.603 313.659ZM271.393 320.465L282.609 326.94L271.393 333.422L260.177 326.945L271.393 320.465ZM283.176 327.269L294.392 333.744L283.176 340.226L271.96 333.75L283.176 327.269ZM283.742 326.945L294.975 320.465C295.01 320.476 295.039 320.493 295.072 320.493C295.106 320.493 295.135 320.482 295.169 320.465L306.402 326.945L295.169 333.427C295.106 333.405 295.039 333.405 294.975 333.427L283.742 326.945ZM306.969 327.269L318.185 333.744L306.969 340.226L295.752 333.75L306.969 327.269ZM307.537 326.945L318.751 320.471L329.968 326.945L318.751 333.422L307.537 326.945ZM330.541 327.269L341.763 333.744L330.541 340.226L319.319 333.75L330.541 327.269ZM331.108 326.945L342.324 320.471L353.546 326.945L342.324 333.422L331.108 326.945ZM342.891 320.141L354.107 313.665L365.323 320.141L354.112 326.617L342.891 320.141ZM354.68 313.337L365.897 306.861L377.111 313.337L365.897 319.813L354.68 313.337ZM366.463 306.532L377.679 300.056L388.896 306.532L377.679 313.007L366.463 306.532ZM365.897 306.203L354.68 299.728L365.897 293.252L377.111 299.728L365.897 306.203ZM354.112 299.398L342.896 292.924L354.112 286.447L365.329 292.924L354.112 299.398ZM342.324 292.594L331.108 286.118L342.324 279.643L353.54 286.118L342.324 292.594ZM330.541 285.79L319.325 279.314L330.541 272.839L341.757 279.314L330.541 285.79ZM318.751 278.985L307.537 272.509L318.751 266.034L329.968 272.509L318.751 278.985ZM306.969 272.181L295.752 265.705L306.969 259.23L318.185 265.705L306.969 272.181ZM295.169 265.382C295.106 265.358 295.039 265.358 294.975 265.382L283.742 258.901L294.975 252.419C295.01 252.43 295.039 252.448 295.072 252.448C295.106 252.448 295.135 252.436 295.169 252.419L306.402 258.901L295.169 265.382ZM294.398 265.705L283.176 272.181L271.96 265.705L283.176 259.23L294.398 265.705ZM282.609 272.509L271.393 278.985L260.177 272.509L271.393 266.034L282.609 272.509ZM270.825 279.314L259.603 285.79L248.387 279.314L259.603 272.839L270.825 279.314ZM259.037 286.118L247.82 292.594L236.604 286.118L247.82 279.643L259.037 286.118ZM247.254 292.924L236.032 299.398L224.816 292.924L236.032 286.447L247.254 292.924ZM235.464 299.728L224.249 306.203L213.033 299.728L224.249 293.252L235.464 299.728ZM223.681 306.532L212.465 313.007L201.249 306.532L212.465 300.056L223.681 306.532ZM224.249 306.855L235.464 313.331L224.249 319.813L213.033 313.337L224.249 306.855ZM236.038 313.659L247.254 320.135L236.032 326.617L224.816 320.141L236.038 313.659ZM247.82 320.465L259.037 326.94L247.82 333.422L236.604 326.945L247.82 320.465ZM259.603 327.269L270.819 333.744L259.603 340.226L248.387 333.75L259.603 327.269ZM271.393 334.074L282.609 340.549L271.393 347.03L260.177 340.554L271.393 334.074ZM283.176 340.878L294.398 347.353L283.176 353.835L271.954 347.36L283.176 340.878ZM283.742 340.554L294.975 334.074C295.01 334.085 295.039 334.102 295.072 334.102C295.106 334.102 295.141 334.091 295.169 334.074L306.402 340.554L295.169 347.042C295.106 347.019 295.039 347.019 294.975 347.042L283.742 340.554ZM306.969 340.878L318.19 347.353L306.969 353.835L295.747 347.36L306.969 340.878ZM307.537 340.554L318.751 334.079L329.973 340.554L318.751 347.03L307.537 340.554ZM330.541 340.878L341.763 347.353L330.541 353.835L319.319 347.36L330.541 340.878ZM331.108 340.554L342.324 334.079L353.546 340.554L342.324 347.03L331.108 340.554ZM342.891 333.75L354.107 327.275L365.329 333.75L354.112 340.226L342.891 333.75ZM354.68 326.945L365.897 320.471L377.111 326.945L365.897 333.422L354.68 326.945ZM366.463 320.141L377.679 313.665L388.896 320.141L377.679 326.617L366.463 320.141ZM378.246 313.337L389.462 306.861L400.679 313.337L389.468 319.813L378.246 313.337ZM390.034 306.532L401.256 300.056L412.473 306.532L401.251 313.007L390.034 306.532ZM389.468 306.203L378.252 299.728L389.473 293.252L400.69 299.728L389.468 306.203ZM377.679 299.398L366.463 292.924L377.679 286.447L388.896 292.924L377.679 299.398ZM365.897 292.594L354.68 286.118L365.897 279.643L377.111 286.118L365.897 292.594ZM354.112 285.79L342.896 279.314L354.112 272.839L365.329 279.314L354.112 285.79ZM342.324 278.985L331.108 272.509L342.324 266.034L353.54 272.509L342.324 278.985ZM330.541 272.181L319.325 265.705L330.541 259.23L341.757 265.705L330.541 272.181ZM318.751 265.377L307.537 258.901L318.751 252.424L329.968 258.901L318.751 265.377ZM306.969 258.571L295.752 252.096L306.969 245.62L318.185 252.096L306.969 258.571ZM295.169 251.772C295.106 251.75 295.039 251.75 294.975 251.772L283.742 245.292L294.975 238.81C295.01 238.821 295.039 238.838 295.072 238.838C295.106 238.838 295.141 238.827 295.169 238.81L306.402 245.292L295.169 251.772ZM294.398 252.096L283.176 258.571L271.96 252.096L283.176 245.62L294.398 252.096ZM282.609 258.901L271.393 265.377L260.177 258.901L271.393 252.424L282.609 258.901ZM270.825 265.705L259.603 272.181L248.387 265.705L259.603 259.23L270.825 265.705ZM259.037 272.509L247.82 278.985L236.604 272.509L247.82 266.034L259.037 272.509ZM247.254 279.314L236.032 285.79L224.816 279.314L236.032 272.839L247.254 279.314ZM235.464 286.118L224.249 292.594L213.033 286.118L224.249 279.643L235.464 286.118ZM223.681 292.924L212.465 299.398L201.249 292.924L212.465 286.447L223.681 292.924ZM211.898 299.728L200.677 306.203L189.46 299.728L200.677 293.252L211.898 299.728ZM200.11 306.532L188.894 313.007L177.677 306.532L188.894 300.056L200.11 306.532ZM200.677 306.855L211.893 313.331L200.677 319.813L189.46 313.337L200.677 306.855ZM212.465 313.659L223.681 320.135L212.465 326.617L201.249 320.141L212.465 313.659ZM224.249 320.465L235.464 326.94L224.249 333.422L213.033 326.945L224.249 320.465ZM236.032 327.269L247.248 333.744L236.032 340.226L224.816 333.75L236.032 327.269ZM247.82 334.074L259.037 340.549L247.82 347.03L236.604 340.554L247.82 334.074ZM259.603 340.878L270.819 347.353L259.603 353.835L248.387 347.36L259.603 340.878ZM271.393 347.682L282.615 354.159L271.393 360.639L260.171 354.164L271.393 347.682ZM283.176 354.487L294.398 360.963L283.176 367.443L271.954 360.969L283.176 354.487ZM283.742 354.164L294.975 347.677C295.01 347.688 295.039 347.705 295.072 347.705C295.106 347.705 295.135 347.688 295.169 347.677L306.402 354.164L295.169 360.65C295.106 360.628 295.039 360.628 294.975 360.65L283.742 354.164ZM306.969 354.487L318.19 360.963L306.969 367.443L295.747 360.969L306.969 354.487ZM307.537 354.164L318.757 347.688L329.979 354.164L318.751 360.639L307.537 354.164ZM330.541 354.487L341.763 360.963L330.541 367.443L319.319 360.969L330.541 354.487ZM331.108 354.164L342.324 347.688L353.546 354.164L342.324 360.639L331.108 354.164ZM342.891 347.36L354.107 340.884L365.323 347.36L354.112 353.835L342.891 347.36ZM354.68 340.554L365.897 334.079L377.117 340.554L365.897 347.03L354.68 340.554ZM366.463 333.75L377.679 327.275L388.896 333.75L377.679 340.226L366.463 333.75ZM378.246 326.945L389.462 320.471L400.679 326.945L389.468 333.422L378.246 326.945ZM390.034 320.141L401.251 313.665L412.467 320.141L401.251 326.617L390.034 320.141ZM401.819 313.337L413.04 306.861L424.257 313.337L413.04 319.813L401.819 313.337ZM413.607 306.532L424.823 300.056L436.04 306.532L424.823 313.007L413.607 306.532ZM413.04 306.203L401.824 299.728L413.04 293.252L424.257 299.728L413.04 306.203ZM401.251 299.398L390.034 292.924L401.251 286.447L412.467 292.924L401.251 299.398ZM389.468 292.594L378.252 286.118L389.468 279.643L400.684 286.118L389.468 292.594ZM377.679 285.79L366.463 279.314L377.679 272.839L388.896 279.314L377.679 285.79ZM365.897 278.985L354.68 272.509L365.897 266.034L377.111 272.509L365.897 278.985ZM354.112 272.181L342.896 265.705L354.112 259.23L365.329 265.705L354.112 272.181ZM342.324 265.377L331.108 258.901L342.324 252.424L353.54 258.901L342.324 265.377ZM330.541 258.571L319.325 252.096L330.541 245.62L341.757 252.096L330.541 258.571ZM318.751 251.767L307.537 245.292L318.751 238.816L329.968 245.292L318.751 251.767ZM306.969 244.962L295.752 238.487L306.969 232.011L318.185 238.487L306.969 244.962ZM295.169 238.164C295.106 238.141 295.039 238.141 294.975 238.164L283.742 231.683L294.975 225.201C295.01 225.213 295.039 225.229 295.072 225.229C295.106 225.229 295.135 225.218 295.169 225.201L306.402 231.683L295.169 238.164ZM294.398 238.487L283.176 244.962L271.96 238.487L283.176 232.011L294.398 238.487ZM282.609 245.292L271.393 251.767L260.177 245.292L271.393 238.816L282.609 245.292ZM270.825 252.096L259.603 258.571L248.387 252.096L259.603 245.62L270.825 252.096ZM259.037 258.901L247.82 265.377L236.604 258.901L247.82 252.424L259.037 258.901ZM247.254 265.705L236.032 272.181L224.816 265.705L236.032 259.23L247.254 265.705ZM235.464 272.509L224.249 278.985L213.033 272.509L224.249 266.034L235.464 272.509ZM223.681 279.314L212.465 285.79L201.249 279.314L212.465 272.839L223.681 279.314ZM211.898 286.118L200.677 292.594L189.46 286.118L200.677 279.643L211.898 286.118ZM200.11 292.924L188.894 299.398L177.677 292.924L188.894 286.447L200.11 292.924ZM188.326 299.728L177.104 306.203L165.889 299.728L177.104 293.252L188.326 299.728ZM176.537 306.532L165.321 313.007L154.105 306.532L165.321 300.056L176.537 306.532ZM177.104 306.855L188.32 313.331L177.104 319.813L165.889 313.337L177.104 306.855ZM188.894 313.659L200.11 320.135L188.894 326.617L177.677 320.141L188.894 313.659ZM200.677 320.465L211.893 326.94L200.677 333.422L189.46 326.945L200.677 320.465ZM212.465 327.269L223.681 333.744L212.465 340.226L201.249 333.75L212.465 327.269ZM224.249 334.074L235.464 340.549L224.249 347.03L213.033 340.554L224.249 334.074ZM236.038 340.878L247.254 347.353L236.032 353.835L224.816 347.36L236.038 340.878ZM247.82 347.682L259.037 354.159L247.82 360.639L236.604 354.164L247.82 347.682ZM259.603 354.487L270.825 360.963L259.603 367.443L248.381 360.969L259.603 354.487ZM271.393 361.291L282.615 367.767L271.393 374.248L260.171 367.773L271.393 361.291ZM283.176 368.095L294.398 374.572L283.176 381.053L271.954 374.577L283.176 368.095ZM283.742 367.773L294.975 361.286C295.01 361.297 295.039 361.314 295.072 361.314C295.106 361.314 295.135 361.297 295.169 361.286L306.402 367.773L295.169 374.26C295.106 374.237 295.039 374.237 294.975 374.26L283.742 367.773ZM306.969 368.095L318.19 374.572L306.969 381.053L295.747 374.577L306.969 368.095ZM307.537 367.773L318.757 361.297L329.979 367.773L318.751 374.248L307.537 367.773ZM330.541 368.095L341.757 374.572L330.541 381.053L319.319 374.577L330.541 368.095ZM331.108 367.773L342.33 361.297L353.546 367.773L342.324 374.248L331.108 367.773ZM342.891 360.969L354.107 354.492L365.323 360.969L354.112 367.443L342.891 360.969ZM354.68 354.164L365.897 347.688L377.111 354.164L365.897 360.639L354.68 354.164ZM366.463 347.36L377.685 340.884L388.901 347.36L377.679 353.835L366.463 347.36ZM378.246 340.554L389.462 334.079L400.679 340.554L389.468 347.03L378.246 340.554ZM390.034 333.75L401.251 327.275L412.467 333.75L401.251 340.226L390.034 333.75ZM401.819 326.945L413.035 320.471L424.25 326.945L413.04 333.422L401.819 326.945ZM413.607 320.141L424.829 313.665L436.045 320.141L424.823 326.617L413.607 320.141ZM425.39 313.337L436.606 306.861L447.822 313.337L436.612 319.813L425.39 313.337ZM437.178 306.532L448.395 300.056L459.611 306.532L448.395 313.007L437.178 306.532ZM436.612 306.203L425.395 299.728L436.612 293.252L447.828 299.728L436.612 306.203ZM424.823 299.398L413.607 292.924L424.823 286.447L436.04 292.924L424.823 299.398ZM413.04 292.594L401.824 286.118L413.04 279.643L424.257 286.118L413.04 292.594ZM401.251 285.79L390.034 279.314L401.251 272.839L412.467 279.314L401.251 285.79ZM389.468 278.985L378.252 272.509L389.468 266.034L400.684 272.509L389.468 278.985ZM377.679 272.181L366.463 265.705L377.679 259.23L388.896 265.705L377.679 272.181ZM365.897 265.377L354.68 258.901L365.897 252.424L377.111 258.901L365.897 265.377ZM354.112 258.571L342.896 252.096L354.112 245.62L365.329 252.096L354.112 258.571ZM342.324 251.767L331.108 245.292L342.324 238.816L353.54 245.292L342.324 251.767ZM330.541 244.962L319.325 238.487L330.541 232.011L341.757 238.487L330.541 244.962ZM318.751 238.158L307.537 231.683L318.751 225.207L329.968 231.683L318.751 238.158ZM306.969 231.354L295.752 224.877L306.969 218.403L318.185 224.877L306.969 231.354ZM295.169 224.555C295.106 224.532 295.039 224.532 294.975 224.555L283.742 218.073L294.975 211.593C295.01 211.604 295.039 211.621 295.072 211.621C295.106 211.621 295.135 211.609 295.169 211.593L306.402 218.073L295.169 224.555ZM294.398 224.877L283.176 231.354L271.96 224.877L283.176 218.403L294.398 224.877ZM282.609 231.683L271.393 238.158L260.177 231.683L271.393 225.207L282.609 231.683ZM270.825 238.487L259.603 244.962L248.387 238.487L259.603 232.011L270.825 238.487ZM259.037 245.292L247.82 251.767L236.604 245.292L247.82 238.816L259.037 245.292ZM247.254 252.096L236.032 258.571L224.816 252.096L236.032 245.62L247.254 252.096ZM235.464 258.901L224.249 265.377L213.033 258.901L224.249 252.424L235.464 258.901ZM223.681 265.705L212.465 272.181L201.249 265.705L212.465 259.23L223.681 265.705ZM211.898 272.509L200.677 278.985L189.46 272.509L200.677 266.034L211.898 272.509ZM200.11 279.314L188.894 285.79L177.677 279.314L188.894 272.839L200.11 279.314ZM188.326 286.118L177.104 292.594L165.889 286.118L177.104 279.643L188.326 286.118ZM176.537 292.924L165.321 299.398L154.105 292.924L165.321 286.447L176.537 292.924ZM164.755 299.728L153.533 306.203L142.316 299.728L153.533 293.252L164.755 299.728ZM152.966 306.532L141.75 313.007L130.533 306.532L141.75 300.056L152.966 306.532ZM153.533 306.855L164.749 313.331L153.533 319.813L142.316 313.337L153.533 306.855ZM165.321 313.659L176.537 320.135L165.321 326.617L154.105 320.141L165.321 313.659ZM177.104 320.465L188.32 326.94L177.104 333.422L165.889 326.945L177.104 320.465ZM188.894 327.269L200.11 333.744L188.894 340.226L177.677 333.75L188.894 327.269ZM200.677 334.074L211.893 340.549L200.677 347.03L189.46 340.554L200.677 334.074ZM212.465 340.878L223.681 347.353L212.465 353.835L201.249 347.36L212.465 340.878ZM224.249 347.682L235.464 354.159L224.249 360.639L213.033 354.164L224.249 347.682ZM236.038 354.487L247.254 360.963L236.032 367.443L224.816 360.969L236.038 354.487ZM247.82 361.291L259.042 367.767L247.82 374.248L236.599 367.773L247.82 361.291ZM259.603 368.095L270.825 374.572L259.603 381.053L248.381 374.577L259.603 368.095ZM271.393 374.9L282.615 381.376L271.393 387.858L260.171 381.382L271.393 374.9ZM283.176 381.706L294.398 388.18L283.176 394.662L271.954 388.186L283.176 381.706ZM283.742 381.382L294.975 374.894C295.01 374.907 295.039 374.924 295.072 374.924C295.106 374.924 295.135 374.907 295.169 374.894L306.402 381.382L295.169 387.869C295.106 387.847 295.039 387.847 294.975 387.869L283.742 381.382ZM306.969 381.706L318.19 388.18L306.969 394.662L295.747 388.186L306.969 381.706ZM307.537 381.382L318.757 374.907L329.979 381.382L318.751 387.858L307.537 381.382ZM330.541 381.706L341.763 388.18L330.541 394.662L319.319 388.186L330.541 381.706ZM331.108 381.382L342.33 374.907L353.551 381.382L342.324 387.858L331.108 381.382ZM342.891 374.577L354.112 368.101L365.334 374.577L354.107 381.053L342.891 374.577ZM354.68 367.773L365.897 361.297L377.111 367.773L365.897 374.248L354.68 367.773ZM366.463 360.969L377.679 354.492L388.896 360.969L377.679 367.443L366.463 360.969ZM378.246 354.164L389.468 347.688L400.69 354.164L389.468 360.639L378.246 354.164ZM390.034 347.36L401.251 340.884L412.467 347.36L401.251 353.835L390.034 347.36ZM401.819 340.554L413.035 334.079L424.25 340.554L413.04 347.03L401.819 340.554ZM413.607 333.75L424.823 327.275L436.04 333.75L424.823 340.226L413.607 333.75ZM425.39 326.945L436.612 320.471L447.828 326.945L436.612 333.422L425.39 326.945ZM437.178 320.141L448.395 313.665L459.611 320.141L448.395 326.617L437.178 320.141ZM448.962 313.337L460.179 306.861L471.395 313.337L460.184 319.813L448.962 313.337ZM460.751 306.532L471.967 300.056L483.183 306.532L471.967 313.007L460.751 306.532ZM460.184 306.203L448.968 299.728L460.184 293.252L471.401 299.728L460.184 306.203ZM448.395 299.398L437.178 292.924L448.395 286.447L459.611 292.924L448.395 299.398ZM436.612 292.594L425.395 286.118L436.612 279.643L447.828 286.118L436.612 292.594ZM424.823 285.79L413.607 279.314L424.823 272.839L436.04 279.314L424.823 285.79ZM413.04 278.985L401.824 272.509L413.04 266.034L424.257 272.509L413.04 278.985ZM401.251 272.181L390.034 265.705L401.251 259.23L412.467 265.705L401.251 272.181ZM389.468 265.377L378.252 258.901L389.468 252.424L400.684 258.901L389.468 265.377ZM377.679 258.571L366.463 252.096L377.679 245.62L388.896 252.096L377.679 258.571ZM365.897 251.767L354.68 245.292L365.897 238.816L377.111 245.292L365.897 251.767ZM354.112 244.962L342.896 238.487L354.112 232.011L365.329 238.487L354.112 244.962ZM342.324 238.158L331.108 231.683L342.324 225.207L353.54 231.683L342.324 238.158ZM330.541 231.354L319.325 224.877L330.541 218.403L341.757 224.877L330.541 231.354ZM318.751 224.549L307.537 218.073L318.751 211.598L329.968 218.073L318.751 224.549ZM306.969 217.745L295.752 211.269L306.969 204.794L318.185 211.269L306.969 217.745ZM295.169 210.946C295.106 210.924 295.039 210.924 294.975 210.946L283.742 204.464L294.975 197.982C295.01 197.995 295.039 198.012 295.072 198.012C295.106 198.012 295.135 198.001 295.169 197.982L306.402 204.464L295.169 210.946ZM294.398 211.269L283.176 217.745L271.96 211.269L283.176 204.794L294.398 211.269ZM282.609 218.073L271.393 224.549L260.177 218.073L271.393 211.598L282.609 218.073ZM270.825 224.877L259.603 231.354L248.387 224.877L259.603 218.403L270.825 224.877ZM259.037 231.683L247.82 238.158L236.604 231.683L247.82 225.207L259.037 231.683ZM247.254 238.487L236.032 244.962L224.816 238.487L236.032 232.011L247.254 238.487ZM235.464 245.292L224.249 251.767L213.033 245.292L224.249 238.816L235.464 245.292ZM223.681 252.096L212.465 258.571L201.249 252.096L212.465 245.62L223.681 252.096ZM211.898 258.901L200.677 265.377L189.46 258.901L200.677 252.424L211.898 258.901ZM200.11 265.705L188.894 272.181L177.677 265.705L188.894 259.23L200.11 265.705ZM188.326 272.509L177.104 278.985L165.889 272.509L177.104 266.034L188.326 272.509ZM176.537 279.314L165.321 285.79L154.105 279.314L165.321 272.839L176.537 279.314ZM164.755 286.118L153.533 292.594L142.316 286.118L153.533 279.643L164.755 286.118ZM152.966 292.924L141.75 299.398L130.533 292.924L141.75 286.447L152.966 292.924ZM141.182 299.728L129.961 306.203L118.745 299.728L129.961 293.252L141.182 299.728ZM129.394 306.532L118.178 313.007L106.961 306.532L118.178 300.056L129.394 306.532ZM129.961 306.855L141.176 313.331L129.961 319.813L118.745 313.337L129.961 306.855ZM141.75 313.659L152.966 320.135L141.75 326.617L130.533 320.141L141.75 313.659ZM153.533 320.465L164.749 326.94L153.533 333.422L142.316 326.945L153.533 320.465ZM165.321 327.269L176.537 333.744L165.321 340.226L154.105 333.75L165.321 327.269ZM177.104 334.074L188.32 340.549L177.104 347.03L165.889 340.554L177.104 334.074ZM188.894 340.878L200.11 347.353L188.894 353.835L177.677 347.36L188.894 340.878ZM200.677 347.682L211.893 354.159L200.677 360.639L189.46 354.164L200.677 347.682ZM212.465 354.487L223.681 360.963L212.465 367.443L201.249 360.969L212.465 354.487ZM224.249 361.291L235.464 367.767L224.249 374.248L213.033 367.773L224.249 361.291ZM236.032 368.095L247.254 374.572L236.038 381.053L224.816 374.577L236.032 368.095ZM247.82 374.9L259.042 381.376L247.82 387.858L236.599 381.382L247.82 374.9ZM259.603 381.706L270.825 388.18L259.603 394.662L248.381 388.186L259.603 381.706ZM271.393 388.51L282.615 394.985L271.393 401.467L260.171 394.99L271.393 388.51ZM283.176 395.314L294.398 401.789L283.176 408.271L271.954 401.795L283.176 395.314ZM283.742 394.99L294.975 388.504C295.01 388.516 295.039 388.532 295.072 388.532C295.106 388.532 295.135 388.516 295.169 388.504L306.402 394.99L295.169 401.478C295.106 401.455 295.039 401.455 294.975 401.478L283.742 394.99ZM306.969 395.314L318.19 401.789L306.969 408.271L295.747 401.795L306.969 395.314ZM307.537 394.99L318.757 388.516L329.979 394.99L318.751 401.467L307.537 394.99ZM330.541 395.314L341.763 401.789L330.541 408.271L319.319 401.795L330.541 395.314ZM331.108 394.99L342.33 388.516L353.546 394.99L342.324 401.467L331.108 394.99ZM342.891 388.186L354.112 381.711L365.329 388.186L354.107 394.662L342.891 388.186ZM354.675 381.382L365.897 374.907L377.111 381.382L365.897 387.858L354.675 381.382ZM366.463 374.577L377.679 368.101L388.896 374.577L377.679 381.053L366.463 374.577ZM378.246 367.773L389.462 361.297L400.679 367.773L389.468 374.248L378.246 367.773ZM390.034 360.969L401.256 354.492L412.473 360.969L401.251 367.443L390.034 360.969ZM401.819 354.164L413.035 347.688L424.25 354.164L413.04 360.639L401.819 354.164ZM413.607 347.36L424.823 340.884L436.04 347.36L424.823 353.835L413.607 347.36ZM425.39 340.554L436.606 334.079L447.822 340.554L436.612 347.03L425.39 340.554ZM437.178 333.75L448.4 327.275L459.616 333.75L448.395 340.226L437.178 333.75ZM448.962 326.945L460.179 320.471L471.395 326.945L460.184 333.422L448.962 326.945ZM460.751 320.141L471.967 313.665L483.183 320.141L471.967 326.617L460.751 320.141ZM472.534 313.337L483.75 306.861L494.966 313.337L483.756 319.813L472.534 313.337ZM484.324 306.532L495.545 300.056L506.76 306.532L495.538 313.007L484.324 306.532ZM483.756 306.203L472.539 299.728L483.756 293.252L494.972 299.728L483.756 306.203ZM471.967 299.398L460.751 292.924L471.973 286.447L483.189 292.924L471.967 299.398ZM460.184 292.594L448.968 286.118L460.19 279.643L471.406 286.118L460.184 292.594ZM448.395 285.79L437.178 279.314L448.395 272.839L459.611 279.314L448.395 285.79ZM436.612 278.985L425.395 272.509L436.612 266.034L447.828 272.509L436.612 278.985ZM424.823 272.181L413.607 265.705L424.823 259.23L436.04 265.705L424.823 272.181ZM413.04 265.377L401.824 258.901L413.04 252.424L424.257 258.901L413.04 265.377ZM401.251 258.571L390.034 252.096L401.251 245.62L412.467 252.096L401.251 258.571ZM389.468 251.767L378.252 245.292L389.468 238.816L400.684 245.292L389.468 251.767ZM377.679 244.962L366.463 238.487L377.679 232.011L388.896 238.487L377.679 244.962ZM365.897 238.158L354.68 231.683L365.897 225.207L377.111 231.683L365.897 238.158ZM354.112 231.354L342.896 224.877L354.112 218.403L365.329 224.877L354.112 231.354ZM342.324 224.549L331.108 218.073L342.324 211.598L353.54 218.073L342.324 224.549ZM330.541 217.745L319.325 211.269L330.541 204.794L341.757 211.269L330.541 217.745ZM318.751 210.94L307.537 204.464L318.751 197.988L329.968 204.464L318.751 210.94ZM306.969 204.136L295.752 197.66L306.969 191.184L318.185 197.66L306.969 204.136ZM295.169 197.336C295.106 197.314 295.039 197.314 294.975 197.336L283.742 190.856L294.975 184.374C295.01 184.385 295.039 184.402 295.072 184.402C295.106 184.402 295.141 184.391 295.169 184.374L306.402 190.856L295.169 197.336ZM294.398 197.66L283.176 204.136L271.96 197.66L283.176 191.184L294.398 197.66ZM282.609 204.464L271.393 210.94L260.177 204.464L271.393 197.988L282.609 204.464ZM270.825 211.269L259.603 217.745L248.387 211.269L259.603 204.794L270.825 211.269ZM259.037 218.073L247.82 224.549L236.604 218.073L247.82 211.598L259.037 218.073ZM247.254 224.877L236.032 231.354L224.816 224.877L236.032 218.403L247.254 224.877ZM235.464 231.683L224.249 238.158L213.033 231.683L224.249 225.207L235.464 231.683ZM223.681 238.487L212.465 244.962L201.249 238.487L212.465 232.011L223.681 238.487ZM211.898 245.292L200.677 251.767L189.46 245.292L200.677 238.816L211.898 245.292ZM200.11 252.096L188.894 258.571L177.677 252.096L188.894 245.62L200.11 252.096ZM188.326 258.901L177.104 265.377L165.889 258.901L177.104 252.424L188.326 258.901ZM176.537 265.705L165.321 272.181L154.105 265.705L165.321 259.23L176.537 265.705ZM164.755 272.509L153.533 278.985L142.316 272.509L153.533 266.034L164.755 272.509ZM152.966 279.314L141.75 285.79L130.533 279.314L141.75 272.839L152.966 279.314ZM141.182 286.118L129.961 292.594L118.745 286.118L129.961 279.643L141.182 286.118ZM129.394 292.924L118.178 299.398L106.961 292.924L118.178 286.447L129.394 292.924ZM117.61 299.728L106.389 306.203L95.1726 299.728L106.389 293.252L117.61 299.728ZM105.822 306.532L94.6055 313.007L83.3894 306.532L94.6055 300.056L105.822 306.532ZM106.389 306.855L117.605 313.331L106.389 319.813L95.1726 313.337L106.389 306.855ZM118.178 313.659L129.394 320.135L118.178 326.617L106.961 320.141L118.178 313.659ZM129.961 320.465L141.176 326.94L129.961 333.422L118.745 326.945L129.961 320.465ZM141.75 327.269L152.966 333.744L141.75 340.226L130.533 333.75L141.75 327.269ZM153.533 334.074L164.749 340.549L153.533 347.03L142.316 340.554L153.533 334.074ZM165.321 340.878L176.537 347.353L165.321 353.835L154.105 347.36L165.321 340.878ZM177.104 347.682L188.32 354.159L177.104 360.639L165.889 354.164L177.104 347.682ZM188.894 354.487L200.11 360.963L188.894 367.443L177.677 360.969L188.894 354.487ZM200.677 361.291L211.893 367.767L200.677 374.248L189.46 367.773L200.677 361.291ZM212.465 368.095L223.681 374.572L212.465 381.053L201.249 374.577L212.465 368.095ZM224.249 374.9L235.471 381.376L224.249 387.858L213.027 381.382L224.249 374.9ZM236.038 381.706L247.259 388.18L236.038 394.662L224.816 388.186L236.038 381.706ZM247.82 388.51L259.042 394.985L247.82 401.467L236.599 394.99L247.82 388.51ZM259.603 395.314L270.825 401.789L259.603 408.271L248.381 401.795L259.603 395.314ZM271.393 402.119L282.615 408.595L271.393 415.075L260.171 408.6L271.393 402.119ZM283.176 408.923L294.398 415.399L283.176 421.88L271.954 415.405L283.176 408.923ZM283.742 408.6L294.975 402.113C295.01 402.124 295.039 402.141 295.072 402.141C295.106 402.141 295.135 402.124 295.169 402.113L306.402 408.6L295.169 415.086C295.106 415.064 295.039 415.064 294.975 415.086L283.742 408.6ZM306.969 408.923L318.19 415.399L306.969 421.88L295.747 415.405L306.969 408.923ZM307.537 408.6L318.757 402.124L329.979 408.6L318.751 415.075L307.537 408.6ZM330.541 408.923L341.757 415.399L330.541 421.88L319.319 415.405L330.541 408.923ZM331.108 408.6L342.33 402.124L353.546 408.6L342.324 415.075L331.108 408.6ZM342.891 401.795L354.112 395.32L365.329 401.795L354.107 408.271L342.891 401.795ZM354.675 394.99L365.897 388.516L377.111 394.99L365.897 401.467L354.675 394.99ZM366.463 388.186L377.685 381.711L388.901 388.186L377.679 394.662L366.463 388.186ZM378.246 381.382L389.462 374.907L400.679 381.382L389.468 387.858L378.246 381.382ZM390.034 374.577L401.251 368.101L412.467 374.577L401.251 381.053L390.034 374.577ZM401.819 367.773L413.04 361.297L424.257 367.773L413.04 374.248L401.819 367.773ZM413.607 360.969L424.823 354.492L436.04 360.969L424.823 367.443L413.607 360.969ZM425.39 354.164L436.606 347.688L447.822 354.164L436.612 360.639L425.39 354.164ZM437.178 347.36L448.395 340.884L459.611 347.36L448.395 353.835L437.178 347.36ZM448.962 340.554L460.184 334.079L471.401 340.554L460.184 347.03L448.962 340.554ZM460.751 333.75L471.967 327.275L483.183 333.75L471.967 340.226L460.751 333.75ZM472.534 326.945L483.75 320.471L494.966 326.945L483.756 333.422L472.534 326.945ZM484.324 320.141L495.538 313.665L506.755 320.141L495.538 326.617L484.324 320.141ZM496.106 313.337L507.328 306.861L518.544 313.337L507.323 319.813L496.106 313.337ZM507.889 306.532L519.111 300.056L530.327 306.532L519.111 313.007L507.889 306.532ZM507.323 306.203L496.106 299.728L507.328 293.252L518.544 299.728L507.323 306.203ZM495.538 299.398L484.324 292.924L495.545 286.447L506.76 292.924L495.538 299.398ZM483.756 292.594L472.539 286.118L483.761 279.643L494.977 286.118L483.756 292.594ZM471.967 285.79L460.751 279.314L471.973 272.839L483.189 279.314L471.967 285.79ZM460.184 278.985L448.968 272.509L460.19 266.034L471.406 272.509L460.184 278.985ZM448.395 272.181L437.178 265.705L448.4 259.23L459.616 265.705L448.395 272.181ZM436.612 265.377L425.395 258.901L436.617 252.424L447.834 258.901L436.612 265.377ZM424.823 258.571L413.607 252.096L424.823 245.62L436.04 252.096L424.823 258.571ZM413.04 251.767L401.824 245.292L413.04 238.816L424.257 245.292L413.04 251.767ZM401.251 244.962L390.034 238.487L401.251 232.011L412.467 238.487L401.251 244.962ZM389.468 238.158L378.252 231.683L389.468 225.207L400.684 231.683L389.468 238.158ZM377.679 231.354L366.463 224.877L377.679 218.403L388.896 224.877L377.679 231.354ZM365.897 224.549L354.68 218.073L365.897 211.598L377.111 218.073L365.897 224.549ZM354.112 217.745L342.896 211.269L354.112 204.794L365.329 211.269L354.112 217.745ZM342.324 210.94L331.108 204.464L342.324 197.988L353.54 204.464L342.324 210.94ZM330.541 204.136L319.325 197.66L330.541 191.184L341.757 197.66L330.541 204.136ZM318.751 197.33L307.537 190.856L318.751 184.379L329.968 190.856L318.751 197.33ZM306.969 190.526L295.752 184.051L306.969 177.575L318.185 184.051L306.969 190.526ZM295.169 183.727C295.106 183.705 295.039 183.705 294.975 183.727L283.742 177.247L294.975 170.765C295.01 170.776 295.039 170.793 295.072 170.793C295.106 170.793 295.141 170.782 295.169 170.765L306.402 177.247L295.169 183.727ZM294.398 184.051L283.176 190.526L271.96 184.051L283.176 177.575L294.398 184.051ZM282.609 190.856L271.393 197.33L260.177 190.856L271.393 184.379L282.609 190.856ZM270.825 197.66L259.603 204.136L248.387 197.66L259.603 191.184L270.825 197.66ZM259.037 204.464L247.82 210.94L236.604 204.464L247.82 197.988L259.037 204.464ZM247.254 211.269L236.032 217.745L224.816 211.269L236.032 204.794L247.254 211.269ZM235.464 218.073L224.249 224.549L213.033 218.073L224.249 211.598L235.464 218.073ZM223.681 224.877L212.465 231.354L201.249 224.877L212.465 218.403L223.681 224.877ZM211.898 231.683L200.677 238.158L189.46 231.683L200.677 225.207L211.898 231.683ZM200.11 238.487L188.894 244.962L177.677 238.487L188.894 232.011L200.11 238.487ZM188.326 245.292L177.104 251.767L165.889 245.292L177.104 238.816L188.326 245.292ZM176.537 252.096L165.321 258.571L154.105 252.096L165.321 245.62L176.537 252.096ZM164.755 258.901L153.533 265.377L142.316 258.901L153.533 252.424L164.755 258.901ZM152.966 265.705L141.75 272.181L130.533 265.705L141.75 259.23L152.966 265.705ZM141.182 272.509L129.961 278.985L118.745 272.509L129.961 266.034L141.182 272.509ZM129.394 279.314L118.178 285.79L106.961 279.314L118.178 272.839L129.394 279.314ZM117.61 286.118L106.389 292.594L95.1726 286.118L106.389 279.643L117.61 286.118ZM105.822 292.924L94.6055 299.398L83.3894 292.924L94.6055 286.447L105.822 292.924ZM94.0385 299.728L82.8166 306.203L71.6005 299.728L82.8166 293.252L94.0385 299.728ZM82.2496 306.532L71.0335 313.007L59.8174 306.532L71.0335 300.056L82.2496 306.532ZM82.8166 306.855L94.0327 313.331L82.8166 319.813L71.6005 313.337L82.8166 306.855ZM94.6055 313.659L105.822 320.135L94.6055 326.617L83.3894 320.141L94.6055 313.659ZM106.389 320.465L117.605 326.94L106.389 333.422L95.1726 326.945L106.389 320.465ZM118.178 327.269L129.394 333.744L118.178 340.226L106.961 333.75L118.178 327.269ZM129.961 334.074L141.176 340.549L129.961 347.03L118.739 340.554L129.961 334.074ZM141.75 340.878L152.966 347.353L141.75 353.835L130.533 347.36L141.75 340.878ZM153.533 347.682L164.749 354.159L153.533 360.639L142.316 354.164L153.533 347.682ZM165.321 354.487L176.537 360.963L165.321 367.443L154.105 360.969L165.321 354.487ZM177.104 361.291L188.32 367.767L177.104 374.248L165.889 367.773L177.104 361.291ZM188.894 368.095L200.11 374.572L188.894 381.053L177.677 374.577L188.894 368.095ZM200.677 374.9L211.893 381.376L200.677 387.858L189.46 381.382L200.677 374.9ZM212.465 381.706L223.687 388.18L212.465 394.662L201.243 388.186L212.465 381.706ZM224.249 388.51L235.471 394.985L224.249 401.467L213.027 394.99L224.249 388.51ZM236.032 395.314L247.254 401.789L236.038 408.271L224.816 401.795L236.032 395.314ZM247.82 402.119L259.042 408.595L247.82 415.075L236.599 408.6L247.82 402.119ZM259.603 408.923L270.825 415.399L259.603 421.88L248.381 415.405L259.603 408.923ZM271.393 415.727L282.615 422.204L271.393 428.684L260.171 422.209L271.393 415.727ZM283.176 422.532L294.398 429.008L283.176 435.49L271.954 429.014L283.176 422.532ZM283.742 422.209L294.975 415.722C295.01 415.733 295.039 415.75 295.072 415.75C295.106 415.75 295.135 415.733 295.169 415.722L306.402 422.209L295.169 428.697C295.106 428.673 295.039 428.673 294.975 428.697L283.742 422.209ZM306.969 422.532L318.19 429.008L306.969 435.49L295.747 429.014L306.969 422.532ZM307.537 422.209L318.757 415.733L329.979 422.209L318.751 428.684L307.537 422.209ZM330.541 422.532L341.763 429.008L330.541 435.49L319.319 429.014L330.541 422.532ZM331.108 422.209L342.33 415.733L353.551 422.209L342.324 428.684L331.108 422.209ZM342.891 415.405L354.112 408.929L365.334 415.405L354.107 421.88L342.891 415.405ZM354.675 408.6L365.897 402.124L377.111 408.6L365.897 415.075L354.675 408.6ZM366.463 401.795L377.685 395.32L388.901 401.795L377.679 408.271L366.463 401.795ZM378.246 394.99L389.468 388.516L400.69 394.99L389.468 401.467L378.246 394.99ZM390.034 388.186L401.251 381.711L412.467 388.186L401.251 394.662L390.034 388.186ZM401.819 381.382L413.035 374.907L424.25 381.382L413.04 387.858L401.819 381.382ZM413.607 374.577L424.829 368.101L436.045 374.577L424.823 381.053L413.607 374.577ZM425.39 367.773L436.606 361.297L447.822 367.773L436.612 374.248L425.39 367.773ZM437.178 360.969L448.395 354.492L459.611 360.969L448.395 367.443L437.178 360.969ZM448.962 354.164L460.179 347.688L471.395 354.164L460.184 360.639L448.962 354.164ZM460.751 347.36L471.973 340.884L483.189 347.36L471.967 353.835L460.751 347.36ZM472.534 340.554L483.75 334.079L494.966 340.554L483.756 347.03L472.534 340.554ZM484.324 333.75L495.538 327.275L506.755 333.75L495.538 340.226L484.324 333.75ZM496.106 326.945L507.323 320.471L518.539 326.945L507.323 333.422L496.106 326.945ZM507.889 320.141L519.111 313.665L530.327 320.141L519.111 326.617L507.889 320.141ZM519.678 313.337L530.899 306.861L542.116 313.337L530.894 319.813L519.678 313.337ZM531.462 306.532L542.678 300.056L553.893 306.532L542.684 313.007L531.462 306.532ZM530.894 306.203L519.678 299.728L530.894 293.252L542.11 299.728L530.894 306.203ZM519.111 299.398L507.895 292.924L519.111 286.447L530.327 292.924L519.111 299.398ZM507.328 292.594L496.112 286.118L507.328 279.643L518.544 286.118L507.328 292.594ZM495.538 285.79L484.324 279.314L490.504 275.747C490.64 275.667 490.685 275.498 490.606 275.362C490.526 275.226 490.357 275.181 490.221 275.259L483.756 278.991L472.539 272.515L483.756 266.04L506.76 279.319L495.538 285.79ZM471.967 272.181L460.751 265.705L471.967 259.23L483.183 265.705L471.967 272.181ZM460.184 265.377L448.968 258.901L460.184 252.424L471.401 258.901L460.184 265.377ZM448.395 258.571L437.178 252.096L448.395 245.62L459.611 252.096L448.395 258.571ZM436.612 251.767L425.395 245.292L436.612 238.816L447.828 245.292L436.612 251.767ZM424.823 244.962L413.607 238.487L424.823 232.011L436.04 238.487L424.823 244.962ZM413.04 238.158L401.824 231.683L413.04 225.207L424.257 231.683L413.04 238.158ZM401.251 231.354L390.034 224.877L401.251 218.403L412.467 224.877L401.251 231.354ZM389.468 224.549L378.252 218.073L389.468 211.598L400.684 218.073L389.468 224.549ZM377.679 217.745L366.463 211.269L377.679 204.794L388.896 211.269L377.679 217.745ZM365.897 210.94L354.68 204.464L365.897 197.988L377.111 204.464L365.897 210.94ZM354.112 204.136L342.896 197.66L354.112 191.184L365.329 197.66L354.112 204.136ZM342.324 197.33L331.108 190.856L342.324 184.379L353.54 190.856L342.324 197.33ZM330.541 190.526L319.325 184.051L330.541 177.575L341.757 184.051L330.541 190.526ZM318.751 183.722L307.537 177.247L318.751 170.771L329.968 177.247L318.751 183.722ZM306.969 176.917L295.752 170.441L306.969 163.966L318.185 170.441L306.969 176.917ZM295.169 170.119C295.106 170.096 295.039 170.096 294.975 170.119L283.742 163.637L294.975 157.156C295.01 157.168 295.039 157.184 295.072 157.184C295.106 157.184 295.141 157.173 295.169 157.156L306.402 163.637L295.169 170.119ZM294.398 170.441L283.176 176.917L271.96 170.441L283.176 163.966L294.398 170.441ZM282.609 177.247L271.393 183.722L260.177 177.247L271.393 170.771L282.609 177.247ZM270.825 184.051L259.603 190.526L248.387 184.051L259.603 177.575L270.825 184.051ZM259.037 190.856L247.82 197.33L236.604 190.856L247.82 184.379L259.037 190.856ZM247.254 197.66L236.032 204.136L224.816 197.66L236.032 191.184L247.254 197.66ZM235.464 204.464L224.249 210.94L213.033 204.464L224.249 197.988L235.464 204.464ZM223.681 211.269L212.465 217.745L201.249 211.269L212.465 204.794L223.681 211.269ZM211.898 218.073L200.677 224.549L189.46 218.073L200.677 211.598L211.898 218.073ZM200.11 224.877L188.894 231.354L177.677 224.877L188.894 218.403L200.11 224.877ZM188.326 231.683L177.104 238.158L165.883 231.683L177.098 225.207L188.326 231.683ZM176.537 238.487L165.321 244.962L154.099 238.487L165.315 232.011L176.537 238.487ZM164.755 245.292L153.533 251.767L142.316 245.292L153.533 238.816L164.755 245.292ZM152.966 252.096L141.75 258.571L130.528 252.096L141.744 245.62L152.966 252.096ZM141.182 258.901L129.961 265.377L118.739 258.901L129.955 252.424L141.182 258.901ZM129.394 265.705L118.178 272.181L106.956 265.705L118.172 259.23L129.394 265.705ZM117.61 272.509L106.389 278.985L95.1668 272.509L106.383 266.034L117.61 272.509ZM105.822 279.314L94.6055 285.79L83.3838 279.314L94.5999 272.839L105.822 279.314ZM94.0385 286.118L82.8166 292.594L71.5949 286.118L82.811 279.643L94.0385 286.118ZM82.2553 292.924L71.0335 299.398L59.8117 292.924L71.0278 286.447L82.2553 292.924ZM70.4664 299.728L59.2503 306.203L48.0286 299.728L59.2447 293.252L70.4664 299.728ZM58.6833 306.532L47.4615 313.007L36.2398 306.532L47.4559 300.056L58.6833 306.532ZM59.2503 306.855L70.4664 313.331L59.2503 319.813L48.0286 313.337L59.2503 306.855ZM71.0335 313.659L82.2496 320.135L71.0335 326.617L59.8174 320.141L71.0335 313.659ZM82.8166 320.465L94.0327 326.94L82.8224 333.422L71.6063 326.945L82.8166 320.465ZM94.6055 327.269L105.822 333.744L94.6055 340.226L83.3894 333.75L94.6055 327.269ZM106.389 334.074L117.605 340.549L106.389 347.03L95.1726 340.554L106.389 334.074ZM118.178 340.878L129.394 347.353L118.178 353.835L106.956 347.36L118.178 340.878ZM129.961 347.682L141.176 354.159L129.961 360.639L118.745 354.164L129.961 347.682ZM141.75 354.487L152.966 360.963L141.75 367.443L130.533 360.969L141.75 354.487ZM153.533 361.291L164.749 367.767L153.533 374.248L142.316 367.773L153.533 361.291ZM165.321 368.095L176.537 374.572L165.321 381.053L154.105 374.577L165.321 368.095ZM177.104 374.9L188.32 381.376L177.104 387.858L165.889 381.382L177.104 374.9ZM188.894 381.706L200.11 388.18L188.894 394.662L177.677 388.186L188.894 381.706ZM200.677 388.51L211.898 394.985L200.677 401.467L189.455 394.99L200.677 388.51ZM212.465 395.314L223.687 401.789L212.465 408.271L201.243 401.795L212.465 395.314ZM224.249 402.119L235.471 408.595L224.249 415.075L213.027 408.6L224.249 402.119ZM236.038 408.923L247.259 415.399L236.038 421.88L224.816 415.405L236.038 408.923ZM247.82 415.727L259.042 422.204L247.82 428.684L236.599 422.209L247.82 415.727ZM259.603 422.532L270.825 429.008L259.603 435.49L248.381 429.014L259.603 422.532ZM271.393 429.336L282.615 435.812L271.393 442.294L260.171 435.818L271.393 429.336ZM283.176 436.142L294.398 442.617L283.176 449.098L271.954 442.622L283.176 436.142ZM283.742 435.818L294.975 429.33C295.01 429.342 295.039 429.36 295.072 429.36C295.106 429.36 295.135 429.342 295.169 429.33L306.402 435.818L295.169 442.305C295.106 442.283 295.039 442.283 294.975 442.305L283.742 435.818ZM306.969 436.142L318.19 442.617L306.969 449.098L295.747 442.622L306.969 436.142ZM307.537 435.818L318.757 429.342L329.979 435.818L318.751 442.294L307.537 435.818ZM342.324 442.294L331.102 435.818L342.324 429.342L353.546 435.818L342.324 442.294ZM354.107 435.49L342.885 429.014L354.107 422.537L365.329 429.014L354.107 435.49ZM365.897 428.684L354.675 422.209L365.897 415.733L377.117 422.209L365.897 428.684ZM377.679 421.88L366.458 415.405L377.679 408.929L388.901 415.405L377.679 421.88ZM389.468 415.075L378.252 408.6L389.473 402.124L400.69 408.6L389.468 415.075ZM401.251 408.271L390.034 401.795L401.256 395.32L412.473 401.795L401.251 408.271ZM413.04 401.467L401.824 394.99L413.04 388.516L424.257 394.99L413.04 401.467ZM424.823 394.662L413.607 388.186L424.823 381.711L436.04 388.186L424.823 394.662ZM436.612 387.858L425.395 381.382L436.617 374.907L442.922 378.546C443.06 378.626 443.235 378.581 443.308 378.445C443.388 378.309 443.343 378.138 443.207 378.059L437.178 374.583L448.395 368.107L459.611 374.583L436.612 387.858ZM460.184 374.248L448.968 367.773L460.184 361.297L471.401 367.773L460.184 374.248ZM471.967 367.443L460.751 360.969L471.967 354.492L483.183 360.969L471.967 367.443ZM483.756 360.639L472.539 354.164L483.761 347.688L494.977 354.164L483.756 360.639ZM495.538 353.835L484.324 347.36L495.538 340.884L506.755 347.36L495.538 353.835ZM507.323 347.03L496.106 340.554L507.323 334.079L518.539 340.554L507.323 347.03ZM519.111 340.226L507.895 333.75L519.117 327.275L530.333 333.75L519.111 340.226ZM530.894 333.422L519.678 326.945L530.899 320.471L542.116 326.945L530.894 333.422ZM542.684 326.617L531.467 320.141L542.689 313.665L553.905 320.141L542.684 326.617ZM577.471 306.532L554.466 319.813L543.25 313.337L554.466 306.861L558.895 309.418C559.031 309.498 559.201 309.452 559.281 309.316C559.359 309.18 559.314 309.01 559.178 308.93L555.033 306.538L559.326 304.06C559.462 303.98 559.507 303.81 559.428 303.674C559.348 303.538 559.178 303.493 559.042 303.572L554.466 306.214L543.25 299.739L554.466 293.263L577.471 306.532ZM553.898 292.924L542.684 299.398L531.467 292.924L542.684 286.447L553.898 292.924ZM542.116 286.118L530.894 292.594L519.678 286.118L526.579 282.132C526.715 282.052 526.761 281.883 526.681 281.747C526.601 281.611 526.431 281.566 526.295 281.644L519.111 285.79L507.895 279.314L519.111 272.839L542.116 286.118ZM518.544 272.509L507.328 278.985L484.324 265.705L495.538 259.23L518.544 272.509ZM494.972 258.901L483.756 265.377L472.539 258.901L483.756 252.424L494.972 258.901ZM483.189 252.096L471.967 258.571L460.751 252.096L471.967 245.62L483.189 252.096ZM471.401 245.292L460.184 251.767L448.968 245.292L460.184 238.816L471.401 245.292ZM459.616 238.487L448.395 244.962L437.178 238.487L448.395 232.011L459.616 238.487ZM447.828 231.683L436.612 238.158L425.395 231.683L436.612 225.207L447.828 231.683ZM436.045 224.877L424.823 231.354L413.607 224.877L424.823 218.403L436.045 224.877ZM424.257 218.073L413.04 224.549L401.824 218.073L413.04 211.598L424.257 218.073ZM412.473 211.269L401.251 217.745L390.034 211.269L401.251 204.794L412.473 211.269ZM400.684 204.464L389.468 210.94L378.252 204.464L389.468 197.988L400.684 204.464ZM388.901 197.66L377.679 204.136L366.463 197.66L377.679 191.184L388.901 197.66ZM377.111 190.856L365.897 197.33L354.68 190.856L365.897 184.379L377.111 190.856ZM365.329 184.051L354.112 190.526L342.896 184.051L354.112 177.575L365.329 184.051ZM342.324 170.765L353.54 177.241L342.324 183.722L331.108 177.247L342.324 170.765ZM341.757 170.441L330.541 176.917L319.325 170.441L330.541 163.966L341.757 170.441ZM329.973 163.637L318.751 170.113L307.537 163.637L318.751 157.162L329.973 163.637ZM318.185 156.832L306.969 163.309L295.752 156.832L306.969 150.358L318.185 156.832ZM294.975 143.541C295.01 143.553 295.039 143.57 295.072 143.57C295.106 143.57 295.141 143.559 295.169 143.541L306.402 150.022L295.169 156.504C295.106 156.482 295.039 156.482 294.975 156.504L283.742 150.022L294.975 143.541ZM283.176 150.352L294.392 156.827L283.176 163.309L277.448 160.003C277.312 159.923 277.143 159.968 277.063 160.104C276.983 160.24 277.029 160.411 277.165 160.49L282.609 163.631L271.393 170.113L260.177 163.637L283.176 150.352ZM259.603 163.961L270.819 170.436L259.603 176.917L248.387 170.441L259.603 163.961ZM247.82 170.765L259.037 177.241L247.82 183.722L236.604 177.247L247.82 170.765ZM236.032 177.569L247.248 184.046L236.032 190.526L224.816 184.051L236.032 177.569ZM224.249 184.374L235.464 190.85L224.249 197.33L213.033 190.856L224.249 184.374ZM212.465 191.178L223.681 197.654L212.465 204.136L201.249 197.66L212.465 191.178ZM200.677 197.982L211.893 204.459L200.677 210.94L189.46 204.464L200.677 197.982ZM188.894 204.788L200.11 211.263L188.894 217.745L177.677 211.269L188.894 204.788ZM177.104 211.593L188.32 218.067L177.104 224.549L165.889 218.073L177.104 211.593ZM165.321 218.397L176.537 224.872L165.321 231.354L154.105 224.877L165.321 218.397ZM153.533 225.201L164.749 231.676L153.533 238.158L142.316 231.683L153.533 225.201ZM141.75 232.006L152.966 238.482L141.75 244.962L130.533 238.487L141.75 232.006ZM129.961 238.81L141.176 245.286L129.961 251.767L118.745 245.292L129.961 238.81ZM118.178 245.614L129.394 252.091L118.178 258.571L112.541 255.317C112.405 255.237 112.235 255.282 112.155 255.418C112.076 255.554 112.121 255.726 112.258 255.804L117.61 258.895L106.389 265.377L95.1726 258.901L118.178 245.614ZM94.6055 259.223L105.822 265.699L94.6055 272.181L83.3894 265.705L94.6055 259.223ZM82.8166 266.029L94.0327 272.504L82.8166 278.985L71.6005 272.509L82.8166 266.029ZM71.0335 272.833L82.2496 279.308L71.0335 285.79L59.8174 279.314L71.0335 272.833ZM59.2503 279.637L70.4664 286.112L59.2447 292.594L52.8881 288.925C52.752 288.846 52.5819 288.892 52.5025 289.028C52.4231 289.164 52.4685 289.334 52.6046 289.414L58.6776 292.918L47.4615 299.398L36.2454 292.924L59.2503 279.637ZM35.6784 293.246L46.8945 299.722L35.6784 306.203L24.4623 299.728L35.6784 293.246ZM12.6734 306.532L23.8896 300.056L35.1057 306.532L30.4785 309.202C30.3425 309.282 30.2972 309.452 30.3766 309.588C30.4276 309.679 30.5239 309.73 30.6203 309.73C30.6657 309.73 30.7168 309.719 30.7621 309.691L35.6726 306.855L46.8945 313.331L35.6784 319.813L12.6734 306.532ZM47.4615 326.617L36.2454 320.141L47.4615 313.665L58.6776 320.141L47.4615 326.617ZM48.0286 326.945L59.2447 320.471L70.4608 326.945L59.2503 333.422L48.0286 326.945ZM59.8174 333.75L71.0335 327.275L82.2496 333.75L71.0335 340.226L59.8174 333.75ZM71.6005 340.554L82.8224 334.079L94.0385 340.554L82.8166 347.03L71.6005 340.554ZM83.3838 347.36L94.6055 340.884L105.822 347.36L94.6055 353.835L83.3838 347.36ZM95.1726 354.164L106.394 347.688L117.616 354.164L106.389 360.639L95.1726 354.164ZM106.956 360.969L118.178 354.492L129.394 360.969L118.178 367.443L106.956 360.969ZM129.961 374.248L118.745 367.773L129.966 361.297L141.182 367.773L129.961 374.248ZM130.528 374.577L141.75 368.101L152.966 374.577L141.75 381.053L130.528 374.577ZM153.533 387.858L142.316 381.382L153.538 374.907L164.755 381.382L153.533 387.858ZM165.321 394.662L154.105 388.186L165.327 381.711L176.543 388.186L165.321 394.662ZM177.104 401.467L165.889 394.99L177.111 388.516L188.326 394.99L177.104 401.467ZM177.672 401.795L188.894 395.32L200.116 401.795L188.894 408.271L177.672 401.795ZM189.46 408.6L200.682 402.124L211.904 408.6L200.677 415.075L189.46 408.6ZM201.243 415.405L212.465 408.929L223.687 415.405L212.465 421.88L201.243 415.405ZM213.033 422.209L224.255 415.733L235.477 422.209L224.249 428.684L213.033 422.209ZM224.816 429.014L236.038 422.537L247.259 429.014L236.032 435.49L224.816 429.014ZM236.599 435.818L247.82 429.342L259.042 435.818L247.82 442.294L236.599 435.818ZM259.603 449.098L248.381 442.622L259.603 436.147L270.825 442.622L259.603 449.098ZM271.393 455.903L260.171 449.427L271.393 442.952L282.615 449.427L271.393 455.903ZM283.176 462.707L271.96 456.231L283.181 449.756L294.403 456.231L283.176 462.707ZM294.975 455.908L283.742 449.421L294.975 442.935C295.01 442.946 295.039 442.963 295.072 442.963C295.106 442.963 295.135 442.946 295.169 442.935L306.402 449.421L295.169 455.908C295.106 455.886 295.039 455.886 294.975 455.908ZM306.969 462.707L295.747 456.231L306.969 449.756L318.19 456.231L306.969 462.707ZM307.537 449.427L318.757 442.952L329.979 449.427L318.751 455.903L307.537 449.427Z" fill="#161F28"/>
<path d="M236.405 313.485L129.512 252.243L236.405 191.003L342.476 252.243L236.405 313.485Z" fill="#070A0E"/>
<path d="M236.409 313.767C236.359 313.767 236.314 313.756 236.267 313.728L129.374 252.487C129.284 252.436 129.233 252.346 129.233 252.243C129.233 252.141 129.289 252.05 129.374 251.999L236.267 190.759C236.353 190.708 236.461 190.708 236.551 190.759L342.623 251.999C342.707 252.05 342.764 252.141 342.764 252.243C342.764 252.346 342.707 252.436 342.623 252.487L236.551 313.728C236.506 313.756 236.455 313.767 236.409 313.767ZM130.083 252.243L236.403 313.156L341.907 252.243L236.403 191.331L130.083 252.243Z" fill="#657786"/>
<path d="M212.425 299.75L236.404 313.484L259.971 299.875L259.711 77.4466L236.138 63.8376L212.572 77.4466L212.425 299.75Z" fill="#070A0E"/>
<path d="M259.711 77.4469L235.764 91.5096L212.573 77.4469" fill="#070A0E"/>
<path d="M235.758 91.8383L235.616 91.7533L212.425 77.6849L212.714 77.2029L235.763 91.1806L259.569 77.2029L259.858 77.6906L235.758 91.8383Z" fill="#21CE99"/>
<path d="M259.689 299.875L259.428 77.6112L236.14 64.1608L212.851 77.6112L212.71 299.75H212.143L212.285 77.2822L236.14 63.5087L259.996 77.2822V77.4467L260.256 299.875H259.689Z" fill="#21CE99"/>
<path d="M236.406 313.767C236.354 313.767 236.309 313.756 236.264 313.728L129.37 252.488C129.234 252.408 129.189 252.238 129.262 252.102C129.342 251.966 129.512 251.921 129.648 251.994L236.4 313.162L342.329 251.999C342.465 251.921 342.635 251.966 342.715 252.102C342.793 252.238 342.748 252.408 342.612 252.488L236.542 313.728C236.501 313.756 236.451 313.767 236.406 313.767Z" fill="#657786"/>
<path d="M353.806 259.218C353.71 259.218 353.613 259.167 353.562 259.076C353.482 258.94 353.529 258.77 353.665 258.69L412.955 223.636C413.091 223.556 413.26 223.603 413.346 223.739C413.426 223.875 413.38 224.044 413.244 224.124L353.948 259.178C353.903 259.206 353.851 259.218 353.806 259.218Z" fill="url(#paint0_linear)"/>
<path d="M106.134 292.816C106.032 292.816 105.936 292.764 105.885 292.668C105.811 292.532 105.856 292.356 105.992 292.283L144.098 270.961C144.234 270.888 144.409 270.933 144.483 271.069C144.558 271.205 144.511 271.382 144.375 271.455L106.27 292.775C106.231 292.805 106.18 292.816 106.134 292.816Z" fill="url(#paint1_linear)"/>
<path d="M224.759 361.229C224.612 361.229 224.47 361.15 224.392 361.013C224.273 360.81 224.345 360.549 224.55 360.436L271.275 333.671C271.478 333.558 271.739 333.625 271.853 333.83C271.972 334.034 271.897 334.295 271.694 334.408L224.97 361.172C224.908 361.213 224.834 361.229 224.759 361.229Z" fill="url(#paint2_linear)"/>
<path d="M400.78 382.006C400.633 382.006 400.491 381.931 400.413 381.795C400.294 381.592 400.366 381.331 400.566 381.212L471.774 340.016C471.979 339.897 472.24 339.971 472.359 340.169C472.478 340.373 472.404 340.634 472.205 340.748L400.996 381.943C400.929 381.989 400.854 382.006 400.78 382.006Z" fill="url(#paint3_linear)"/>
<path d="M401.261 272.295L472.238 312.968L401.261 353.948L330.546 313.121L401.261 272.295Z" fill="#070A0E"/>
<path d="M401.262 354.232C401.211 354.232 401.166 354.22 401.12 354.192L330.405 313.365C330.32 313.314 330.263 313.223 330.263 313.121C330.263 313.018 330.32 312.929 330.405 312.877L401.12 272.051C401.206 271.999 401.314 271.999 401.405 272.051L472.381 312.724C472.472 312.776 472.522 312.866 472.522 312.968C472.522 313.07 472.472 313.161 472.381 313.212L401.405 354.192C401.359 354.22 401.314 354.232 401.262 354.232ZM331.113 313.121L401.262 353.619L471.673 312.968L401.262 272.617L331.113 313.121Z" fill="#657786"/>
<path d="M377.928 340.476L401.324 354.164L424.697 340.418V13.8016L401.324 0.328674L377.928 13.8583V340.476Z" fill="#070A0E"/>
<path d="M424.697 13.8019L401.324 27.547L377.928 13.8586" fill="#070A0E"/>
<path d="M401.325 27.8758L401.183 27.7908L377.78 14.1023L378.07 13.6147L401.325 27.2181L424.556 13.558L424.84 14.0457L401.325 27.8758Z" fill="#9669ED"/>
<path d="M401.262 354.232C401.212 354.232 401.165 354.22 401.12 354.192L330.404 313.365C330.268 313.286 330.223 313.115 330.303 312.979C330.382 312.843 330.551 312.798 330.689 312.878L401.262 353.626L472.098 312.73C472.234 312.651 472.403 312.696 472.483 312.832C472.562 312.968 472.517 313.139 472.381 313.218L401.404 354.198C401.359 354.22 401.313 354.232 401.262 354.232Z" fill="#657786"/>
<path d="M378.212 340.476H377.646V13.6941L401.325 0L424.982 13.6374V340.418H424.415V13.9663L401.325 0.6521L378.212 14.023V340.476Z" fill="#9669ED"/>
<path d="M165.796 326.73L94.8196 367.404L165.796 408.385L236.513 367.557L165.796 326.73Z" fill="#070A0E"/>
<path d="M165.798 408.668C165.747 408.668 165.701 408.657 165.656 408.629L94.6793 367.648C94.5941 367.598 94.5375 367.507 94.5375 367.404C94.5375 367.302 94.5941 367.212 94.6793 367.16L165.656 326.487C165.74 326.435 165.848 326.435 165.94 326.487L236.656 367.314C236.74 367.365 236.798 367.456 236.798 367.557C236.798 367.659 236.74 367.751 236.656 367.801L165.94 408.629C165.895 408.657 165.848 408.668 165.798 408.668ZM95.388 367.404L165.798 408.056L235.946 367.557L165.798 327.059L95.388 367.404Z" fill="#657786"/>
<path d="M189.001 394.992L165.463 408.601L141.857 394.56V190.753L165.429 177.247L189.001 190.844V394.992Z" fill="#070A0E"/>
<path d="M141.857 190.753L165.462 204.011L189.001 190.844" fill="#070A0E"/>
<path d="M165.462 204.334L141.714 190.997L141.994 190.504L165.462 203.682L188.86 190.595L189.137 191.094L165.462 204.334Z" fill="#9669ED"/>
<path d="M165.459 408.929L165.317 408.845L141.569 394.724V190.589L165.424 176.923L189.28 190.686V395.161L165.459 408.929ZM142.141 394.401L165.464 408.271L188.713 394.826V191.008L165.424 177.575L142.136 190.917V394.401H142.141Z" fill="#9669ED"/>
<path d="M165.797 408.668C165.746 408.668 165.7 408.657 165.655 408.629L94.6786 367.648C94.5425 367.568 94.4972 367.399 94.5765 367.263C94.6559 367.127 94.826 367.082 94.9622 367.16L165.797 408.055L236.372 367.307C236.508 367.229 236.677 367.274 236.757 367.41C236.836 367.546 236.791 367.717 236.655 367.795L165.939 408.623C165.894 408.657 165.849 408.668 165.797 408.668Z" fill="#657786"/>
<path d="M318.89 401.858L271.383 429.077L318.89 456.294L366.033 429.077L318.89 401.858Z" fill="#070A0E"/>
<path d="M318.89 456.577C318.838 456.577 318.793 456.566 318.746 456.538L271.241 429.319C271.15 429.269 271.098 429.178 271.098 429.075C271.098 428.974 271.155 428.883 271.241 428.833L318.746 401.614C318.832 401.563 318.94 401.563 319.031 401.614L366.175 428.833C366.259 428.883 366.317 428.974 366.317 429.075C366.317 429.178 366.259 429.269 366.175 429.319L319.031 456.538C318.985 456.566 318.94 456.577 318.89 456.577ZM271.949 429.075L318.884 455.965L365.46 429.075L318.884 402.186L271.949 429.075Z" fill="#657786"/>
<path d="M295.396 442.673L318.752 456.293L342.438 442.662V170.503L318.752 156.894L295.396 170.503V442.673Z" fill="#070A0E"/>
<path d="M318.751 184.443L295.253 170.748L295.536 170.26L318.751 183.785L342.295 170.255L342.578 170.748L318.751 184.443Z" fill="#21CE99"/>
<path d="M295.677 442.674H295.111V170.34L295.252 170.26L318.751 156.566L342.72 170.34V442.663H342.152V170.668L318.751 157.224L295.677 170.668V442.674Z" fill="#21CE99"/>
<path d="M318.89 456.577C318.838 456.577 318.793 456.566 318.748 456.538L271.241 429.319C271.105 429.241 271.059 429.07 271.133 428.934C271.212 428.798 271.383 428.753 271.519 428.831L318.884 455.97L365.886 428.831C366.022 428.753 366.192 428.798 366.272 428.934C366.351 429.07 366.306 429.241 366.17 429.319L319.026 456.538C318.985 456.566 318.94 456.577 318.89 456.577Z" fill="#657786"/>
</g>
<defs>
<linearGradient id="paint0_linear" x1="413.381" y1="241.406" x2="353.52" y2="241.406" gradientUnits="userSpaceOnUse">
<stop offset="0.00059375" stop-color="#070A0E" stop-opacity="0"/>
<stop offset="1" stop-color="#9669ED"/>
</linearGradient>
<linearGradient id="paint1_linear" x1="144.523" y1="281.87" x2="105.851" y2="281.87" gradientUnits="userSpaceOnUse">
<stop offset="0.00059375" stop-color="#070A0E" stop-opacity="0"/>
<stop offset="1" stop-color="#9669ED"/>
</linearGradient>
<linearGradient id="paint2_linear" x1="224.334" y1="347.42" x2="271.91" y2="347.42" gradientUnits="userSpaceOnUse">
<stop stop-color="#070A0E" stop-opacity="0"/>
<stop offset="1" stop-color="#40DCAF"/>
</linearGradient>
<linearGradient id="paint3_linear" x1="400.358" y1="360.986" x2="472.415" y2="360.986" gradientUnits="userSpaceOnUse">
<stop stop-color="#070A0E" stop-opacity="0"/>
<stop offset="1" stop-color="#40DCAF"/>
</linearGradient>
<clipPath id="clip0">
<rect width="589" height="476.81" fill="white"/>
</clipPath>
</defs>
</svg>
