<svg width="143" height="45" viewBox="0 0 143 45" fill="none" xmlns="http://www.w3.org/2000/svg">
<g clip-path="url(#clip0)">
<path d="M122.707 1.39673C128.468 1.39673 134.229 1.39673 139.99 1.39673C141.047 1.39673 141.266 1.61557 141.266 2.67332C141.266 12.5942 141.266 22.5516 141.302 32.4725C141.302 33.6761 140.938 34.3327 139.881 34.9163C134.411 37.9801 128.979 41.1168 123.51 44.2171C122.89 44.5818 122.379 44.5818 121.76 44.2171C116.109 40.9709 110.457 37.7612 104.769 34.5515C104.259 34.2233 104.04 33.8585 104.04 33.202C104.076 23.0258 104.04 12.886 104.04 2.70979C104.04 1.61557 104.259 1.39673 105.389 1.39673C111.15 1.39673 116.946 1.39673 122.707 1.39673ZM123.51 42.211C128.578 39.2931 133.609 36.4482 138.75 33.4938C133.646 30.5394 128.614 27.6579 123.51 24.74C123.51 30.6488 123.51 36.3752 123.51 42.211ZM121.796 42.211C121.796 36.4117 121.796 30.7218 121.796 24.9224C116.728 27.8038 111.769 30.6853 106.701 33.6032C111.769 36.4846 116.728 39.3296 121.796 42.211ZM105.754 11.6824C110.749 8.83741 115.634 6.02892 120.52 3.22042C120.483 3.18395 120.483 3.14748 120.447 3.111C115.561 3.111 110.676 3.111 105.754 3.111C105.754 5.95597 105.754 8.76446 105.754 11.6824ZM124.858 3.111C124.858 3.14748 124.822 3.18395 124.822 3.22042C129.708 6.02892 134.594 8.83741 139.552 11.6824C139.552 8.76446 139.552 5.95597 139.552 3.111C134.63 3.111 129.745 3.111 124.858 3.111ZM114.102 19.3784C111.806 23.3176 109.545 27.2567 107.285 31.1594C107.321 31.1959 107.358 31.2324 107.394 31.2689C111.915 28.6427 116.437 26.0531 121.103 23.3905C118.697 22.0045 116.4 20.6914 114.102 19.3784ZM130.437 18.0288C128.14 14.0897 125.88 10.1869 123.546 6.13834C123.546 11.5365 123.546 16.7158 123.546 21.968C125.88 20.6185 128.14 19.3419 130.437 18.0288ZM138.823 13.1778C134.193 10.5517 129.708 7.96203 125.187 5.37239C125.15 5.40886 125.114 5.44533 125.114 5.48181C127.375 9.38452 129.635 13.2508 131.896 17.1899C134.229 15.8404 136.489 14.5638 138.823 13.1778ZM112.645 18.5395C110.311 17.2264 108.087 15.9133 105.754 14.6003C105.754 19.889 105.754 25.0318 105.754 30.1747C105.79 30.2111 105.826 30.2111 105.862 30.2111C108.124 26.3449 110.348 22.4787 112.645 18.5395ZM120.228 5.48181C120.192 5.44533 120.155 5.40886 120.119 5.37239C115.634 7.96203 111.15 10.5152 106.592 13.1413C108.962 14.4909 111.187 15.7675 113.483 17.0805C115.744 13.2143 118.004 9.34804 120.228 5.48181ZM114.941 17.9194C117.238 19.2325 119.462 20.5091 121.76 21.8221C121.76 16.6064 121.76 11.5 121.76 6.21129C119.426 10.1869 117.202 14.0532 114.941 17.9194ZM139.406 30.1382C139.443 30.1382 139.479 30.1017 139.516 30.1017C139.516 24.9954 139.516 19.9255 139.516 14.7097C137.219 16.0228 134.995 17.2994 132.698 18.6124C134.995 22.5151 137.219 26.3449 139.406 30.1382ZM137.839 31.05C137.875 31.0136 137.912 30.9771 137.948 30.9406C135.724 27.1108 133.536 23.3176 131.276 19.4513C128.979 20.7644 126.755 22.041 124.458 23.354C129.015 25.9801 133.427 28.5333 137.839 31.05Z" fill="#F9FAFB"/>
<path fill-rule="evenodd" clip-rule="evenodd" d="M0.804688 27.2825V17.8565L3.02173 15.6387H9.2374L11.3752 17.7773V19.3417H9.47494V18.4506L8.32682 17.3021H3.93232L2.70502 18.5298V26.6092L3.93232 27.837H8.32682L9.47494 26.6884V25.7973H11.3752V27.3617L9.2374 29.5004H3.02173L0.804688 27.2825ZM13.6517 15.6387H22.9555V17.3021H15.552V21.718H22.3814V23.3616H15.552V27.837H22.9555V29.5004H13.6517V15.6387ZM35.5055 25.1438V29.5004H33.6051V25.6191L31.9621 23.8567H27.2312V29.5004H25.3308V15.6387H33.5062L35.4263 17.5595V21.8764L33.9021 23.4012L35.5055 25.1438ZM27.2312 22.2329H32.655L33.5457 21.3616V18.1338L32.655 17.2625H27.2312V22.2329ZM41.2659 17.2823H37.0891V15.6387H47.3429V17.2823H43.1662V29.5004H41.2659V17.2823ZM48.8276 27.2825V17.8565L51.0447 15.6387H57.5771L59.794 17.8565V27.2825L57.5771 29.5004H51.0447L48.8276 27.2825ZM56.6665 27.837L57.8937 26.6092V18.5298L56.6665 17.3021H51.9552L50.7279 18.5298V26.6092L51.9552 27.837H56.6665ZM72.7401 25.1438V29.5004H70.8398V25.6191L69.1968 23.8567H64.4657V29.5004H62.5654V15.6387H70.7408L72.6609 17.5595V21.8764L71.1367 23.4012L72.7401 25.1438ZM64.4657 22.2329H69.8896L70.7804 21.3616V18.1338L69.8896 17.2625H64.4657V22.2329ZM79.3912 15.6387H81.2916L86.2799 29.5004H84.3202L83.0929 25.9755H77.6097L76.3823 29.5004H74.4226L79.3912 15.6387ZM82.598 24.3715L80.3612 17.8961H80.3216L78.1244 24.3715H82.598Z" fill="#F9FAFB"/>
</g>
<defs>
<clipPath id="clip0">
<rect width="141.948" height="44" fill="white" transform="translate(0.367432 0.8125)"/>
</clipPath>
</defs>
</svg>
