<svg width="18" height="18" viewBox="0 0 18 18" fill="none" xmlns="http://www.w3.org/2000/svg">
<path d="M12.757 5.66388H11.8148C11.6099 5.66388 11.415 5.75993 11.2945 5.9246L8.13642 10.198L6.70606 8.26125C6.58553 8.09854 6.39267 8.00053 6.18575 8.00053H5.24356C5.11298 8.00053 5.03664 8.14559 5.11298 8.24949L7.61611 11.6368C7.67524 11.7174 7.75319 11.783 7.8435 11.8283C7.93382 11.8735 8.03388 11.8972 8.13542 11.8972C8.23695 11.8972 8.33701 11.8735 8.42733 11.8283C8.51764 11.783 8.59559 11.7174 8.65472 11.6368L12.8855 5.91283C12.9639 5.80894 12.8875 5.66388 12.757 5.66388Z" fill="#00D395"/>
<path d="M9 0C4.02991 0 0 3.9314 0 8.78C0 13.6286 4.02991 17.56 9 17.56C13.9701 17.56 18 13.6286 18 8.78C18 3.9314 13.9701 0 9 0ZM9 16.0705C4.87366 16.0705 1.52679 12.8055 1.52679 8.78C1.52679 4.75453 4.87366 1.48946 9 1.48946C13.1263 1.48946 16.4732 4.75453 16.4732 8.78C16.4732 12.8055 13.1263 16.0705 9 16.0705Z" fill="#00D395"/>
</svg>
