<svg width="1599" height="1060" viewBox="0 0 1599 1060" fill="none" xmlns="http://www.w3.org/2000/svg">
<g opacity="0.4">
<path opacity="0.4" d="M1.10803 2.8916C1.71998 2.8916 2.21607 2.40765 2.21607 1.81067C2.21607 1.21369 1.71998 0.729736 1.10803 0.729736C0.496083 0.729736 0 1.21369 0 1.81067C0 2.40765 0.496083 2.8916 1.10803 2.8916Z" fill="white"/>
<path opacity="0.4" d="M1.10803 134.767C1.71998 134.767 2.21607 134.283 2.21607 133.686C2.21607 133.089 1.71998 132.605 1.10803 132.605C0.496083 132.605 0 133.089 0 133.686C0 134.283 0.496083 134.767 1.10803 134.767Z" fill="white"/>
<path opacity="0.4" d="M1.10803 266.644C1.71998 266.644 2.21607 266.16 2.21607 265.563C2.21607 264.966 1.71998 264.482 1.10803 264.482C0.496083 264.482 0 264.966 0 265.563C0 266.16 0.496083 266.644 1.10803 266.644Z" fill="white"/>
<path opacity="0.4" d="M1.10803 398.52C1.71998 398.52 2.21607 398.036 2.21607 397.439C2.21607 396.842 1.71998 396.358 1.10803 396.358C0.496083 396.358 0 396.842 0 397.439C0 398.036 0.496083 398.52 1.10803 398.52Z" fill="white"/>
<path opacity="0.4" d="M1.10803 530.396C1.71998 530.396 2.21607 529.912 2.21607 529.314C2.21607 528.717 1.71998 528.233 1.10803 528.233C0.496083 528.233 0 528.717 0 529.314C0 529.912 0.496083 530.396 1.10803 530.396Z" fill="white"/>
<path opacity="0.4" d="M1.10803 662.271C1.71998 662.271 2.21607 661.788 2.21607 661.191C2.21607 660.594 1.71998 660.11 1.10803 660.11C0.496083 660.11 0 660.594 0 661.191C0 661.788 0.496083 662.271 1.10803 662.271Z" fill="white"/>
<path opacity="0.4" d="M1.10803 794.147C1.71998 794.147 2.21607 793.663 2.21607 793.066C2.21607 792.469 1.71998 791.985 1.10803 791.985C0.496083 791.985 0 792.469 0 793.066C0 793.663 0.496083 794.147 1.10803 794.147Z" fill="white"/>
<path opacity="0.4" d="M1.10803 926.023C1.71998 926.023 2.21607 925.539 2.21607 924.942C2.21607 924.345 1.71998 923.861 1.10803 923.861C0.496083 923.861 0 924.345 0 924.942C0 925.539 0.496083 926.023 1.10803 926.023Z" fill="white"/>
<path opacity="0.4" d="M1.10803 1028.35C1.71998 1028.35 2.21607 1027.71 2.21607 1026.91C2.21607 1026.12 1.71998 1025.47 1.10803 1025.47C0.496083 1025.47 0 1026.12 0 1026.91C0 1027.71 0.496083 1028.35 1.10803 1028.35Z" fill="white"/>
</g>
<g opacity="0.4">
<path opacity="0.4" d="M134.069 2.8916C134.681 2.8916 135.177 2.40765 135.177 1.81067C135.177 1.21369 134.681 0.729736 134.069 0.729736C133.457 0.729736 132.961 1.21369 132.961 1.81067C132.961 2.40765 133.457 2.8916 134.069 2.8916Z" fill="white"/>
<path opacity="0.4" d="M134.07 134.767C134.682 134.767 135.178 134.283 135.178 133.686C135.178 133.089 134.682 132.605 134.07 132.605C133.458 132.605 132.962 133.089 132.962 133.686C132.962 134.283 133.458 134.767 134.07 134.767Z" fill="white"/>
<path opacity="0.4" d="M134.07 266.644C134.682 266.644 135.178 266.16 135.178 265.563C135.178 264.966 134.682 264.482 134.07 264.482C133.458 264.482 132.962 264.966 132.962 265.563C132.962 266.16 133.458 266.644 134.07 266.644Z" fill="white"/>
<path opacity="0.4" d="M134.07 398.52C134.682 398.52 135.178 398.036 135.178 397.439C135.178 396.842 134.682 396.358 134.07 396.358C133.458 396.358 132.962 396.842 132.962 397.439C132.962 398.036 133.458 398.52 134.07 398.52Z" fill="white"/>
<path opacity="0.4" d="M134.07 530.396C134.682 530.396 135.178 529.912 135.178 529.314C135.178 528.717 134.682 528.233 134.07 528.233C133.458 528.233 132.962 528.717 132.962 529.314C132.962 529.912 133.458 530.396 134.07 530.396Z" fill="white"/>
<path opacity="0.4" d="M134.07 662.271C134.682 662.271 135.178 661.788 135.178 661.191C135.178 660.594 134.682 660.11 134.07 660.11C133.458 660.11 132.962 660.594 132.962 661.191C132.962 661.788 133.458 662.271 134.07 662.271Z" fill="white"/>
<path opacity="0.4" d="M134.07 794.147C134.682 794.147 135.178 793.663 135.178 793.066C135.178 792.469 134.682 791.985 134.07 791.985C133.458 791.985 132.962 792.469 132.962 793.066C132.962 793.663 133.458 794.147 134.07 794.147Z" fill="white"/>
<path opacity="0.4" d="M134.07 926.023C134.682 926.023 135.178 925.539 135.178 924.942C135.178 924.345 134.682 923.861 134.07 923.861C133.458 923.861 132.962 924.345 132.962 924.942C132.962 925.539 133.458 926.023 134.07 926.023Z" fill="white"/>
<path opacity="0.4" d="M134.07 1057.9C134.682 1057.9 135.178 1057.42 135.178 1056.82C135.178 1056.22 134.682 1055.74 134.07 1055.74C133.458 1055.74 132.962 1056.22 132.962 1056.82C132.962 1057.42 133.458 1057.9 134.07 1057.9Z" fill="white"/>
</g>
<g opacity="0.4">
<path opacity="0.4" d="M267.036 2.8916C267.648 2.8916 268.144 2.40765 268.144 1.81067C268.144 1.21369 267.648 0.729736 267.036 0.729736C266.424 0.729736 265.928 1.21369 265.928 1.81067C265.928 2.40765 266.424 2.8916 267.036 2.8916Z" fill="white"/>
<path opacity="0.4" d="M267.036 134.767C267.648 134.767 268.144 134.283 268.144 133.686C268.144 133.089 267.648 132.605 267.036 132.605C266.424 132.605 265.928 133.089 265.928 133.686C265.928 134.283 266.424 134.767 267.036 134.767Z" fill="white"/>
<path opacity="0.4" d="M267.036 266.644C267.648 266.644 268.144 266.16 268.144 265.563C268.144 264.966 267.648 264.482 267.036 264.482C266.424 264.482 265.928 264.966 265.928 265.563C265.928 266.16 266.424 266.644 267.036 266.644Z" fill="white"/>
<path opacity="0.4" d="M267.036 398.52C267.648 398.52 268.144 398.036 268.144 397.439C268.144 396.842 267.648 396.358 267.036 396.358C266.424 396.358 265.928 396.842 265.928 397.439C265.928 398.036 266.424 398.52 267.036 398.52Z" fill="white"/>
<path opacity="0.4" d="M267.036 530.396C267.648 530.396 268.144 529.912 268.144 529.314C268.144 528.717 267.648 528.233 267.036 528.233C266.424 528.233 265.928 528.717 265.928 529.314C265.928 529.912 266.424 530.396 267.036 530.396Z" fill="white"/>
<path opacity="0.4" d="M267.036 662.271C267.648 662.271 268.144 661.788 268.144 661.191C268.144 660.594 267.648 660.11 267.036 660.11C266.424 660.11 265.928 660.594 265.928 661.191C265.928 661.788 266.424 662.271 267.036 662.271Z" fill="white"/>
<path opacity="0.4" d="M267.036 794.147C267.648 794.147 268.144 793.663 268.144 793.066C268.144 792.469 267.648 791.985 267.036 791.985C266.424 791.985 265.928 792.469 265.928 793.066C265.928 793.663 266.424 794.147 267.036 794.147Z" fill="white"/>
<path opacity="0.4" d="M267.036 926.023C267.648 926.023 268.144 925.539 268.144 924.942C268.144 924.345 267.648 923.861 267.036 923.861C266.424 923.861 265.928 924.345 265.928 924.942C265.928 925.539 266.424 926.023 267.036 926.023Z" fill="white"/>
<path opacity="0.4" d="M267.036 1057.9C267.648 1057.9 268.144 1057.42 268.144 1056.82C268.144 1056.22 267.648 1055.74 267.036 1055.74C266.424 1055.74 265.928 1056.22 265.928 1056.82C265.928 1057.42 266.424 1057.9 267.036 1057.9Z" fill="white"/>
</g>
<g opacity="0.4">
<path opacity="0.4" d="M399.999 2.8916C400.611 2.8916 401.107 2.40765 401.107 1.81067C401.107 1.21369 400.611 0.729736 399.999 0.729736C399.387 0.729736 398.891 1.21369 398.891 1.81067C398.891 2.40765 399.387 2.8916 399.999 2.8916Z" fill="white"/>
<path opacity="0.4" d="M400 134.767C400.612 134.767 401.108 134.283 401.108 133.686C401.108 133.089 400.612 132.605 400 132.605C399.388 132.605 398.892 133.089 398.892 133.686C398.892 134.283 399.388 134.767 400 134.767Z" fill="white"/>
<path opacity="0.4" d="M400 266.644C400.612 266.644 401.108 266.16 401.108 265.563C401.108 264.966 400.612 264.482 400 264.482C399.388 264.482 398.892 264.966 398.892 265.563C398.892 266.16 399.388 266.644 400 266.644Z" fill="white"/>
<path opacity="0.4" d="M400 398.52C400.612 398.52 401.108 398.036 401.108 397.439C401.108 396.842 400.612 396.358 400 396.358C399.388 396.358 398.892 396.842 398.892 397.439C398.892 398.036 399.388 398.52 400 398.52Z" fill="white"/>
<path opacity="0.4" d="M400 530.396C400.612 530.396 401.108 529.912 401.108 529.314C401.108 528.717 400.612 528.233 400 528.233C399.388 528.233 398.892 528.717 398.892 529.314C398.892 529.912 399.388 530.396 400 530.396Z" fill="white"/>
<path opacity="0.4" d="M400 662.271C400.612 662.271 401.108 661.788 401.108 661.191C401.108 660.594 400.612 660.11 400 660.11C399.388 660.11 398.892 660.594 398.892 661.191C398.892 661.788 399.388 662.271 400 662.271Z" fill="white"/>
<path opacity="0.4" d="M400 794.147C400.612 794.147 401.108 793.663 401.108 793.066C401.108 792.469 400.612 791.985 400 791.985C399.388 791.985 398.892 792.469 398.892 793.066C398.892 793.663 399.388 794.147 400 794.147Z" fill="white"/>
<path opacity="0.4" d="M400 926.023C400.612 926.023 401.108 925.539 401.108 924.942C401.108 924.345 400.612 923.861 400 923.861C399.388 923.861 398.892 924.345 398.892 924.942C398.892 925.539 399.388 926.023 400 926.023Z" fill="white"/>
<path opacity="0.4" d="M400 1057.9C400.612 1057.9 401.108 1057.42 401.108 1056.82C401.108 1056.22 400.612 1055.74 400 1055.74C399.388 1055.74 398.892 1056.22 398.892 1056.82C398.892 1057.42 399.388 1057.9 400 1057.9Z" fill="white"/>
</g>
<g opacity="0.4">
<path opacity="0.4" d="M532.966 2.8916C533.578 2.8916 534.074 2.40765 534.074 1.81067C534.074 1.21369 533.578 0.729736 532.966 0.729736C532.354 0.729736 531.858 1.21369 531.858 1.81067C531.858 2.40765 532.354 2.8916 532.966 2.8916Z" fill="white"/>
<path opacity="0.4" d="M532.965 134.767C533.577 134.767 534.073 134.283 534.073 133.686C534.073 133.089 533.577 132.605 532.965 132.605C532.354 132.605 531.857 133.089 531.857 133.686C531.857 134.283 532.354 134.767 532.965 134.767Z" fill="white"/>
<path opacity="0.4" d="M532.965 266.644C533.577 266.644 534.073 266.16 534.073 265.563C534.073 264.966 533.577 264.482 532.965 264.482C532.354 264.482 531.857 264.966 531.857 265.563C531.857 266.16 532.354 266.644 532.965 266.644Z" fill="white"/>
<path opacity="0.4" d="M532.965 398.52C533.577 398.52 534.073 398.036 534.073 397.439C534.073 396.842 533.577 396.358 532.965 396.358C532.354 396.358 531.857 396.842 531.857 397.439C531.857 398.036 532.354 398.52 532.965 398.52Z" fill="white"/>
<path opacity="0.4" d="M532.965 530.396C533.577 530.396 534.073 529.912 534.073 529.314C534.073 528.717 533.577 528.233 532.965 528.233C532.354 528.233 531.857 528.717 531.857 529.314C531.857 529.912 532.354 530.396 532.965 530.396Z" fill="white"/>
<path opacity="0.4" d="M532.965 662.271C533.577 662.271 534.073 661.788 534.073 661.191C534.073 660.594 533.577 660.11 532.965 660.11C532.354 660.11 531.857 660.594 531.857 661.191C531.857 661.788 532.354 662.271 532.965 662.271Z" fill="white"/>
<path opacity="0.4" d="M532.965 794.147C533.577 794.147 534.073 793.663 534.073 793.066C534.073 792.469 533.577 791.985 532.965 791.985C532.354 791.985 531.857 792.469 531.857 793.066C531.857 793.663 532.354 794.147 532.965 794.147Z" fill="white"/>
<path opacity="0.4" d="M532.965 926.023C533.577 926.023 534.073 925.539 534.073 924.942C534.073 924.345 533.577 923.861 532.965 923.861C532.354 923.861 531.857 924.345 531.857 924.942C531.857 925.539 532.354 926.023 532.965 926.023Z" fill="white"/>
<path opacity="0.4" d="M532.965 1057.9C533.577 1057.9 534.073 1057.42 534.073 1056.82C534.073 1056.22 533.577 1055.74 532.965 1055.74C532.354 1055.74 531.857 1056.22 531.857 1056.82C531.857 1057.42 532.354 1057.9 532.965 1057.9Z" fill="white"/>
</g>
<g opacity="0.2">
<path opacity="0.2" d="M665.926 2.8916C666.538 2.8916 667.034 2.40765 667.034 1.81067C667.034 1.21369 666.538 0.729736 665.926 0.729736C665.314 0.729736 664.818 1.21369 664.818 1.81067C664.818 2.40765 665.314 2.8916 665.926 2.8916Z" fill="white"/>
<path opacity="0.2" d="M665.927 134.767C666.539 134.767 667.035 134.283 667.035 133.686C667.035 133.089 666.539 132.605 665.927 132.605C665.315 132.605 664.819 133.089 664.819 133.686C664.819 134.283 665.315 134.767 665.927 134.767Z" fill="white"/>
<path opacity="0.2" d="M665.927 266.644C666.539 266.644 667.035 266.16 667.035 265.563C667.035 264.966 666.539 264.482 665.927 264.482C665.315 264.482 664.819 264.966 664.819 265.563C664.819 266.16 665.315 266.644 665.927 266.644Z" fill="white"/>
<path opacity="0.2" d="M665.927 398.52C666.539 398.52 667.035 398.036 667.035 397.439C667.035 396.842 666.539 396.358 665.927 396.358C665.315 396.358 664.819 396.842 664.819 397.439C664.819 398.036 665.315 398.52 665.927 398.52Z" fill="white"/>
<path opacity="0.2" d="M665.927 530.396C666.539 530.396 667.035 529.912 667.035 529.314C667.035 528.717 666.539 528.233 665.927 528.233C665.315 528.233 664.819 528.717 664.819 529.314C664.819 529.912 665.315 530.396 665.927 530.396Z" fill="white"/>
<path opacity="0.2" d="M665.927 662.271C666.539 662.271 667.035 661.788 667.035 661.191C667.035 660.594 666.539 660.11 665.927 660.11C665.315 660.11 664.819 660.594 664.819 661.191C664.819 661.788 665.315 662.271 665.927 662.271Z" fill="white"/>
<path opacity="0.2" d="M665.927 794.147C666.539 794.147 667.035 793.663 667.035 793.066C667.035 792.469 666.539 791.985 665.927 791.985C665.315 791.985 664.819 792.469 664.819 793.066C664.819 793.663 665.315 794.147 665.927 794.147Z" fill="white"/>
<path opacity="0.2" d="M665.927 926.023C666.539 926.023 667.035 925.539 667.035 924.942C667.035 924.345 666.539 923.861 665.927 923.861C665.315 923.861 664.819 924.345 664.819 924.942C664.819 925.539 665.315 926.023 665.927 926.023Z" fill="white"/>
<path opacity="0.2" d="M665.927 1057.9C666.539 1057.9 667.035 1057.42 667.035 1056.82C667.035 1056.22 666.539 1055.74 665.927 1055.74C665.315 1055.74 664.819 1056.22 664.819 1056.82C664.819 1057.42 665.315 1057.9 665.927 1057.9Z" fill="white"/>
</g>
<g opacity="0.1">
<path opacity="0.1" d="M798.891 2.89185C799.503 2.89185 799.999 2.40784 799.999 1.81079C799.999 1.21374 799.503 0.729736 798.891 0.729736C798.279 0.729736 797.783 1.21374 797.783 1.81079C797.783 2.40784 798.279 2.89185 798.891 2.89185Z" fill="white"/>
<path opacity="0.1" d="M798.891 134.768C799.503 134.768 799.999 134.284 799.999 133.687C799.999 133.09 799.503 132.606 798.891 132.606C798.279 132.606 797.783 133.09 797.783 133.687C797.783 134.284 798.279 134.768 798.891 134.768Z" fill="white"/>
<path opacity="0.1" d="M798.891 266.644C799.503 266.644 799.999 266.16 799.999 265.563C799.999 264.966 799.503 264.482 798.891 264.482C798.279 264.482 797.783 264.966 797.783 265.563C797.783 266.16 798.279 266.644 798.891 266.644Z" fill="white"/>
<path opacity="0.1" d="M798.891 398.52C799.503 398.52 799.999 398.036 799.999 397.439C799.999 396.842 799.503 396.358 798.891 396.358C798.279 396.358 797.783 396.842 797.783 397.439C797.783 398.036 798.279 398.52 798.891 398.52Z" fill="white"/>
<path opacity="0.1" d="M798.891 530.396C799.503 530.396 799.999 529.912 799.999 529.315C799.999 528.718 799.503 528.234 798.891 528.234C798.279 528.234 797.783 528.718 797.783 529.315C797.783 529.912 798.279 530.396 798.891 530.396Z" fill="white"/>
<path opacity="0.1" d="M798.891 662.272C799.503 662.272 799.999 661.788 799.999 661.191C799.999 660.594 799.503 660.11 798.891 660.11C798.279 660.11 797.783 660.594 797.783 661.191C797.783 661.788 798.279 662.272 798.891 662.272Z" fill="white"/>
<path opacity="0.1" d="M798.891 794.148C799.503 794.148 799.999 793.664 799.999 793.067C799.999 792.47 799.503 791.986 798.891 791.986C798.279 791.986 797.783 792.47 797.783 793.067C797.783 793.664 798.279 794.148 798.891 794.148Z" fill="white"/>
<path opacity="0.1" d="M798.891 926.024C799.503 926.024 799.999 925.54 799.999 924.943C799.999 924.346 799.503 923.862 798.891 923.862C798.279 923.862 797.783 924.346 797.783 924.943C797.783 925.54 798.279 926.024 798.891 926.024Z" fill="white"/>
<path opacity="0.1" d="M798.891 1057.9C799.503 1057.9 799.999 1057.42 799.999 1056.82C799.999 1056.22 799.503 1055.74 798.891 1055.74C798.279 1055.74 797.783 1056.22 797.783 1056.82C797.783 1057.42 798.279 1057.9 798.891 1057.9Z" fill="white"/>
</g>
<g opacity="0.4">
<path opacity="0.4" d="M800.108 4.30225C800.72 4.30225 801.216 3.8183 801.216 3.22131C801.216 2.62433 800.72 2.14038 800.108 2.14038C799.496 2.14038 799 2.62433 799 3.22131C799 3.8183 799.496 4.30225 800.108 4.30225Z" fill="white"/>
<path opacity="0.4" d="M800.108 136.178C800.72 136.178 801.216 135.694 801.216 135.097C801.216 134.5 800.72 134.016 800.108 134.016C799.496 134.016 799 134.5 799 135.097C799 135.694 799.496 136.178 800.108 136.178Z" fill="white"/>
<path opacity="0.4" d="M800.108 268.054C800.72 268.054 801.216 267.57 801.216 266.973C801.216 266.376 800.72 265.892 800.108 265.892C799.496 265.892 799 266.376 799 266.973C799 267.57 799.496 268.054 800.108 268.054Z" fill="white"/>
<path opacity="0.4" d="M800.108 399.93C800.72 399.93 801.216 399.446 801.216 398.849C801.216 398.252 800.72 397.768 800.108 397.768C799.496 397.768 799 398.252 799 398.849C799 399.446 799.496 399.93 800.108 399.93Z" fill="white"/>
<path opacity="0.4" d="M800.108 531.806C800.72 531.806 801.216 531.322 801.216 530.725C801.216 530.128 800.72 529.644 800.108 529.644C799.496 529.644 799 530.128 799 530.725C799 531.322 799.496 531.806 800.108 531.806Z" fill="white"/>
<path opacity="0.4" d="M800.108 663.682C800.72 663.682 801.216 663.198 801.216 662.601C801.216 662.004 800.72 661.52 800.108 661.52C799.496 661.52 799 662.004 799 662.601C799 663.198 799.496 663.682 800.108 663.682Z" fill="white"/>
<path opacity="0.4" d="M800.108 795.558C800.72 795.558 801.216 795.074 801.216 794.477C801.216 793.88 800.72 793.396 800.108 793.396C799.496 793.396 799 793.88 799 794.477C799 795.074 799.496 795.558 800.108 795.558Z" fill="white"/>
<path opacity="0.4" d="M800.108 927.434C800.72 927.434 801.216 926.95 801.216 926.353C801.216 925.756 800.72 925.272 800.108 925.272C799.496 925.272 799 925.756 799 926.353C799 926.95 799.496 927.434 800.108 927.434Z" fill="white"/>
<path opacity="0.4" d="M800.108 1029.76C800.72 1029.76 801.216 1029.12 801.216 1028.32C801.216 1027.53 800.72 1026.88 800.108 1026.88C799.496 1026.88 799 1027.53 799 1028.32C799 1029.12 799.496 1029.76 800.108 1029.76Z" fill="white"/>
</g>
<g opacity="0.4">
<path opacity="0.4" d="M933.069 4.30225C933.681 4.30225 934.177 3.8183 934.177 3.22131C934.177 2.62433 933.681 2.14038 933.069 2.14038C932.457 2.14038 931.961 2.62433 931.961 3.22131C931.961 3.8183 932.457 4.30225 933.069 4.30225Z" fill="white"/>
<path opacity="0.4" d="M933.07 136.178C933.682 136.178 934.178 135.694 934.178 135.097C934.178 134.5 933.682 134.016 933.07 134.016C932.458 134.016 931.962 134.5 931.962 135.097C931.962 135.694 932.458 136.178 933.07 136.178Z" fill="white"/>
<path opacity="0.4" d="M933.07 268.054C933.682 268.054 934.178 267.57 934.178 266.973C934.178 266.376 933.682 265.892 933.07 265.892C932.458 265.892 931.962 266.376 931.962 266.973C931.962 267.57 932.458 268.054 933.07 268.054Z" fill="white"/>
<path opacity="0.4" d="M933.07 399.93C933.682 399.93 934.178 399.446 934.178 398.849C934.178 398.252 933.682 397.768 933.07 397.768C932.458 397.768 931.962 398.252 931.962 398.849C931.962 399.446 932.458 399.93 933.07 399.93Z" fill="white"/>
<path opacity="0.4" d="M933.07 531.806C933.682 531.806 934.178 531.322 934.178 530.725C934.178 530.128 933.682 529.644 933.07 529.644C932.458 529.644 931.962 530.128 931.962 530.725C931.962 531.322 932.458 531.806 933.07 531.806Z" fill="white"/>
<path opacity="0.4" d="M933.07 663.682C933.682 663.682 934.178 663.198 934.178 662.601C934.178 662.004 933.682 661.52 933.07 661.52C932.458 661.52 931.962 662.004 931.962 662.601C931.962 663.198 932.458 663.682 933.07 663.682Z" fill="white"/>
<path opacity="0.4" d="M933.07 795.558C933.682 795.558 934.178 795.074 934.178 794.477C934.178 793.88 933.682 793.396 933.07 793.396C932.458 793.396 931.962 793.88 931.962 794.477C931.962 795.074 932.458 795.558 933.07 795.558Z" fill="white"/>
<path opacity="0.4" d="M933.07 927.434C933.682 927.434 934.178 926.95 934.178 926.353C934.178 925.756 933.682 925.272 933.07 925.272C932.458 925.272 931.962 925.756 931.962 926.353C931.962 926.95 932.458 927.434 933.07 927.434Z" fill="white"/>
<path opacity="0.4" d="M933.07 1059.31C933.682 1059.31 934.178 1058.83 934.178 1058.23C934.178 1057.63 933.682 1057.15 933.07 1057.15C932.458 1057.15 931.962 1057.63 931.962 1058.23C931.962 1058.83 932.458 1059.31 933.07 1059.31Z" fill="white"/>
</g>
<g opacity="0.4">
<path opacity="0.4" d="M1066.04 4.30225C1066.65 4.30225 1067.14 3.8183 1067.14 3.22131C1067.14 2.62433 1066.65 2.14038 1066.04 2.14038C1065.42 2.14038 1064.93 2.62433 1064.93 3.22131C1064.93 3.8183 1065.42 4.30225 1066.04 4.30225Z" fill="white"/>
<path opacity="0.4" d="M1066.04 136.178C1066.65 136.178 1067.14 135.694 1067.14 135.097C1067.14 134.5 1066.65 134.016 1066.04 134.016C1065.42 134.016 1064.93 134.5 1064.93 135.097C1064.93 135.694 1065.42 136.178 1066.04 136.178Z" fill="white"/>
<path opacity="0.4" d="M1066.04 268.054C1066.65 268.054 1067.14 267.57 1067.14 266.973C1067.14 266.376 1066.65 265.892 1066.04 265.892C1065.42 265.892 1064.93 266.376 1064.93 266.973C1064.93 267.57 1065.42 268.054 1066.04 268.054Z" fill="white"/>
<path opacity="0.4" d="M1066.04 399.93C1066.65 399.93 1067.14 399.446 1067.14 398.849C1067.14 398.252 1066.65 397.768 1066.04 397.768C1065.42 397.768 1064.93 398.252 1064.93 398.849C1064.93 399.446 1065.42 399.93 1066.04 399.93Z" fill="white"/>
<path opacity="0.4" d="M1066.04 531.806C1066.65 531.806 1067.14 531.322 1067.14 530.725C1067.14 530.128 1066.65 529.644 1066.04 529.644C1065.42 529.644 1064.93 530.128 1064.93 530.725C1064.93 531.322 1065.42 531.806 1066.04 531.806Z" fill="white"/>
<path opacity="0.4" d="M1066.04 663.682C1066.65 663.682 1067.14 663.198 1067.14 662.601C1067.14 662.004 1066.65 661.52 1066.04 661.52C1065.42 661.52 1064.93 662.004 1064.93 662.601C1064.93 663.198 1065.42 663.682 1066.04 663.682Z" fill="white"/>
<path opacity="0.4" d="M1066.04 795.558C1066.65 795.558 1067.14 795.074 1067.14 794.477C1067.14 793.88 1066.65 793.396 1066.04 793.396C1065.42 793.396 1064.93 793.88 1064.93 794.477C1064.93 795.074 1065.42 795.558 1066.04 795.558Z" fill="white"/>
<path opacity="0.4" d="M1066.04 927.434C1066.65 927.434 1067.14 926.95 1067.14 926.353C1067.14 925.756 1066.65 925.272 1066.04 925.272C1065.42 925.272 1064.93 925.756 1064.93 926.353C1064.93 926.95 1065.42 927.434 1066.04 927.434Z" fill="white"/>
<path opacity="0.4" d="M1066.04 1059.31C1066.65 1059.31 1067.14 1058.83 1067.14 1058.23C1067.14 1057.63 1066.65 1057.15 1066.04 1057.15C1065.42 1057.15 1064.93 1057.63 1064.93 1058.23C1064.93 1058.83 1065.42 1059.31 1066.04 1059.31Z" fill="white"/>
</g>
<g opacity="0.4">
<path opacity="0.4" d="M1199 4.30225C1199.61 4.30225 1200.11 3.8183 1200.11 3.22131C1200.11 2.62433 1199.61 2.14038 1199 2.14038C1198.39 2.14038 1197.89 2.62433 1197.89 3.22131C1197.89 3.8183 1198.39 4.30225 1199 4.30225Z" fill="white"/>
<path opacity="0.4" d="M1199 136.178C1199.61 136.178 1200.11 135.694 1200.11 135.097C1200.11 134.5 1199.61 134.016 1199 134.016C1198.39 134.016 1197.89 134.5 1197.89 135.097C1197.89 135.694 1198.39 136.178 1199 136.178Z" fill="white"/>
<path opacity="0.4" d="M1199 268.054C1199.61 268.054 1200.11 267.57 1200.11 266.973C1200.11 266.376 1199.61 265.892 1199 265.892C1198.39 265.892 1197.89 266.376 1197.89 266.973C1197.89 267.57 1198.39 268.054 1199 268.054Z" fill="white"/>
<path opacity="0.4" d="M1199 399.93C1199.61 399.93 1200.11 399.446 1200.11 398.849C1200.11 398.252 1199.61 397.768 1199 397.768C1198.39 397.768 1197.89 398.252 1197.89 398.849C1197.89 399.446 1198.39 399.93 1199 399.93Z" fill="white"/>
<path opacity="0.4" d="M1199 531.806C1199.61 531.806 1200.11 531.322 1200.11 530.725C1200.11 530.128 1199.61 529.644 1199 529.644C1198.39 529.644 1197.89 530.128 1197.89 530.725C1197.89 531.322 1198.39 531.806 1199 531.806Z" fill="white"/>
<path opacity="0.4" d="M1199 663.682C1199.61 663.682 1200.11 663.198 1200.11 662.601C1200.11 662.004 1199.61 661.52 1199 661.52C1198.39 661.52 1197.89 662.004 1197.89 662.601C1197.89 663.198 1198.39 663.682 1199 663.682Z" fill="white"/>
<path opacity="0.4" d="M1199 795.558C1199.61 795.558 1200.11 795.074 1200.11 794.477C1200.11 793.88 1199.61 793.396 1199 793.396C1198.39 793.396 1197.89 793.88 1197.89 794.477C1197.89 795.074 1198.39 795.558 1199 795.558Z" fill="white"/>
<path opacity="0.4" d="M1199 927.434C1199.61 927.434 1200.11 926.95 1200.11 926.353C1200.11 925.756 1199.61 925.272 1199 925.272C1198.39 925.272 1197.89 925.756 1197.89 926.353C1197.89 926.95 1198.39 927.434 1199 927.434Z" fill="white"/>
<path opacity="0.4" d="M1199 1059.31C1199.61 1059.31 1200.11 1058.83 1200.11 1058.23C1200.11 1057.63 1199.61 1057.15 1199 1057.15C1198.39 1057.15 1197.89 1057.63 1197.89 1058.23C1197.89 1058.83 1198.39 1059.31 1199 1059.31Z" fill="white"/>
</g>
<g opacity="0.4">
<path opacity="0.4" d="M1331.97 4.30225C1332.58 4.30225 1333.07 3.8183 1333.07 3.22131C1333.07 2.62433 1332.58 2.14038 1331.97 2.14038C1331.35 2.14038 1330.86 2.62433 1330.86 3.22131C1330.86 3.8183 1331.35 4.30225 1331.97 4.30225Z" fill="white"/>
<path opacity="0.4" d="M1331.97 136.178C1332.58 136.178 1333.07 135.694 1333.07 135.097C1333.07 134.5 1332.58 134.016 1331.97 134.016C1331.35 134.016 1330.86 134.5 1330.86 135.097C1330.86 135.694 1331.35 136.178 1331.97 136.178Z" fill="white"/>
<path opacity="0.4" d="M1331.97 268.054C1332.58 268.054 1333.07 267.57 1333.07 266.973C1333.07 266.376 1332.58 265.892 1331.97 265.892C1331.35 265.892 1330.86 266.376 1330.86 266.973C1330.86 267.57 1331.35 268.054 1331.97 268.054Z" fill="white"/>
<path opacity="0.4" d="M1331.97 399.93C1332.58 399.93 1333.07 399.446 1333.07 398.849C1333.07 398.252 1332.58 397.768 1331.97 397.768C1331.35 397.768 1330.86 398.252 1330.86 398.849C1330.86 399.446 1331.35 399.93 1331.97 399.93Z" fill="white"/>
<path opacity="0.4" d="M1331.97 531.806C1332.58 531.806 1333.07 531.322 1333.07 530.725C1333.07 530.128 1332.58 529.644 1331.97 529.644C1331.35 529.644 1330.86 530.128 1330.86 530.725C1330.86 531.322 1331.35 531.806 1331.97 531.806Z" fill="white"/>
<path opacity="0.4" d="M1331.97 663.682C1332.58 663.682 1333.07 663.198 1333.07 662.601C1333.07 662.004 1332.58 661.52 1331.97 661.52C1331.35 661.52 1330.86 662.004 1330.86 662.601C1330.86 663.198 1331.35 663.682 1331.97 663.682Z" fill="white"/>
<path opacity="0.4" d="M1331.97 795.558C1332.58 795.558 1333.07 795.074 1333.07 794.477C1333.07 793.88 1332.58 793.396 1331.97 793.396C1331.35 793.396 1330.86 793.88 1330.86 794.477C1330.86 795.074 1331.35 795.558 1331.97 795.558Z" fill="white"/>
<path opacity="0.4" d="M1331.97 927.434C1332.58 927.434 1333.07 926.95 1333.07 926.353C1333.07 925.756 1332.58 925.272 1331.97 925.272C1331.35 925.272 1330.86 925.756 1330.86 926.353C1330.86 926.95 1331.35 927.434 1331.97 927.434Z" fill="white"/>
<path opacity="0.4" d="M1331.97 1059.31C1332.58 1059.31 1333.07 1058.83 1333.07 1058.23C1333.07 1057.63 1332.58 1057.15 1331.97 1057.15C1331.35 1057.15 1330.86 1057.63 1330.86 1058.23C1330.86 1058.83 1331.35 1059.31 1331.97 1059.31Z" fill="white"/>
</g>
<g opacity="0.2">
<path opacity="0.2" d="M1464.93 4.30225C1465.54 4.30225 1466.03 3.8183 1466.03 3.22131C1466.03 2.62433 1465.54 2.14038 1464.93 2.14038C1464.31 2.14038 1463.82 2.62433 1463.82 3.22131C1463.82 3.8183 1464.31 4.30225 1464.93 4.30225Z" fill="white"/>
<path opacity="0.2" d="M1464.93 136.178C1465.54 136.178 1466.04 135.694 1466.04 135.097C1466.04 134.5 1465.54 134.016 1464.93 134.016C1464.32 134.016 1463.82 134.5 1463.82 135.097C1463.82 135.694 1464.32 136.178 1464.93 136.178Z" fill="white"/>
<path opacity="0.2" d="M1464.93 268.054C1465.54 268.054 1466.04 267.57 1466.04 266.973C1466.04 266.376 1465.54 265.892 1464.93 265.892C1464.32 265.892 1463.82 266.376 1463.82 266.973C1463.82 267.57 1464.32 268.054 1464.93 268.054Z" fill="white"/>
<path opacity="0.2" d="M1464.93 399.93C1465.54 399.93 1466.04 399.446 1466.04 398.849C1466.04 398.252 1465.54 397.768 1464.93 397.768C1464.32 397.768 1463.82 398.252 1463.82 398.849C1463.82 399.446 1464.32 399.93 1464.93 399.93Z" fill="white"/>
<path opacity="0.2" d="M1464.93 531.806C1465.54 531.806 1466.04 531.322 1466.04 530.725C1466.04 530.128 1465.54 529.644 1464.93 529.644C1464.32 529.644 1463.82 530.128 1463.82 530.725C1463.82 531.322 1464.32 531.806 1464.93 531.806Z" fill="white"/>
<path opacity="0.2" d="M1464.93 663.682C1465.54 663.682 1466.04 663.198 1466.04 662.601C1466.04 662.004 1465.54 661.52 1464.93 661.52C1464.32 661.52 1463.82 662.004 1463.82 662.601C1463.82 663.198 1464.32 663.682 1464.93 663.682Z" fill="white"/>
<path opacity="0.2" d="M1464.93 795.558C1465.54 795.558 1466.04 795.074 1466.04 794.477C1466.04 793.88 1465.54 793.396 1464.93 793.396C1464.32 793.396 1463.82 793.88 1463.82 794.477C1463.82 795.074 1464.32 795.558 1464.93 795.558Z" fill="white"/>
<path opacity="0.2" d="M1464.93 927.434C1465.54 927.434 1466.04 926.95 1466.04 926.353C1466.04 925.756 1465.54 925.272 1464.93 925.272C1464.32 925.272 1463.82 925.756 1463.82 926.353C1463.82 926.95 1464.32 927.434 1464.93 927.434Z" fill="white"/>
<path opacity="0.2" d="M1464.93 1059.31C1465.54 1059.31 1466.04 1058.83 1466.04 1058.23C1466.04 1057.63 1465.54 1057.15 1464.93 1057.15C1464.32 1057.15 1463.82 1057.63 1463.82 1058.23C1463.82 1058.83 1464.32 1059.31 1464.93 1059.31Z" fill="white"/>
</g>
<g opacity="0.1">
<path opacity="0.1" d="M1597.89 4.30249C1598.5 4.30249 1599 3.81854 1599 3.22156C1599 2.62458 1598.5 2.14062 1597.89 2.14062C1597.28 2.14062 1596.78 2.62458 1596.78 3.22156C1596.78 3.81854 1597.28 4.30249 1597.89 4.30249Z" fill="white"/>
<path opacity="0.1" d="M1597.89 136.178C1598.5 136.178 1599 135.695 1599 135.098C1599 134.501 1598.5 134.017 1597.89 134.017C1597.28 134.017 1596.78 134.501 1596.78 135.098C1596.78 135.695 1597.28 136.178 1597.89 136.178Z" fill="white"/>
<path opacity="0.1" d="M1597.89 268.054C1598.5 268.054 1599 267.57 1599 266.974C1599 266.377 1598.5 265.893 1597.89 265.893C1597.28 265.893 1596.78 266.377 1596.78 266.974C1596.78 267.57 1597.28 268.054 1597.89 268.054Z" fill="white"/>
<path opacity="0.1" d="M1597.89 399.93C1598.5 399.93 1599 399.446 1599 398.849C1599 398.252 1598.5 397.768 1597.89 397.768C1597.28 397.768 1596.78 398.252 1596.78 398.849C1596.78 399.446 1597.28 399.93 1597.89 399.93Z" fill="white"/>
<path opacity="0.1" d="M1597.89 531.806C1598.5 531.806 1599 531.322 1599 530.725C1599 530.128 1598.5 529.645 1597.89 529.645C1597.28 529.645 1596.78 530.128 1596.78 530.725C1596.78 531.322 1597.28 531.806 1597.89 531.806Z" fill="white"/>
<path opacity="0.1" d="M1597.89 663.682C1598.5 663.682 1599 663.198 1599 662.601C1599 662.004 1598.5 661.52 1597.89 661.52C1597.28 661.52 1596.78 662.004 1596.78 662.601C1596.78 663.198 1597.28 663.682 1597.89 663.682Z" fill="white"/>
<path opacity="0.1" d="M1597.89 795.558C1598.5 795.558 1599 795.074 1599 794.477C1599 793.88 1598.5 793.396 1597.89 793.396C1597.28 793.396 1596.78 793.88 1596.78 794.477C1596.78 795.074 1597.28 795.558 1597.89 795.558Z" fill="white"/>
<path opacity="0.1" d="M1597.89 927.434C1598.5 927.434 1599 926.95 1599 926.353C1599 925.756 1598.5 925.272 1597.89 925.272C1597.28 925.272 1596.78 925.756 1596.78 926.353C1596.78 926.95 1597.28 927.434 1597.89 927.434Z" fill="white"/>
<path opacity="0.1" d="M1597.89 1059.31C1598.5 1059.31 1599 1058.83 1599 1058.23C1599 1057.63 1598.5 1057.15 1597.89 1057.15C1597.28 1057.15 1596.78 1057.63 1596.78 1058.23C1596.78 1058.83 1597.28 1059.31 1597.89 1059.31Z" fill="white"/>
</g>
</svg>
