<svg width="1599" height="1060" viewBox="0 0 1599 1060" fill="none" xmlns="http://www.w3.org/2000/svg">
<g opacity="0.4">
<path opacity="0.4" d="M1.10803 3.06412C1.71998 3.06412 2.21607 2.58016 2.21607 1.98317C2.21607 1.38618 1.71998 0.902222 1.10803 0.902222C0.496083 0.902222 0 1.38618 0 1.98317C0 2.58016 0.496083 3.06412 1.10803 3.06412Z" fill="white"/>
<path opacity="0.4" d="M1.10803 134.94C1.71998 134.94 2.21607 134.456 2.21607 133.859C2.21607 133.262 1.71998 132.778 1.10803 132.778C0.496083 132.778 0 133.262 0 133.859C0 134.456 0.496083 134.94 1.10803 134.94Z" fill="white"/>
<path opacity="0.4" d="M1.10803 266.816C1.71998 266.816 2.21607 266.332 2.21607 265.735C2.21607 265.138 1.71998 264.654 1.10803 264.654C0.496083 264.654 0 265.138 0 265.735C0 266.332 0.496083 266.816 1.10803 266.816Z" fill="white"/>
<path opacity="0.4" d="M1.10803 398.692C1.71998 398.692 2.21607 398.208 2.21607 397.611C2.21607 397.014 1.71998 396.53 1.10803 396.53C0.496083 396.53 0 397.014 0 397.611C0 398.208 0.496083 398.692 1.10803 398.692Z" fill="white"/>
<path opacity="0.4" d="M1.10803 530.568C1.71998 530.568 2.21607 530.084 2.21607 529.487C2.21607 528.89 1.71998 528.406 1.10803 528.406C0.496083 528.406 0 528.89 0 529.487C0 530.084 0.496083 530.568 1.10803 530.568Z" fill="white"/>
<path opacity="0.4" d="M1.10803 662.444C1.71998 662.444 2.21607 661.96 2.21607 661.363C2.21607 660.766 1.71998 660.282 1.10803 660.282C0.496083 660.282 0 660.766 0 661.363C0 661.96 0.496083 662.444 1.10803 662.444Z" fill="white"/>
<path opacity="0.4" d="M1.10803 794.32C1.71998 794.32 2.21607 793.836 2.21607 793.239C2.21607 792.642 1.71998 792.158 1.10803 792.158C0.496083 792.158 0 792.642 0 793.239C0 793.836 0.496083 794.32 1.10803 794.32Z" fill="white"/>
<path opacity="0.4" d="M1.10803 926.196C1.71998 926.196 2.21607 925.712 2.21607 925.115C2.21607 924.518 1.71998 924.034 1.10803 924.034C0.496083 924.034 0 924.518 0 925.115C0 925.712 0.496083 926.196 1.10803 926.196Z" fill="white"/>
<path opacity="0.4" d="M1.10803 1028.53C1.71998 1028.53 2.21607 1027.88 2.21607 1027.08C2.21607 1026.29 1.71998 1025.64 1.10803 1025.64C0.496083 1025.64 0 1026.29 0 1027.08C0 1027.88 0.496083 1028.53 1.10803 1028.53Z" fill="white"/>
</g>
<g opacity="0.4">
<path opacity="0.4" d="M134.069 3.06412C134.681 3.06412 135.177 2.58016 135.177 1.98317C135.177 1.38618 134.681 0.902222 134.069 0.902222C133.457 0.902222 132.961 1.38618 132.961 1.98317C132.961 2.58016 133.457 3.06412 134.069 3.06412Z" fill="white"/>
<path opacity="0.4" d="M134.07 134.94C134.682 134.94 135.178 134.456 135.178 133.859C135.178 133.262 134.682 132.778 134.07 132.778C133.458 132.778 132.962 133.262 132.962 133.859C132.962 134.456 133.458 134.94 134.07 134.94Z" fill="white"/>
<path opacity="0.4" d="M134.07 266.816C134.682 266.816 135.178 266.332 135.178 265.735C135.178 265.138 134.682 264.654 134.07 264.654C133.458 264.654 132.962 265.138 132.962 265.735C132.962 266.332 133.458 266.816 134.07 266.816Z" fill="white"/>
<path opacity="0.4" d="M134.07 398.692C134.682 398.692 135.178 398.208 135.178 397.611C135.178 397.014 134.682 396.53 134.07 396.53C133.458 396.53 132.962 397.014 132.962 397.611C132.962 398.208 133.458 398.692 134.07 398.692Z" fill="white"/>
<path opacity="0.4" d="M134.07 530.568C134.682 530.568 135.178 530.084 135.178 529.487C135.178 528.89 134.682 528.406 134.07 528.406C133.458 528.406 132.962 528.89 132.962 529.487C132.962 530.084 133.458 530.568 134.07 530.568Z" fill="white"/>
<path opacity="0.4" d="M134.07 662.444C134.682 662.444 135.178 661.96 135.178 661.363C135.178 660.766 134.682 660.282 134.07 660.282C133.458 660.282 132.962 660.766 132.962 661.363C132.962 661.96 133.458 662.444 134.07 662.444Z" fill="white"/>
<path opacity="0.4" d="M134.07 794.32C134.682 794.32 135.178 793.836 135.178 793.239C135.178 792.642 134.682 792.158 134.07 792.158C133.458 792.158 132.962 792.642 132.962 793.239C132.962 793.836 133.458 794.32 134.07 794.32Z" fill="white"/>
<path opacity="0.4" d="M134.07 926.196C134.682 926.196 135.178 925.712 135.178 925.115C135.178 924.518 134.682 924.034 134.07 924.034C133.458 924.034 132.962 924.518 132.962 925.115C132.962 925.712 133.458 926.196 134.07 926.196Z" fill="white"/>
<path opacity="0.4" d="M134.07 1058.07C134.682 1058.07 135.178 1057.59 135.178 1056.99C135.178 1056.39 134.682 1055.91 134.07 1055.91C133.458 1055.91 132.962 1056.39 132.962 1056.99C132.962 1057.59 133.458 1058.07 134.07 1058.07Z" fill="white"/>
</g>
<g opacity="0.4">
<path opacity="0.4" d="M267.036 3.06412C267.648 3.06412 268.144 2.58016 268.144 1.98317C268.144 1.38618 267.648 0.902222 267.036 0.902222C266.424 0.902222 265.928 1.38618 265.928 1.98317C265.928 2.58016 266.424 3.06412 267.036 3.06412Z" fill="white"/>
<path opacity="0.4" d="M267.036 134.94C267.648 134.94 268.144 134.456 268.144 133.859C268.144 133.262 267.648 132.778 267.036 132.778C266.424 132.778 265.928 133.262 265.928 133.859C265.928 134.456 266.424 134.94 267.036 134.94Z" fill="white"/>
<path opacity="0.4" d="M267.036 266.816C267.648 266.816 268.144 266.332 268.144 265.735C268.144 265.138 267.648 264.654 267.036 264.654C266.424 264.654 265.928 265.138 265.928 265.735C265.928 266.332 266.424 266.816 267.036 266.816Z" fill="white"/>
<path opacity="0.4" d="M267.036 398.692C267.648 398.692 268.144 398.208 268.144 397.611C268.144 397.014 267.648 396.53 267.036 396.53C266.424 396.53 265.928 397.014 265.928 397.611C265.928 398.208 266.424 398.692 267.036 398.692Z" fill="white"/>
<path opacity="0.4" d="M267.036 530.568C267.648 530.568 268.144 530.084 268.144 529.487C268.144 528.89 267.648 528.406 267.036 528.406C266.424 528.406 265.928 528.89 265.928 529.487C265.928 530.084 266.424 530.568 267.036 530.568Z" fill="white"/>
<path opacity="0.4" d="M267.036 662.444C267.648 662.444 268.144 661.96 268.144 661.363C268.144 660.766 267.648 660.282 267.036 660.282C266.424 660.282 265.928 660.766 265.928 661.363C265.928 661.96 266.424 662.444 267.036 662.444Z" fill="white"/>
<path opacity="0.4" d="M267.036 794.32C267.648 794.32 268.144 793.836 268.144 793.239C268.144 792.642 267.648 792.158 267.036 792.158C266.424 792.158 265.928 792.642 265.928 793.239C265.928 793.836 266.424 794.32 267.036 794.32Z" fill="white"/>
<path opacity="0.4" d="M267.036 926.196C267.648 926.196 268.144 925.712 268.144 925.115C268.144 924.518 267.648 924.034 267.036 924.034C266.424 924.034 265.928 924.518 265.928 925.115C265.928 925.712 266.424 926.196 267.036 926.196Z" fill="white"/>
<path opacity="0.4" d="M267.036 1058.07C267.648 1058.07 268.144 1057.59 268.144 1056.99C268.144 1056.39 267.648 1055.91 267.036 1055.91C266.424 1055.91 265.928 1056.39 265.928 1056.99C265.928 1057.59 266.424 1058.07 267.036 1058.07Z" fill="white"/>
</g>
<g opacity="0.4">
<path opacity="0.4" d="M399.999 3.06412C400.611 3.06412 401.107 2.58016 401.107 1.98317C401.107 1.38618 400.611 0.902222 399.999 0.902222C399.387 0.902222 398.891 1.38618 398.891 1.98317C398.891 2.58016 399.387 3.06412 399.999 3.06412Z" fill="white"/>
<path opacity="0.4" d="M400 134.94C400.612 134.94 401.108 134.456 401.108 133.859C401.108 133.262 400.612 132.778 400 132.778C399.388 132.778 398.892 133.262 398.892 133.859C398.892 134.456 399.388 134.94 400 134.94Z" fill="white"/>
<path opacity="0.4" d="M400 266.816C400.612 266.816 401.108 266.332 401.108 265.735C401.108 265.138 400.612 264.654 400 264.654C399.388 264.654 398.892 265.138 398.892 265.735C398.892 266.332 399.388 266.816 400 266.816Z" fill="white"/>
<path opacity="0.4" d="M400 398.692C400.612 398.692 401.108 398.208 401.108 397.611C401.108 397.014 400.612 396.53 400 396.53C399.388 396.53 398.892 397.014 398.892 397.611C398.892 398.208 399.388 398.692 400 398.692Z" fill="white"/>
<path opacity="0.4" d="M400 530.568C400.612 530.568 401.108 530.084 401.108 529.487C401.108 528.89 400.612 528.406 400 528.406C399.388 528.406 398.892 528.89 398.892 529.487C398.892 530.084 399.388 530.568 400 530.568Z" fill="white"/>
<path opacity="0.4" d="M400 662.444C400.612 662.444 401.108 661.96 401.108 661.363C401.108 660.766 400.612 660.282 400 660.282C399.388 660.282 398.892 660.766 398.892 661.363C398.892 661.96 399.388 662.444 400 662.444Z" fill="white"/>
<path opacity="0.4" d="M400 794.32C400.612 794.32 401.108 793.836 401.108 793.239C401.108 792.642 400.612 792.158 400 792.158C399.388 792.158 398.892 792.642 398.892 793.239C398.892 793.836 399.388 794.32 400 794.32Z" fill="white"/>
<path opacity="0.4" d="M400 926.196C400.612 926.196 401.108 925.712 401.108 925.115C401.108 924.518 400.612 924.034 400 924.034C399.388 924.034 398.892 924.518 398.892 925.115C398.892 925.712 399.388 926.196 400 926.196Z" fill="white"/>
<path opacity="0.4" d="M400 1058.07C400.612 1058.07 401.108 1057.59 401.108 1056.99C401.108 1056.39 400.612 1055.91 400 1055.91C399.388 1055.91 398.892 1056.39 398.892 1056.99C398.892 1057.59 399.388 1058.07 400 1058.07Z" fill="white"/>
</g>
<g opacity="0.4">
<path opacity="0.4" d="M532.966 3.06412C533.578 3.06412 534.074 2.58016 534.074 1.98317C534.074 1.38618 533.578 0.902222 532.966 0.902222C532.354 0.902222 531.858 1.38618 531.858 1.98317C531.858 2.58016 532.354 3.06412 532.966 3.06412Z" fill="white"/>
<path opacity="0.4" d="M532.965 134.94C533.577 134.94 534.073 134.456 534.073 133.859C534.073 133.262 533.577 132.778 532.965 132.778C532.354 132.778 531.857 133.262 531.857 133.859C531.857 134.456 532.354 134.94 532.965 134.94Z" fill="white"/>
<path opacity="0.4" d="M532.965 266.816C533.577 266.816 534.073 266.332 534.073 265.735C534.073 265.138 533.577 264.654 532.965 264.654C532.354 264.654 531.857 265.138 531.857 265.735C531.857 266.332 532.354 266.816 532.965 266.816Z" fill="white"/>
<path opacity="0.4" d="M532.965 398.692C533.577 398.692 534.073 398.208 534.073 397.611C534.073 397.014 533.577 396.53 532.965 396.53C532.354 396.53 531.857 397.014 531.857 397.611C531.857 398.208 532.354 398.692 532.965 398.692Z" fill="white"/>
<path opacity="0.4" d="M532.965 530.568C533.577 530.568 534.073 530.084 534.073 529.487C534.073 528.89 533.577 528.406 532.965 528.406C532.354 528.406 531.857 528.89 531.857 529.487C531.857 530.084 532.354 530.568 532.965 530.568Z" fill="white"/>
<path opacity="0.4" d="M532.965 662.444C533.577 662.444 534.073 661.96 534.073 661.363C534.073 660.766 533.577 660.282 532.965 660.282C532.354 660.282 531.857 660.766 531.857 661.363C531.857 661.96 532.354 662.444 532.965 662.444Z" fill="white"/>
<path opacity="0.4" d="M532.965 794.32C533.577 794.32 534.073 793.836 534.073 793.239C534.073 792.642 533.577 792.158 532.965 792.158C532.354 792.158 531.857 792.642 531.857 793.239C531.857 793.836 532.354 794.32 532.965 794.32Z" fill="white"/>
<path opacity="0.4" d="M532.965 926.196C533.577 926.196 534.073 925.712 534.073 925.115C534.073 924.518 533.577 924.034 532.965 924.034C532.354 924.034 531.857 924.518 531.857 925.115C531.857 925.712 532.354 926.196 532.965 926.196Z" fill="white"/>
<path opacity="0.4" d="M532.965 1058.07C533.577 1058.07 534.073 1057.59 534.073 1056.99C534.073 1056.39 533.577 1055.91 532.965 1055.91C532.354 1055.91 531.857 1056.39 531.857 1056.99C531.857 1057.59 532.354 1058.07 532.965 1058.07Z" fill="white"/>
</g>
<g opacity="0.2">
<path opacity="0.2" d="M665.926 3.06412C666.538 3.06412 667.034 2.58016 667.034 1.98317C667.034 1.38618 666.538 0.902222 665.926 0.902222C665.314 0.902222 664.818 1.38618 664.818 1.98317C664.818 2.58016 665.314 3.06412 665.926 3.06412Z" fill="white"/>
<path opacity="0.2" d="M665.927 134.94C666.539 134.94 667.035 134.456 667.035 133.859C667.035 133.262 666.539 132.778 665.927 132.778C665.315 132.778 664.819 133.262 664.819 133.859C664.819 134.456 665.315 134.94 665.927 134.94Z" fill="white"/>
<path opacity="0.2" d="M665.927 266.816C666.539 266.816 667.035 266.332 667.035 265.735C667.035 265.138 666.539 264.654 665.927 264.654C665.315 264.654 664.819 265.138 664.819 265.735C664.819 266.332 665.315 266.816 665.927 266.816Z" fill="white"/>
<path opacity="0.2" d="M665.927 398.692C666.539 398.692 667.035 398.208 667.035 397.611C667.035 397.014 666.539 396.53 665.927 396.53C665.315 396.53 664.819 397.014 664.819 397.611C664.819 398.208 665.315 398.692 665.927 398.692Z" fill="white"/>
<path opacity="0.2" d="M665.927 530.568C666.539 530.568 667.035 530.084 667.035 529.487C667.035 528.89 666.539 528.406 665.927 528.406C665.315 528.406 664.819 528.89 664.819 529.487C664.819 530.084 665.315 530.568 665.927 530.568Z" fill="white"/>
<path opacity="0.2" d="M665.927 662.444C666.539 662.444 667.035 661.96 667.035 661.363C667.035 660.766 666.539 660.282 665.927 660.282C665.315 660.282 664.819 660.766 664.819 661.363C664.819 661.96 665.315 662.444 665.927 662.444Z" fill="white"/>
<path opacity="0.2" d="M665.927 794.32C666.539 794.32 667.035 793.836 667.035 793.239C667.035 792.642 666.539 792.158 665.927 792.158C665.315 792.158 664.819 792.642 664.819 793.239C664.819 793.836 665.315 794.32 665.927 794.32Z" fill="white"/>
<path opacity="0.2" d="M665.927 926.196C666.539 926.196 667.035 925.712 667.035 925.115C667.035 924.518 666.539 924.034 665.927 924.034C665.315 924.034 664.819 924.518 664.819 925.115C664.819 925.712 665.315 926.196 665.927 926.196Z" fill="white"/>
<path opacity="0.2" d="M665.927 1058.07C666.539 1058.07 667.035 1057.59 667.035 1056.99C667.035 1056.39 666.539 1055.91 665.927 1055.91C665.315 1055.91 664.819 1056.39 664.819 1056.99C664.819 1057.59 665.315 1058.07 665.927 1058.07Z" fill="white"/>
</g>
<g opacity="0.1">
<path opacity="0.1" d="M798.891 3.06437C799.503 3.06437 799.999 2.58041 799.999 1.98342C799.999 1.38642 799.503 0.902466 798.891 0.902466C798.279 0.902466 797.783 1.38642 797.783 1.98342C797.783 2.58041 798.279 3.06437 798.891 3.06437Z" fill="white"/>
<path opacity="0.1" d="M798.891 134.94C799.503 134.94 799.999 134.456 799.999 133.859C799.999 133.262 799.503 132.778 798.891 132.778C798.279 132.778 797.783 133.262 797.783 133.859C797.783 134.456 798.279 134.94 798.891 134.94Z" fill="white"/>
<path opacity="0.1" d="M798.891 266.816C799.503 266.816 799.999 266.332 799.999 265.735C799.999 265.138 799.503 264.654 798.891 264.654C798.279 264.654 797.783 265.138 797.783 265.735C797.783 266.332 798.279 266.816 798.891 266.816Z" fill="white"/>
<path opacity="0.1" d="M798.891 398.692C799.503 398.692 799.999 398.208 799.999 397.611C799.999 397.014 799.503 396.53 798.891 396.53C798.279 396.53 797.783 397.014 797.783 397.611C797.783 398.208 798.279 398.692 798.891 398.692Z" fill="white"/>
<path opacity="0.1" d="M798.891 530.568C799.503 530.568 799.999 530.084 799.999 529.487C799.999 528.89 799.503 528.406 798.891 528.406C798.279 528.406 797.783 528.89 797.783 529.487C797.783 530.084 798.279 530.568 798.891 530.568Z" fill="white"/>
<path opacity="0.1" d="M798.891 662.444C799.503 662.444 799.999 661.96 799.999 661.363C799.999 660.766 799.503 660.282 798.891 660.282C798.279 660.282 797.783 660.766 797.783 661.363C797.783 661.96 798.279 662.444 798.891 662.444Z" fill="white"/>
<path opacity="0.1" d="M798.891 794.32C799.503 794.32 799.999 793.836 799.999 793.239C799.999 792.642 799.503 792.158 798.891 792.158C798.279 792.158 797.783 792.642 797.783 793.239C797.783 793.836 798.279 794.32 798.891 794.32Z" fill="white"/>
<path opacity="0.1" d="M798.891 926.196C799.503 926.196 799.999 925.712 799.999 925.115C799.999 924.518 799.503 924.034 798.891 924.034C798.279 924.034 797.783 924.518 797.783 925.115C797.783 925.712 798.279 926.196 798.891 926.196Z" fill="white"/>
<path opacity="0.1" d="M798.891 1058.07C799.503 1058.07 799.999 1057.59 799.999 1056.99C799.999 1056.39 799.503 1055.91 798.891 1055.91C798.279 1055.91 797.783 1056.39 797.783 1056.99C797.783 1057.59 798.279 1058.07 798.891 1058.07Z" fill="white"/>
</g>
<g opacity="0.4">
<path opacity="0.4" d="M800.108 4.47483C800.72 4.47483 801.216 3.99087 801.216 3.39388C801.216 2.79689 800.72 2.31293 800.108 2.31293C799.496 2.31293 799 2.79689 799 3.39388C799 3.99087 799.496 4.47483 800.108 4.47483Z" fill="white"/>
<path opacity="0.4" d="M800.108 136.351C800.72 136.351 801.216 135.867 801.216 135.27C801.216 134.673 800.72 134.189 800.108 134.189C799.496 134.189 799 134.673 799 135.27C799 135.867 799.496 136.351 800.108 136.351Z" fill="white"/>
<path opacity="0.4" d="M800.108 268.227C800.72 268.227 801.216 267.743 801.216 267.146C801.216 266.549 800.72 266.065 800.108 266.065C799.496 266.065 799 266.549 799 267.146C799 267.743 799.496 268.227 800.108 268.227Z" fill="white"/>
<path opacity="0.4" d="M800.108 400.103C800.72 400.103 801.216 399.619 801.216 399.022C801.216 398.425 800.72 397.941 800.108 397.941C799.496 397.941 799 398.425 799 399.022C799 399.619 799.496 400.103 800.108 400.103Z" fill="white"/>
<path opacity="0.4" d="M800.108 531.979C800.72 531.979 801.216 531.495 801.216 530.898C801.216 530.301 800.72 529.817 800.108 529.817C799.496 529.817 799 530.301 799 530.898C799 531.495 799.496 531.979 800.108 531.979Z" fill="white"/>
<path opacity="0.4" d="M800.108 663.855C800.72 663.855 801.216 663.371 801.216 662.774C801.216 662.177 800.72 661.693 800.108 661.693C799.496 661.693 799 662.177 799 662.774C799 663.371 799.496 663.855 800.108 663.855Z" fill="white"/>
<path opacity="0.4" d="M800.108 795.731C800.72 795.731 801.216 795.247 801.216 794.65C801.216 794.053 800.72 793.569 800.108 793.569C799.496 793.569 799 794.053 799 794.65C799 795.247 799.496 795.731 800.108 795.731Z" fill="white"/>
<path opacity="0.4" d="M800.108 927.607C800.72 927.607 801.216 927.123 801.216 926.526C801.216 925.929 800.72 925.445 800.108 925.445C799.496 925.445 799 925.929 799 926.526C799 927.123 799.496 927.607 800.108 927.607Z" fill="white"/>
<path opacity="0.4" d="M800.108 1029.94C800.72 1029.94 801.216 1029.29 801.216 1028.5C801.216 1027.7 800.72 1027.05 800.108 1027.05C799.496 1027.05 799 1027.7 799 1028.5C799 1029.29 799.496 1029.94 800.108 1029.94Z" fill="white"/>
</g>
<g opacity="0.4">
<path opacity="0.4" d="M933.069 4.47483C933.681 4.47483 934.177 3.99087 934.177 3.39388C934.177 2.79689 933.681 2.31293 933.069 2.31293C932.457 2.31293 931.961 2.79689 931.961 3.39388C931.961 3.99087 932.457 4.47483 933.069 4.47483Z" fill="white"/>
<path opacity="0.4" d="M933.07 136.351C933.682 136.351 934.178 135.867 934.178 135.27C934.178 134.673 933.682 134.189 933.07 134.189C932.458 134.189 931.962 134.673 931.962 135.27C931.962 135.867 932.458 136.351 933.07 136.351Z" fill="white"/>
<path opacity="0.4" d="M933.07 268.227C933.682 268.227 934.178 267.743 934.178 267.146C934.178 266.549 933.682 266.065 933.07 266.065C932.458 266.065 931.962 266.549 931.962 267.146C931.962 267.743 932.458 268.227 933.07 268.227Z" fill="white"/>
<path opacity="0.4" d="M933.07 400.103C933.682 400.103 934.178 399.619 934.178 399.022C934.178 398.425 933.682 397.941 933.07 397.941C932.458 397.941 931.962 398.425 931.962 399.022C931.962 399.619 932.458 400.103 933.07 400.103Z" fill="white"/>
<path opacity="0.4" d="M933.07 531.979C933.682 531.979 934.178 531.495 934.178 530.898C934.178 530.301 933.682 529.817 933.07 529.817C932.458 529.817 931.962 530.301 931.962 530.898C931.962 531.495 932.458 531.979 933.07 531.979Z" fill="white"/>
<path opacity="0.4" d="M933.07 663.855C933.682 663.855 934.178 663.371 934.178 662.774C934.178 662.177 933.682 661.693 933.07 661.693C932.458 661.693 931.962 662.177 931.962 662.774C931.962 663.371 932.458 663.855 933.07 663.855Z" fill="white"/>
<path opacity="0.4" d="M933.07 795.731C933.682 795.731 934.178 795.247 934.178 794.65C934.178 794.053 933.682 793.569 933.07 793.569C932.458 793.569 931.962 794.053 931.962 794.65C931.962 795.247 932.458 795.731 933.07 795.731Z" fill="white"/>
<path opacity="0.4" d="M933.07 927.607C933.682 927.607 934.178 927.123 934.178 926.526C934.178 925.929 933.682 925.445 933.07 925.445C932.458 925.445 931.962 925.929 931.962 926.526C931.962 927.123 932.458 927.607 933.07 927.607Z" fill="white"/>
<path opacity="0.4" d="M933.07 1059.48C933.682 1059.48 934.178 1059 934.178 1058.4C934.178 1057.8 933.682 1057.32 933.07 1057.32C932.458 1057.32 931.962 1057.8 931.962 1058.4C931.962 1059 932.458 1059.48 933.07 1059.48Z" fill="white"/>
</g>
<g opacity="0.4">
<path opacity="0.4" d="M1066.04 4.47483C1066.65 4.47483 1067.14 3.99087 1067.14 3.39388C1067.14 2.79689 1066.65 2.31293 1066.04 2.31293C1065.42 2.31293 1064.93 2.79689 1064.93 3.39388C1064.93 3.99087 1065.42 4.47483 1066.04 4.47483Z" fill="white"/>
<path opacity="0.4" d="M1066.04 136.351C1066.65 136.351 1067.14 135.867 1067.14 135.27C1067.14 134.673 1066.65 134.189 1066.04 134.189C1065.42 134.189 1064.93 134.673 1064.93 135.27C1064.93 135.867 1065.42 136.351 1066.04 136.351Z" fill="white"/>
<path opacity="0.4" d="M1066.04 268.227C1066.65 268.227 1067.14 267.743 1067.14 267.146C1067.14 266.549 1066.65 266.065 1066.04 266.065C1065.42 266.065 1064.93 266.549 1064.93 267.146C1064.93 267.743 1065.42 268.227 1066.04 268.227Z" fill="white"/>
<path opacity="0.4" d="M1066.04 400.103C1066.65 400.103 1067.14 399.619 1067.14 399.022C1067.14 398.425 1066.65 397.941 1066.04 397.941C1065.42 397.941 1064.93 398.425 1064.93 399.022C1064.93 399.619 1065.42 400.103 1066.04 400.103Z" fill="white"/>
<path opacity="0.4" d="M1066.04 531.979C1066.65 531.979 1067.14 531.495 1067.14 530.898C1067.14 530.301 1066.65 529.817 1066.04 529.817C1065.42 529.817 1064.93 530.301 1064.93 530.898C1064.93 531.495 1065.42 531.979 1066.04 531.979Z" fill="white"/>
<path opacity="0.4" d="M1066.04 663.855C1066.65 663.855 1067.14 663.371 1067.14 662.774C1067.14 662.177 1066.65 661.693 1066.04 661.693C1065.42 661.693 1064.93 662.177 1064.93 662.774C1064.93 663.371 1065.42 663.855 1066.04 663.855Z" fill="white"/>
<path opacity="0.4" d="M1066.04 795.731C1066.65 795.731 1067.14 795.247 1067.14 794.65C1067.14 794.053 1066.65 793.569 1066.04 793.569C1065.42 793.569 1064.93 794.053 1064.93 794.65C1064.93 795.247 1065.42 795.731 1066.04 795.731Z" fill="white"/>
<path opacity="0.4" d="M1066.04 927.607C1066.65 927.607 1067.14 927.123 1067.14 926.526C1067.14 925.929 1066.65 925.445 1066.04 925.445C1065.42 925.445 1064.93 925.929 1064.93 926.526C1064.93 927.123 1065.42 927.607 1066.04 927.607Z" fill="white"/>
<path opacity="0.4" d="M1066.04 1059.48C1066.65 1059.48 1067.14 1059 1067.14 1058.4C1067.14 1057.8 1066.65 1057.32 1066.04 1057.32C1065.42 1057.32 1064.93 1057.8 1064.93 1058.4C1064.93 1059 1065.42 1059.48 1066.04 1059.48Z" fill="white"/>
</g>
<g opacity="0.4">
<path opacity="0.4" d="M1199 4.47483C1199.61 4.47483 1200.11 3.99087 1200.11 3.39388C1200.11 2.79689 1199.61 2.31293 1199 2.31293C1198.39 2.31293 1197.89 2.79689 1197.89 3.39388C1197.89 3.99087 1198.39 4.47483 1199 4.47483Z" fill="white"/>
<path opacity="0.4" d="M1199 136.351C1199.61 136.351 1200.11 135.867 1200.11 135.27C1200.11 134.673 1199.61 134.189 1199 134.189C1198.39 134.189 1197.89 134.673 1197.89 135.27C1197.89 135.867 1198.39 136.351 1199 136.351Z" fill="white"/>
<path opacity="0.4" d="M1199 268.227C1199.61 268.227 1200.11 267.743 1200.11 267.146C1200.11 266.549 1199.61 266.065 1199 266.065C1198.39 266.065 1197.89 266.549 1197.89 267.146C1197.89 267.743 1198.39 268.227 1199 268.227Z" fill="white"/>
<path opacity="0.4" d="M1199 400.103C1199.61 400.103 1200.11 399.619 1200.11 399.022C1200.11 398.425 1199.61 397.941 1199 397.941C1198.39 397.941 1197.89 398.425 1197.89 399.022C1197.89 399.619 1198.39 400.103 1199 400.103Z" fill="white"/>
<path opacity="0.4" d="M1199 531.979C1199.61 531.979 1200.11 531.495 1200.11 530.898C1200.11 530.301 1199.61 529.817 1199 529.817C1198.39 529.817 1197.89 530.301 1197.89 530.898C1197.89 531.495 1198.39 531.979 1199 531.979Z" fill="white"/>
<path opacity="0.4" d="M1199 663.855C1199.61 663.855 1200.11 663.371 1200.11 662.774C1200.11 662.177 1199.61 661.693 1199 661.693C1198.39 661.693 1197.89 662.177 1197.89 662.774C1197.89 663.371 1198.39 663.855 1199 663.855Z" fill="white"/>
<path opacity="0.4" d="M1199 795.731C1199.61 795.731 1200.11 795.247 1200.11 794.65C1200.11 794.053 1199.61 793.569 1199 793.569C1198.39 793.569 1197.89 794.053 1197.89 794.65C1197.89 795.247 1198.39 795.731 1199 795.731Z" fill="white"/>
<path opacity="0.4" d="M1199 927.607C1199.61 927.607 1200.11 927.123 1200.11 926.526C1200.11 925.929 1199.61 925.445 1199 925.445C1198.39 925.445 1197.89 925.929 1197.89 926.526C1197.89 927.123 1198.39 927.607 1199 927.607Z" fill="white"/>
<path opacity="0.4" d="M1199 1059.48C1199.61 1059.48 1200.11 1059 1200.11 1058.4C1200.11 1057.8 1199.61 1057.32 1199 1057.32C1198.39 1057.32 1197.89 1057.8 1197.89 1058.4C1197.89 1059 1198.39 1059.48 1199 1059.48Z" fill="white"/>
</g>
<g opacity="0.4">
<path opacity="0.4" d="M1331.97 4.47483C1332.58 4.47483 1333.07 3.99087 1333.07 3.39388C1333.07 2.79689 1332.58 2.31293 1331.97 2.31293C1331.35 2.31293 1330.86 2.79689 1330.86 3.39388C1330.86 3.99087 1331.35 4.47483 1331.97 4.47483Z" fill="white"/>
<path opacity="0.4" d="M1331.97 136.351C1332.58 136.351 1333.07 135.867 1333.07 135.27C1333.07 134.673 1332.58 134.189 1331.97 134.189C1331.35 134.189 1330.86 134.673 1330.86 135.27C1330.86 135.867 1331.35 136.351 1331.97 136.351Z" fill="white"/>
<path opacity="0.4" d="M1331.97 268.227C1332.58 268.227 1333.07 267.743 1333.07 267.146C1333.07 266.549 1332.58 266.065 1331.97 266.065C1331.35 266.065 1330.86 266.549 1330.86 267.146C1330.86 267.743 1331.35 268.227 1331.97 268.227Z" fill="white"/>
<path opacity="0.4" d="M1331.97 400.103C1332.58 400.103 1333.07 399.619 1333.07 399.022C1333.07 398.425 1332.58 397.941 1331.97 397.941C1331.35 397.941 1330.86 398.425 1330.86 399.022C1330.86 399.619 1331.35 400.103 1331.97 400.103Z" fill="white"/>
<path opacity="0.4" d="M1331.97 531.979C1332.58 531.979 1333.07 531.495 1333.07 530.898C1333.07 530.301 1332.58 529.817 1331.97 529.817C1331.35 529.817 1330.86 530.301 1330.86 530.898C1330.86 531.495 1331.35 531.979 1331.97 531.979Z" fill="white"/>
<path opacity="0.4" d="M1331.97 663.855C1332.58 663.855 1333.07 663.371 1333.07 662.774C1333.07 662.177 1332.58 661.693 1331.97 661.693C1331.35 661.693 1330.86 662.177 1330.86 662.774C1330.86 663.371 1331.35 663.855 1331.97 663.855Z" fill="white"/>
<path opacity="0.4" d="M1331.97 795.731C1332.58 795.731 1333.07 795.247 1333.07 794.65C1333.07 794.053 1332.58 793.569 1331.97 793.569C1331.35 793.569 1330.86 794.053 1330.86 794.65C1330.86 795.247 1331.35 795.731 1331.97 795.731Z" fill="white"/>
<path opacity="0.4" d="M1331.97 927.607C1332.58 927.607 1333.07 927.123 1333.07 926.526C1333.07 925.929 1332.58 925.445 1331.97 925.445C1331.35 925.445 1330.86 925.929 1330.86 926.526C1330.86 927.123 1331.35 927.607 1331.97 927.607Z" fill="white"/>
<path opacity="0.4" d="M1331.97 1059.48C1332.58 1059.48 1333.07 1059 1333.07 1058.4C1333.07 1057.8 1332.58 1057.32 1331.97 1057.32C1331.35 1057.32 1330.86 1057.8 1330.86 1058.4C1330.86 1059 1331.35 1059.48 1331.97 1059.48Z" fill="white"/>
</g>
<g opacity="0.2">
<path opacity="0.2" d="M1464.93 4.47483C1465.54 4.47483 1466.03 3.99087 1466.03 3.39388C1466.03 2.79689 1465.54 2.31293 1464.93 2.31293C1464.31 2.31293 1463.82 2.79689 1463.82 3.39388C1463.82 3.99087 1464.31 4.47483 1464.93 4.47483Z" fill="white"/>
<path opacity="0.2" d="M1464.93 136.351C1465.54 136.351 1466.04 135.867 1466.04 135.27C1466.04 134.673 1465.54 134.189 1464.93 134.189C1464.32 134.189 1463.82 134.673 1463.82 135.27C1463.82 135.867 1464.32 136.351 1464.93 136.351Z" fill="white"/>
<path opacity="0.2" d="M1464.93 268.227C1465.54 268.227 1466.04 267.743 1466.04 267.146C1466.04 266.549 1465.54 266.065 1464.93 266.065C1464.32 266.065 1463.82 266.549 1463.82 267.146C1463.82 267.743 1464.32 268.227 1464.93 268.227Z" fill="white"/>
<path opacity="0.2" d="M1464.93 400.103C1465.54 400.103 1466.04 399.619 1466.04 399.022C1466.04 398.425 1465.54 397.941 1464.93 397.941C1464.32 397.941 1463.82 398.425 1463.82 399.022C1463.82 399.619 1464.32 400.103 1464.93 400.103Z" fill="white"/>
<path opacity="0.2" d="M1464.93 531.979C1465.54 531.979 1466.04 531.495 1466.04 530.898C1466.04 530.301 1465.54 529.817 1464.93 529.817C1464.32 529.817 1463.82 530.301 1463.82 530.898C1463.82 531.495 1464.32 531.979 1464.93 531.979Z" fill="white"/>
<path opacity="0.2" d="M1464.93 663.855C1465.54 663.855 1466.04 663.371 1466.04 662.774C1466.04 662.177 1465.54 661.693 1464.93 661.693C1464.32 661.693 1463.82 662.177 1463.82 662.774C1463.82 663.371 1464.32 663.855 1464.93 663.855Z" fill="white"/>
<path opacity="0.2" d="M1464.93 795.731C1465.54 795.731 1466.04 795.247 1466.04 794.65C1466.04 794.053 1465.54 793.569 1464.93 793.569C1464.32 793.569 1463.82 794.053 1463.82 794.65C1463.82 795.247 1464.32 795.731 1464.93 795.731Z" fill="white"/>
<path opacity="0.2" d="M1464.93 927.607C1465.54 927.607 1466.04 927.123 1466.04 926.526C1466.04 925.929 1465.54 925.445 1464.93 925.445C1464.32 925.445 1463.82 925.929 1463.82 926.526C1463.82 927.123 1464.32 927.607 1464.93 927.607Z" fill="white"/>
<path opacity="0.2" d="M1464.93 1059.48C1465.54 1059.48 1466.04 1059 1466.04 1058.4C1466.04 1057.8 1465.54 1057.32 1464.93 1057.32C1464.32 1057.32 1463.82 1057.8 1463.82 1058.4C1463.82 1059 1464.32 1059.48 1464.93 1059.48Z" fill="white"/>
</g>
<g opacity="0.1">
<path opacity="0.1" d="M1597.89 4.47495C1598.5 4.47495 1599 3.99099 1599 3.394C1599 2.79701 1598.5 2.31305 1597.89 2.31305C1597.28 2.31305 1596.78 2.79701 1596.78 3.394C1596.78 3.99099 1597.28 4.47495 1597.89 4.47495Z" fill="white"/>
<path opacity="0.1" d="M1597.89 136.351C1598.5 136.351 1599 135.867 1599 135.27C1599 134.673 1598.5 134.189 1597.89 134.189C1597.28 134.189 1596.78 134.673 1596.78 135.27C1596.78 135.867 1597.28 136.351 1597.89 136.351Z" fill="white"/>
<path opacity="0.1" d="M1597.89 268.227C1598.5 268.227 1599 267.743 1599 267.146C1599 266.549 1598.5 266.065 1597.89 266.065C1597.28 266.065 1596.78 266.549 1596.78 267.146C1596.78 267.743 1597.28 268.227 1597.89 268.227Z" fill="white"/>
<path opacity="0.1" d="M1597.89 400.103C1598.5 400.103 1599 399.619 1599 399.022C1599 398.425 1598.5 397.941 1597.89 397.941C1597.28 397.941 1596.78 398.425 1596.78 399.022C1596.78 399.619 1597.28 400.103 1597.89 400.103Z" fill="white"/>
<path opacity="0.1" d="M1597.89 531.979C1598.5 531.979 1599 531.495 1599 530.898C1599 530.301 1598.5 529.817 1597.89 529.817C1597.28 529.817 1596.78 530.301 1596.78 530.898C1596.78 531.495 1597.28 531.979 1597.89 531.979Z" fill="white"/>
<path opacity="0.1" d="M1597.89 663.855C1598.5 663.855 1599 663.371 1599 662.774C1599 662.177 1598.5 661.693 1597.89 661.693C1597.28 661.693 1596.78 662.177 1596.78 662.774C1596.78 663.371 1597.28 663.855 1597.89 663.855Z" fill="white"/>
<path opacity="0.1" d="M1597.89 795.731C1598.5 795.731 1599 795.247 1599 794.65C1599 794.053 1598.5 793.569 1597.89 793.569C1597.28 793.569 1596.78 794.053 1596.78 794.65C1596.78 795.247 1597.28 795.731 1597.89 795.731Z" fill="white"/>
<path opacity="0.1" d="M1597.89 927.607C1598.5 927.607 1599 927.123 1599 926.526C1599 925.929 1598.5 925.445 1597.89 925.445C1597.28 925.445 1596.78 925.929 1596.78 926.526C1596.78 927.123 1597.28 927.607 1597.89 927.607Z" fill="white"/>
<path opacity="0.1" d="M1597.89 1059.48C1598.5 1059.48 1599 1059 1599 1058.4C1599 1057.8 1598.5 1057.32 1597.89 1057.32C1597.28 1057.32 1596.78 1057.8 1596.78 1058.4C1596.78 1059 1597.28 1059.48 1597.89 1059.48Z" fill="white"/>
</g>
</svg>
