<svg width="1599" height="1060" viewBox="0 0 1599 1060" fill="none" xmlns="http://www.w3.org/2000/svg">
<g opacity="0.4">
<path opacity="0.4" d="M1.10803 2.5874C1.71998 2.5874 2.21607 2.10345 2.21607 1.50647C2.21607 0.909487 1.71998 0.425537 1.10803 0.425537C0.496083 0.425537 0 0.909487 0 1.50647C0 2.10345 0.496083 2.5874 1.10803 2.5874Z" fill="white"/>
<path opacity="0.4" d="M1.10803 134.463C1.71998 134.463 2.21607 133.979 2.21607 133.382C2.21607 132.785 1.71998 132.302 1.10803 132.302C0.496083 132.302 0 132.785 0 133.382C0 133.979 0.496083 134.463 1.10803 134.463Z" fill="white"/>
<path opacity="0.4" d="M1.10803 266.339C1.71998 266.339 2.21607 265.855 2.21607 265.258C2.21607 264.661 1.71998 264.177 1.10803 264.177C0.496083 264.177 0 264.661 0 265.258C0 265.855 0.496083 266.339 1.10803 266.339Z" fill="white"/>
<path opacity="0.4" d="M1.10803 398.215C1.71998 398.215 2.21607 397.731 2.21607 397.134C2.21607 396.537 1.71998 396.053 1.10803 396.053C0.496083 396.053 0 396.537 0 397.134C0 397.731 0.496083 398.215 1.10803 398.215Z" fill="white"/>
<path opacity="0.4" d="M1.10803 530.091C1.71998 530.091 2.21607 529.607 2.21607 529.01C2.21607 528.413 1.71998 527.929 1.10803 527.929C0.496083 527.929 0 528.413 0 529.01C0 529.607 0.496083 530.091 1.10803 530.091Z" fill="white"/>
<path opacity="0.4" d="M1.10803 661.967C1.71998 661.967 2.21607 661.483 2.21607 660.886C2.21607 660.289 1.71998 659.805 1.10803 659.805C0.496083 659.805 0 660.289 0 660.886C0 661.483 0.496083 661.967 1.10803 661.967Z" fill="white"/>
<path opacity="0.4" d="M1.10803 793.843C1.71998 793.843 2.21607 793.359 2.21607 792.762C2.21607 792.166 1.71998 791.682 1.10803 791.682C0.496083 791.682 0 792.166 0 792.762C0 793.359 0.496083 793.843 1.10803 793.843Z" fill="white"/>
<path opacity="0.4" d="M1.10803 925.719C1.71998 925.719 2.21607 925.235 2.21607 924.638C2.21607 924.041 1.71998 923.557 1.10803 923.557C0.496083 923.557 0 924.041 0 924.638C0 925.235 0.496083 925.719 1.10803 925.719Z" fill="white"/>
<path opacity="0.4" d="M1.10803 1028.05C1.71998 1028.05 2.21607 1027.4 2.21607 1026.61C2.21607 1025.81 1.71998 1025.17 1.10803 1025.17C0.496083 1025.17 0 1025.81 0 1026.61C0 1027.4 0.496083 1028.05 1.10803 1028.05Z" fill="white"/>
</g>
<g opacity="0.4">
<path opacity="0.4" d="M134.069 2.5874C134.681 2.5874 135.177 2.10345 135.177 1.50647C135.177 0.909487 134.681 0.425537 134.069 0.425537C133.457 0.425537 132.961 0.909487 132.961 1.50647C132.961 2.10345 133.457 2.5874 134.069 2.5874Z" fill="white"/>
<path opacity="0.4" d="M134.07 134.463C134.682 134.463 135.178 133.979 135.178 133.382C135.178 132.785 134.682 132.302 134.07 132.302C133.458 132.302 132.962 132.785 132.962 133.382C132.962 133.979 133.458 134.463 134.07 134.463Z" fill="white"/>
<path opacity="0.4" d="M134.07 266.339C134.682 266.339 135.178 265.855 135.178 265.258C135.178 264.661 134.682 264.177 134.07 264.177C133.458 264.177 132.962 264.661 132.962 265.258C132.962 265.855 133.458 266.339 134.07 266.339Z" fill="white"/>
<path opacity="0.4" d="M134.07 398.215C134.682 398.215 135.178 397.731 135.178 397.134C135.178 396.537 134.682 396.053 134.07 396.053C133.458 396.053 132.962 396.537 132.962 397.134C132.962 397.731 133.458 398.215 134.07 398.215Z" fill="white"/>
<path opacity="0.4" d="M134.07 530.091C134.682 530.091 135.178 529.607 135.178 529.01C135.178 528.413 134.682 527.929 134.07 527.929C133.458 527.929 132.962 528.413 132.962 529.01C132.962 529.607 133.458 530.091 134.07 530.091Z" fill="white"/>
<path opacity="0.4" d="M134.07 661.967C134.682 661.967 135.178 661.483 135.178 660.886C135.178 660.289 134.682 659.805 134.07 659.805C133.458 659.805 132.962 660.289 132.962 660.886C132.962 661.483 133.458 661.967 134.07 661.967Z" fill="white"/>
<path opacity="0.4" d="M134.07 793.843C134.682 793.843 135.178 793.359 135.178 792.762C135.178 792.166 134.682 791.682 134.07 791.682C133.458 791.682 132.962 792.166 132.962 792.762C132.962 793.359 133.458 793.843 134.07 793.843Z" fill="white"/>
<path opacity="0.4" d="M134.07 925.719C134.682 925.719 135.178 925.235 135.178 924.638C135.178 924.041 134.682 923.557 134.07 923.557C133.458 923.557 132.962 924.041 132.962 924.638C132.962 925.235 133.458 925.719 134.07 925.719Z" fill="white"/>
<path opacity="0.4" d="M134.07 1057.6C134.682 1057.6 135.178 1057.11 135.178 1056.51C135.178 1055.92 134.682 1055.43 134.07 1055.43C133.458 1055.43 132.962 1055.92 132.962 1056.51C132.962 1057.11 133.458 1057.6 134.07 1057.6Z" fill="white"/>
</g>
<g opacity="0.4">
<path opacity="0.4" d="M267.036 2.5874C267.648 2.5874 268.144 2.10345 268.144 1.50647C268.144 0.909487 267.648 0.425537 267.036 0.425537C266.424 0.425537 265.928 0.909487 265.928 1.50647C265.928 2.10345 266.424 2.5874 267.036 2.5874Z" fill="white"/>
<path opacity="0.4" d="M267.036 134.463C267.648 134.463 268.144 133.979 268.144 133.382C268.144 132.785 267.648 132.302 267.036 132.302C266.424 132.302 265.928 132.785 265.928 133.382C265.928 133.979 266.424 134.463 267.036 134.463Z" fill="white"/>
<path opacity="0.4" d="M267.036 266.339C267.648 266.339 268.144 265.855 268.144 265.258C268.144 264.661 267.648 264.177 267.036 264.177C266.424 264.177 265.928 264.661 265.928 265.258C265.928 265.855 266.424 266.339 267.036 266.339Z" fill="white"/>
<path opacity="0.4" d="M267.036 398.215C267.648 398.215 268.144 397.731 268.144 397.134C268.144 396.537 267.648 396.053 267.036 396.053C266.424 396.053 265.928 396.537 265.928 397.134C265.928 397.731 266.424 398.215 267.036 398.215Z" fill="white"/>
<path opacity="0.4" d="M267.036 530.091C267.648 530.091 268.144 529.607 268.144 529.01C268.144 528.413 267.648 527.929 267.036 527.929C266.424 527.929 265.928 528.413 265.928 529.01C265.928 529.607 266.424 530.091 267.036 530.091Z" fill="white"/>
<path opacity="0.4" d="M267.036 661.967C267.648 661.967 268.144 661.483 268.144 660.886C268.144 660.289 267.648 659.805 267.036 659.805C266.424 659.805 265.928 660.289 265.928 660.886C265.928 661.483 266.424 661.967 267.036 661.967Z" fill="white"/>
<path opacity="0.4" d="M267.036 793.843C267.648 793.843 268.144 793.359 268.144 792.762C268.144 792.166 267.648 791.682 267.036 791.682C266.424 791.682 265.928 792.166 265.928 792.762C265.928 793.359 266.424 793.843 267.036 793.843Z" fill="white"/>
<path opacity="0.4" d="M267.036 925.719C267.648 925.719 268.144 925.235 268.144 924.638C268.144 924.041 267.648 923.557 267.036 923.557C266.424 923.557 265.928 924.041 265.928 924.638C265.928 925.235 266.424 925.719 267.036 925.719Z" fill="white"/>
<path opacity="0.4" d="M267.036 1057.6C267.648 1057.6 268.144 1057.11 268.144 1056.51C268.144 1055.92 267.648 1055.43 267.036 1055.43C266.424 1055.43 265.928 1055.92 265.928 1056.51C265.928 1057.11 266.424 1057.6 267.036 1057.6Z" fill="white"/>
</g>
<g opacity="0.4">
<path opacity="0.4" d="M399.999 2.5874C400.611 2.5874 401.107 2.10345 401.107 1.50647C401.107 0.909487 400.611 0.425537 399.999 0.425537C399.387 0.425537 398.891 0.909487 398.891 1.50647C398.891 2.10345 399.387 2.5874 399.999 2.5874Z" fill="white"/>
<path opacity="0.4" d="M400 134.463C400.612 134.463 401.108 133.979 401.108 133.382C401.108 132.785 400.612 132.302 400 132.302C399.388 132.302 398.892 132.785 398.892 133.382C398.892 133.979 399.388 134.463 400 134.463Z" fill="white"/>
<path opacity="0.4" d="M400 266.339C400.612 266.339 401.108 265.855 401.108 265.258C401.108 264.661 400.612 264.177 400 264.177C399.388 264.177 398.892 264.661 398.892 265.258C398.892 265.855 399.388 266.339 400 266.339Z" fill="white"/>
<path opacity="0.4" d="M400 398.215C400.612 398.215 401.108 397.731 401.108 397.134C401.108 396.537 400.612 396.053 400 396.053C399.388 396.053 398.892 396.537 398.892 397.134C398.892 397.731 399.388 398.215 400 398.215Z" fill="white"/>
<path opacity="0.4" d="M400 530.091C400.612 530.091 401.108 529.607 401.108 529.01C401.108 528.413 400.612 527.929 400 527.929C399.388 527.929 398.892 528.413 398.892 529.01C398.892 529.607 399.388 530.091 400 530.091Z" fill="white"/>
<path opacity="0.4" d="M400 661.967C400.612 661.967 401.108 661.483 401.108 660.886C401.108 660.289 400.612 659.805 400 659.805C399.388 659.805 398.892 660.289 398.892 660.886C398.892 661.483 399.388 661.967 400 661.967Z" fill="white"/>
<path opacity="0.4" d="M400 793.843C400.612 793.843 401.108 793.359 401.108 792.762C401.108 792.166 400.612 791.682 400 791.682C399.388 791.682 398.892 792.166 398.892 792.762C398.892 793.359 399.388 793.843 400 793.843Z" fill="white"/>
<path opacity="0.4" d="M400 925.719C400.612 925.719 401.108 925.235 401.108 924.638C401.108 924.041 400.612 923.557 400 923.557C399.388 923.557 398.892 924.041 398.892 924.638C398.892 925.235 399.388 925.719 400 925.719Z" fill="white"/>
<path opacity="0.4" d="M400 1057.6C400.612 1057.6 401.108 1057.11 401.108 1056.51C401.108 1055.92 400.612 1055.43 400 1055.43C399.388 1055.43 398.892 1055.92 398.892 1056.51C398.892 1057.11 399.388 1057.6 400 1057.6Z" fill="white"/>
</g>
<g opacity="0.4">
<path opacity="0.4" d="M532.966 2.5874C533.578 2.5874 534.074 2.10345 534.074 1.50647C534.074 0.909487 533.578 0.425537 532.966 0.425537C532.354 0.425537 531.858 0.909487 531.858 1.50647C531.858 2.10345 532.354 2.5874 532.966 2.5874Z" fill="white"/>
<path opacity="0.4" d="M532.965 134.463C533.577 134.463 534.073 133.979 534.073 133.382C534.073 132.785 533.577 132.302 532.965 132.302C532.354 132.302 531.857 132.785 531.857 133.382C531.857 133.979 532.354 134.463 532.965 134.463Z" fill="white"/>
<path opacity="0.4" d="M532.965 266.339C533.577 266.339 534.073 265.855 534.073 265.258C534.073 264.661 533.577 264.177 532.965 264.177C532.354 264.177 531.857 264.661 531.857 265.258C531.857 265.855 532.354 266.339 532.965 266.339Z" fill="white"/>
<path opacity="0.4" d="M532.965 398.215C533.577 398.215 534.073 397.731 534.073 397.134C534.073 396.537 533.577 396.053 532.965 396.053C532.354 396.053 531.857 396.537 531.857 397.134C531.857 397.731 532.354 398.215 532.965 398.215Z" fill="white"/>
<path opacity="0.4" d="M532.965 530.091C533.577 530.091 534.073 529.607 534.073 529.01C534.073 528.413 533.577 527.929 532.965 527.929C532.354 527.929 531.857 528.413 531.857 529.01C531.857 529.607 532.354 530.091 532.965 530.091Z" fill="white"/>
<path opacity="0.4" d="M532.965 661.967C533.577 661.967 534.073 661.483 534.073 660.886C534.073 660.289 533.577 659.805 532.965 659.805C532.354 659.805 531.857 660.289 531.857 660.886C531.857 661.483 532.354 661.967 532.965 661.967Z" fill="white"/>
<path opacity="0.4" d="M532.965 793.843C533.577 793.843 534.073 793.359 534.073 792.762C534.073 792.166 533.577 791.682 532.965 791.682C532.354 791.682 531.857 792.166 531.857 792.762C531.857 793.359 532.354 793.843 532.965 793.843Z" fill="white"/>
<path opacity="0.4" d="M532.965 925.719C533.577 925.719 534.073 925.235 534.073 924.638C534.073 924.041 533.577 923.557 532.965 923.557C532.354 923.557 531.857 924.041 531.857 924.638C531.857 925.235 532.354 925.719 532.965 925.719Z" fill="white"/>
<path opacity="0.4" d="M532.965 1057.6C533.577 1057.6 534.073 1057.11 534.073 1056.51C534.073 1055.92 533.577 1055.43 532.965 1055.43C532.354 1055.43 531.857 1055.92 531.857 1056.51C531.857 1057.11 532.354 1057.6 532.965 1057.6Z" fill="white"/>
</g>
<g opacity="0.2">
<path opacity="0.2" d="M665.926 2.5874C666.538 2.5874 667.034 2.10345 667.034 1.50647C667.034 0.909487 666.538 0.425537 665.926 0.425537C665.314 0.425537 664.818 0.909487 664.818 1.50647C664.818 2.10345 665.314 2.5874 665.926 2.5874Z" fill="white"/>
<path opacity="0.2" d="M665.927 134.463C666.539 134.463 667.035 133.979 667.035 133.382C667.035 132.785 666.539 132.302 665.927 132.302C665.315 132.302 664.819 132.785 664.819 133.382C664.819 133.979 665.315 134.463 665.927 134.463Z" fill="white"/>
<path opacity="0.2" d="M665.927 266.339C666.539 266.339 667.035 265.855 667.035 265.258C667.035 264.661 666.539 264.177 665.927 264.177C665.315 264.177 664.819 264.661 664.819 265.258C664.819 265.855 665.315 266.339 665.927 266.339Z" fill="white"/>
<path opacity="0.2" d="M665.927 398.215C666.539 398.215 667.035 397.731 667.035 397.134C667.035 396.537 666.539 396.053 665.927 396.053C665.315 396.053 664.819 396.537 664.819 397.134C664.819 397.731 665.315 398.215 665.927 398.215Z" fill="white"/>
<path opacity="0.2" d="M665.927 530.091C666.539 530.091 667.035 529.607 667.035 529.01C667.035 528.413 666.539 527.929 665.927 527.929C665.315 527.929 664.819 528.413 664.819 529.01C664.819 529.607 665.315 530.091 665.927 530.091Z" fill="white"/>
<path opacity="0.2" d="M665.927 661.967C666.539 661.967 667.035 661.483 667.035 660.886C667.035 660.289 666.539 659.805 665.927 659.805C665.315 659.805 664.819 660.289 664.819 660.886C664.819 661.483 665.315 661.967 665.927 661.967Z" fill="white"/>
<path opacity="0.2" d="M665.927 793.843C666.539 793.843 667.035 793.359 667.035 792.762C667.035 792.166 666.539 791.682 665.927 791.682C665.315 791.682 664.819 792.166 664.819 792.762C664.819 793.359 665.315 793.843 665.927 793.843Z" fill="white"/>
<path opacity="0.2" d="M665.927 925.719C666.539 925.719 667.035 925.235 667.035 924.638C667.035 924.041 666.539 923.557 665.927 923.557C665.315 923.557 664.819 924.041 664.819 924.638C664.819 925.235 665.315 925.719 665.927 925.719Z" fill="white"/>
<path opacity="0.2" d="M665.927 1057.6C666.539 1057.6 667.035 1057.11 667.035 1056.51C667.035 1055.92 666.539 1055.43 665.927 1055.43C665.315 1055.43 664.819 1055.92 664.819 1056.51C664.819 1057.11 665.315 1057.6 665.927 1057.6Z" fill="white"/>
</g>
<g opacity="0.1">
<path opacity="0.1" d="M798.891 2.58765C799.503 2.58765 799.999 2.10364 799.999 1.50659C799.999 0.909542 799.503 0.425537 798.891 0.425537C798.279 0.425537 797.783 0.909542 797.783 1.50659C797.783 2.10364 798.279 2.58765 798.891 2.58765Z" fill="white"/>
<path opacity="0.1" d="M798.891 134.463C799.503 134.463 799.999 133.979 799.999 133.382C799.999 132.785 799.503 132.302 798.891 132.302C798.279 132.302 797.783 132.785 797.783 133.382C797.783 133.979 798.279 134.463 798.891 134.463Z" fill="white"/>
<path opacity="0.1" d="M798.891 266.34C799.503 266.34 799.999 265.856 799.999 265.259C799.999 264.662 799.503 264.178 798.891 264.178C798.279 264.178 797.783 264.662 797.783 265.259C797.783 265.856 798.279 266.34 798.891 266.34Z" fill="white"/>
<path opacity="0.1" d="M798.891 398.216C799.503 398.216 799.999 397.732 799.999 397.135C799.999 396.538 799.503 396.054 798.891 396.054C798.279 396.054 797.783 396.538 797.783 397.135C797.783 397.732 798.279 398.216 798.891 398.216Z" fill="white"/>
<path opacity="0.1" d="M798.891 530.091C799.503 530.091 799.999 529.607 799.999 529.01C799.999 528.413 799.503 527.929 798.891 527.929C798.279 527.929 797.783 528.413 797.783 529.01C797.783 529.607 798.279 530.091 798.891 530.091Z" fill="white"/>
<path opacity="0.1" d="M798.891 661.968C799.503 661.968 799.999 661.484 799.999 660.886C799.999 660.289 799.503 659.805 798.891 659.805C798.279 659.805 797.783 660.289 797.783 660.886C797.783 661.484 798.279 661.968 798.891 661.968Z" fill="white"/>
<path opacity="0.1" d="M798.891 793.843C799.503 793.843 799.999 793.359 799.999 792.762C799.999 792.166 799.503 791.682 798.891 791.682C798.279 791.682 797.783 792.166 797.783 792.762C797.783 793.359 798.279 793.843 798.891 793.843Z" fill="white"/>
<path opacity="0.1" d="M798.891 925.719C799.503 925.719 799.999 925.235 799.999 924.638C799.999 924.041 799.503 923.557 798.891 923.557C798.279 923.557 797.783 924.041 797.783 924.638C797.783 925.235 798.279 925.719 798.891 925.719Z" fill="white"/>
<path opacity="0.1" d="M798.891 1057.6C799.503 1057.6 799.999 1057.11 799.999 1056.51C799.999 1055.92 799.503 1055.43 798.891 1055.43C798.279 1055.43 797.783 1055.92 797.783 1056.51C797.783 1057.11 798.279 1057.6 798.891 1057.6Z" fill="white"/>
</g>
<g opacity="0.4">
<path opacity="0.4" d="M800.108 3.99829C800.72 3.99829 801.216 3.51434 801.216 2.91736C801.216 2.32038 800.72 1.83643 800.108 1.83643C799.496 1.83643 799 2.32038 799 2.91736C799 3.51434 799.496 3.99829 800.108 3.99829Z" fill="white"/>
<path opacity="0.4" d="M800.108 135.874C800.72 135.874 801.216 135.39 801.216 134.793C801.216 134.196 800.72 133.712 800.108 133.712C799.496 133.712 799 134.196 799 134.793C799 135.39 799.496 135.874 800.108 135.874Z" fill="white"/>
<path opacity="0.4" d="M800.108 267.75C800.72 267.75 801.216 267.266 801.216 266.669C801.216 266.072 800.72 265.588 800.108 265.588C799.496 265.588 799 266.072 799 266.669C799 267.266 799.496 267.75 800.108 267.75Z" fill="white"/>
<path opacity="0.4" d="M800.108 399.626C800.72 399.626 801.216 399.142 801.216 398.545C801.216 397.948 800.72 397.464 800.108 397.464C799.496 397.464 799 397.948 799 398.545C799 399.142 799.496 399.626 800.108 399.626Z" fill="white"/>
<path opacity="0.4" d="M800.108 531.502C800.72 531.502 801.216 531.018 801.216 530.421C801.216 529.824 800.72 529.34 800.108 529.34C799.496 529.34 799 529.824 799 530.421C799 531.018 799.496 531.502 800.108 531.502Z" fill="white"/>
<path opacity="0.4" d="M800.108 663.378C800.72 663.378 801.216 662.894 801.216 662.297C801.216 661.7 800.72 661.216 800.108 661.216C799.496 661.216 799 661.7 799 662.297C799 662.894 799.496 663.378 800.108 663.378Z" fill="white"/>
<path opacity="0.4" d="M800.108 795.254C800.72 795.254 801.216 794.77 801.216 794.173C801.216 793.576 800.72 793.092 800.108 793.092C799.496 793.092 799 793.576 799 794.173C799 794.77 799.496 795.254 800.108 795.254Z" fill="white"/>
<path opacity="0.4" d="M800.108 927.13C800.72 927.13 801.216 926.646 801.216 926.049C801.216 925.452 800.72 924.968 800.108 924.968C799.496 924.968 799 925.452 799 926.049C799 926.646 799.496 927.13 800.108 927.13Z" fill="white"/>
<path opacity="0.4" d="M800.108 1029.46C800.72 1029.46 801.216 1028.81 801.216 1028.02C801.216 1027.22 800.72 1026.58 800.108 1026.58C799.496 1026.58 799 1027.22 799 1028.02C799 1028.81 799.496 1029.46 800.108 1029.46Z" fill="white"/>
</g>
<g opacity="0.4">
<path opacity="0.4" d="M933.069 3.99829C933.681 3.99829 934.177 3.51434 934.177 2.91736C934.177 2.32038 933.681 1.83643 933.069 1.83643C932.457 1.83643 931.961 2.32038 931.961 2.91736C931.961 3.51434 932.457 3.99829 933.069 3.99829Z" fill="white"/>
<path opacity="0.4" d="M933.07 135.874C933.682 135.874 934.178 135.39 934.178 134.793C934.178 134.196 933.682 133.712 933.07 133.712C932.458 133.712 931.962 134.196 931.962 134.793C931.962 135.39 932.458 135.874 933.07 135.874Z" fill="white"/>
<path opacity="0.4" d="M933.07 267.75C933.682 267.75 934.178 267.266 934.178 266.669C934.178 266.072 933.682 265.588 933.07 265.588C932.458 265.588 931.962 266.072 931.962 266.669C931.962 267.266 932.458 267.75 933.07 267.75Z" fill="white"/>
<path opacity="0.4" d="M933.07 399.626C933.682 399.626 934.178 399.142 934.178 398.545C934.178 397.948 933.682 397.464 933.07 397.464C932.458 397.464 931.962 397.948 931.962 398.545C931.962 399.142 932.458 399.626 933.07 399.626Z" fill="white"/>
<path opacity="0.4" d="M933.07 531.502C933.682 531.502 934.178 531.018 934.178 530.421C934.178 529.824 933.682 529.34 933.07 529.34C932.458 529.34 931.962 529.824 931.962 530.421C931.962 531.018 932.458 531.502 933.07 531.502Z" fill="white"/>
<path opacity="0.4" d="M933.07 663.378C933.682 663.378 934.178 662.894 934.178 662.297C934.178 661.7 933.682 661.216 933.07 661.216C932.458 661.216 931.962 661.7 931.962 662.297C931.962 662.894 932.458 663.378 933.07 663.378Z" fill="white"/>
<path opacity="0.4" d="M933.07 795.254C933.682 795.254 934.178 794.77 934.178 794.173C934.178 793.576 933.682 793.092 933.07 793.092C932.458 793.092 931.962 793.576 931.962 794.173C931.962 794.77 932.458 795.254 933.07 795.254Z" fill="white"/>
<path opacity="0.4" d="M933.07 927.13C933.682 927.13 934.178 926.646 934.178 926.049C934.178 925.452 933.682 924.968 933.07 924.968C932.458 924.968 931.962 925.452 931.962 926.049C931.962 926.646 932.458 927.13 933.07 927.13Z" fill="white"/>
<path opacity="0.4" d="M933.07 1059.01C933.682 1059.01 934.178 1058.52 934.178 1057.92C934.178 1057.33 933.682 1056.84 933.07 1056.84C932.458 1056.84 931.962 1057.33 931.962 1057.92C931.962 1058.52 932.458 1059.01 933.07 1059.01Z" fill="white"/>
</g>
<g opacity="0.4">
<path opacity="0.4" d="M1066.04 3.99829C1066.65 3.99829 1067.14 3.51434 1067.14 2.91736C1067.14 2.32038 1066.65 1.83643 1066.04 1.83643C1065.42 1.83643 1064.93 2.32038 1064.93 2.91736C1064.93 3.51434 1065.42 3.99829 1066.04 3.99829Z" fill="white"/>
<path opacity="0.4" d="M1066.04 135.874C1066.65 135.874 1067.14 135.39 1067.14 134.793C1067.14 134.196 1066.65 133.712 1066.04 133.712C1065.42 133.712 1064.93 134.196 1064.93 134.793C1064.93 135.39 1065.42 135.874 1066.04 135.874Z" fill="white"/>
<path opacity="0.4" d="M1066.04 267.75C1066.65 267.75 1067.14 267.266 1067.14 266.669C1067.14 266.072 1066.65 265.588 1066.04 265.588C1065.42 265.588 1064.93 266.072 1064.93 266.669C1064.93 267.266 1065.42 267.75 1066.04 267.75Z" fill="white"/>
<path opacity="0.4" d="M1066.04 399.626C1066.65 399.626 1067.14 399.142 1067.14 398.545C1067.14 397.948 1066.65 397.464 1066.04 397.464C1065.42 397.464 1064.93 397.948 1064.93 398.545C1064.93 399.142 1065.42 399.626 1066.04 399.626Z" fill="white"/>
<path opacity="0.4" d="M1066.04 531.502C1066.65 531.502 1067.14 531.018 1067.14 530.421C1067.14 529.824 1066.65 529.34 1066.04 529.34C1065.42 529.34 1064.93 529.824 1064.93 530.421C1064.93 531.018 1065.42 531.502 1066.04 531.502Z" fill="white"/>
<path opacity="0.4" d="M1066.04 663.378C1066.65 663.378 1067.14 662.894 1067.14 662.297C1067.14 661.7 1066.65 661.216 1066.04 661.216C1065.42 661.216 1064.93 661.7 1064.93 662.297C1064.93 662.894 1065.42 663.378 1066.04 663.378Z" fill="white"/>
<path opacity="0.4" d="M1066.04 795.254C1066.65 795.254 1067.14 794.77 1067.14 794.173C1067.14 793.576 1066.65 793.092 1066.04 793.092C1065.42 793.092 1064.93 793.576 1064.93 794.173C1064.93 794.77 1065.42 795.254 1066.04 795.254Z" fill="white"/>
<path opacity="0.4" d="M1066.04 927.13C1066.65 927.13 1067.14 926.646 1067.14 926.049C1067.14 925.452 1066.65 924.968 1066.04 924.968C1065.42 924.968 1064.93 925.452 1064.93 926.049C1064.93 926.646 1065.42 927.13 1066.04 927.13Z" fill="white"/>
<path opacity="0.4" d="M1066.04 1059.01C1066.65 1059.01 1067.14 1058.52 1067.14 1057.92C1067.14 1057.33 1066.65 1056.84 1066.04 1056.84C1065.42 1056.84 1064.93 1057.33 1064.93 1057.92C1064.93 1058.52 1065.42 1059.01 1066.04 1059.01Z" fill="white"/>
</g>
<g opacity="0.4">
<path opacity="0.4" d="M1199 3.99829C1199.61 3.99829 1200.11 3.51434 1200.11 2.91736C1200.11 2.32038 1199.61 1.83643 1199 1.83643C1198.39 1.83643 1197.89 2.32038 1197.89 2.91736C1197.89 3.51434 1198.39 3.99829 1199 3.99829Z" fill="white"/>
<path opacity="0.4" d="M1199 135.874C1199.61 135.874 1200.11 135.39 1200.11 134.793C1200.11 134.196 1199.61 133.712 1199 133.712C1198.39 133.712 1197.89 134.196 1197.89 134.793C1197.89 135.39 1198.39 135.874 1199 135.874Z" fill="white"/>
<path opacity="0.4" d="M1199 267.75C1199.61 267.75 1200.11 267.266 1200.11 266.669C1200.11 266.072 1199.61 265.588 1199 265.588C1198.39 265.588 1197.89 266.072 1197.89 266.669C1197.89 267.266 1198.39 267.75 1199 267.75Z" fill="white"/>
<path opacity="0.4" d="M1199 399.626C1199.61 399.626 1200.11 399.142 1200.11 398.545C1200.11 397.948 1199.61 397.464 1199 397.464C1198.39 397.464 1197.89 397.948 1197.89 398.545C1197.89 399.142 1198.39 399.626 1199 399.626Z" fill="white"/>
<path opacity="0.4" d="M1199 531.502C1199.61 531.502 1200.11 531.018 1200.11 530.421C1200.11 529.824 1199.61 529.34 1199 529.34C1198.39 529.34 1197.89 529.824 1197.89 530.421C1197.89 531.018 1198.39 531.502 1199 531.502Z" fill="white"/>
<path opacity="0.4" d="M1199 663.378C1199.61 663.378 1200.11 662.894 1200.11 662.297C1200.11 661.7 1199.61 661.216 1199 661.216C1198.39 661.216 1197.89 661.7 1197.89 662.297C1197.89 662.894 1198.39 663.378 1199 663.378Z" fill="white"/>
<path opacity="0.4" d="M1199 795.254C1199.61 795.254 1200.11 794.77 1200.11 794.173C1200.11 793.576 1199.61 793.092 1199 793.092C1198.39 793.092 1197.89 793.576 1197.89 794.173C1197.89 794.77 1198.39 795.254 1199 795.254Z" fill="white"/>
<path opacity="0.4" d="M1199 927.13C1199.61 927.13 1200.11 926.646 1200.11 926.049C1200.11 925.452 1199.61 924.968 1199 924.968C1198.39 924.968 1197.89 925.452 1197.89 926.049C1197.89 926.646 1198.39 927.13 1199 927.13Z" fill="white"/>
<path opacity="0.4" d="M1199 1059.01C1199.61 1059.01 1200.11 1058.52 1200.11 1057.92C1200.11 1057.33 1199.61 1056.84 1199 1056.84C1198.39 1056.84 1197.89 1057.33 1197.89 1057.92C1197.89 1058.52 1198.39 1059.01 1199 1059.01Z" fill="white"/>
</g>
<g opacity="0.4">
<path opacity="0.4" d="M1331.97 3.99829C1332.58 3.99829 1333.07 3.51434 1333.07 2.91736C1333.07 2.32038 1332.58 1.83643 1331.97 1.83643C1331.35 1.83643 1330.86 2.32038 1330.86 2.91736C1330.86 3.51434 1331.35 3.99829 1331.97 3.99829Z" fill="white"/>
<path opacity="0.4" d="M1331.97 135.874C1332.58 135.874 1333.07 135.39 1333.07 134.793C1333.07 134.196 1332.58 133.712 1331.97 133.712C1331.35 133.712 1330.86 134.196 1330.86 134.793C1330.86 135.39 1331.35 135.874 1331.97 135.874Z" fill="white"/>
<path opacity="0.4" d="M1331.97 267.75C1332.58 267.75 1333.07 267.266 1333.07 266.669C1333.07 266.072 1332.58 265.588 1331.97 265.588C1331.35 265.588 1330.86 266.072 1330.86 266.669C1330.86 267.266 1331.35 267.75 1331.97 267.75Z" fill="white"/>
<path opacity="0.4" d="M1331.97 399.626C1332.58 399.626 1333.07 399.142 1333.07 398.545C1333.07 397.948 1332.58 397.464 1331.97 397.464C1331.35 397.464 1330.86 397.948 1330.86 398.545C1330.86 399.142 1331.35 399.626 1331.97 399.626Z" fill="white"/>
<path opacity="0.4" d="M1331.97 531.502C1332.58 531.502 1333.07 531.018 1333.07 530.421C1333.07 529.824 1332.58 529.34 1331.97 529.34C1331.35 529.34 1330.86 529.824 1330.86 530.421C1330.86 531.018 1331.35 531.502 1331.97 531.502Z" fill="white"/>
<path opacity="0.4" d="M1331.97 663.378C1332.58 663.378 1333.07 662.894 1333.07 662.297C1333.07 661.7 1332.58 661.216 1331.97 661.216C1331.35 661.216 1330.86 661.7 1330.86 662.297C1330.86 662.894 1331.35 663.378 1331.97 663.378Z" fill="white"/>
<path opacity="0.4" d="M1331.97 795.254C1332.58 795.254 1333.07 794.77 1333.07 794.173C1333.07 793.576 1332.58 793.092 1331.97 793.092C1331.35 793.092 1330.86 793.576 1330.86 794.173C1330.86 794.77 1331.35 795.254 1331.97 795.254Z" fill="white"/>
<path opacity="0.4" d="M1331.97 927.13C1332.58 927.13 1333.07 926.646 1333.07 926.049C1333.07 925.452 1332.58 924.968 1331.97 924.968C1331.35 924.968 1330.86 925.452 1330.86 926.049C1330.86 926.646 1331.35 927.13 1331.97 927.13Z" fill="white"/>
<path opacity="0.4" d="M1331.97 1059.01C1332.58 1059.01 1333.07 1058.52 1333.07 1057.92C1333.07 1057.33 1332.58 1056.84 1331.97 1056.84C1331.35 1056.84 1330.86 1057.33 1330.86 1057.92C1330.86 1058.52 1331.35 1059.01 1331.97 1059.01Z" fill="white"/>
</g>
<g opacity="0.2">
<path opacity="0.2" d="M1464.93 3.99829C1465.54 3.99829 1466.03 3.51434 1466.03 2.91736C1466.03 2.32038 1465.54 1.83643 1464.93 1.83643C1464.31 1.83643 1463.82 2.32038 1463.82 2.91736C1463.82 3.51434 1464.31 3.99829 1464.93 3.99829Z" fill="white"/>
<path opacity="0.2" d="M1464.93 135.874C1465.54 135.874 1466.04 135.39 1466.04 134.793C1466.04 134.196 1465.54 133.712 1464.93 133.712C1464.32 133.712 1463.82 134.196 1463.82 134.793C1463.82 135.39 1464.32 135.874 1464.93 135.874Z" fill="white"/>
<path opacity="0.2" d="M1464.93 267.75C1465.54 267.75 1466.04 267.266 1466.04 266.669C1466.04 266.072 1465.54 265.588 1464.93 265.588C1464.32 265.588 1463.82 266.072 1463.82 266.669C1463.82 267.266 1464.32 267.75 1464.93 267.75Z" fill="white"/>
<path opacity="0.2" d="M1464.93 399.626C1465.54 399.626 1466.04 399.142 1466.04 398.545C1466.04 397.948 1465.54 397.464 1464.93 397.464C1464.32 397.464 1463.82 397.948 1463.82 398.545C1463.82 399.142 1464.32 399.626 1464.93 399.626Z" fill="white"/>
<path opacity="0.2" d="M1464.93 531.502C1465.54 531.502 1466.04 531.018 1466.04 530.421C1466.04 529.824 1465.54 529.34 1464.93 529.34C1464.32 529.34 1463.82 529.824 1463.82 530.421C1463.82 531.018 1464.32 531.502 1464.93 531.502Z" fill="white"/>
<path opacity="0.2" d="M1464.93 663.378C1465.54 663.378 1466.04 662.894 1466.04 662.297C1466.04 661.7 1465.54 661.216 1464.93 661.216C1464.32 661.216 1463.82 661.7 1463.82 662.297C1463.82 662.894 1464.32 663.378 1464.93 663.378Z" fill="white"/>
<path opacity="0.2" d="M1464.93 795.254C1465.54 795.254 1466.04 794.77 1466.04 794.173C1466.04 793.576 1465.54 793.092 1464.93 793.092C1464.32 793.092 1463.82 793.576 1463.82 794.173C1463.82 794.77 1464.32 795.254 1464.93 795.254Z" fill="white"/>
<path opacity="0.2" d="M1464.93 927.13C1465.54 927.13 1466.04 926.646 1466.04 926.049C1466.04 925.452 1465.54 924.968 1464.93 924.968C1464.32 924.968 1463.82 925.452 1463.82 926.049C1463.82 926.646 1464.32 927.13 1464.93 927.13Z" fill="white"/>
<path opacity="0.2" d="M1464.93 1059.01C1465.54 1059.01 1466.04 1058.52 1466.04 1057.92C1466.04 1057.33 1465.54 1056.84 1464.93 1056.84C1464.32 1056.84 1463.82 1057.33 1463.82 1057.92C1463.82 1058.52 1464.32 1059.01 1464.93 1059.01Z" fill="white"/>
</g>
<g opacity="0.1">
<path opacity="0.1" d="M1597.89 3.99854C1598.5 3.99854 1599 3.51453 1599 2.91748C1599 2.32043 1598.5 1.83643 1597.89 1.83643C1597.28 1.83643 1596.78 2.32043 1596.78 2.91748C1596.78 3.51453 1597.28 3.99854 1597.89 3.99854Z" fill="white"/>
<path opacity="0.1" d="M1597.89 135.874C1598.5 135.874 1599 135.39 1599 134.793C1599 134.196 1598.5 133.712 1597.89 133.712C1597.28 133.712 1596.78 134.196 1596.78 134.793C1596.78 135.39 1597.28 135.874 1597.89 135.874Z" fill="white"/>
<path opacity="0.1" d="M1597.89 267.75C1598.5 267.75 1599 267.266 1599 266.669C1599 266.072 1598.5 265.588 1597.89 265.588C1597.28 265.588 1596.78 266.072 1596.78 266.669C1596.78 267.266 1597.28 267.75 1597.89 267.75Z" fill="white"/>
<path opacity="0.1" d="M1597.89 399.626C1598.5 399.626 1599 399.142 1599 398.545C1599 397.948 1598.5 397.464 1597.89 397.464C1597.28 397.464 1596.78 397.948 1596.78 398.545C1596.78 399.142 1597.28 399.626 1597.89 399.626Z" fill="white"/>
<path opacity="0.1" d="M1597.89 531.502C1598.5 531.502 1599 531.018 1599 530.421C1599 529.824 1598.5 529.34 1597.89 529.34C1597.28 529.34 1596.78 529.824 1596.78 530.421C1596.78 531.018 1597.28 531.502 1597.89 531.502Z" fill="white"/>
<path opacity="0.1" d="M1597.89 663.378C1598.5 663.378 1599 662.894 1599 662.297C1599 661.7 1598.5 661.216 1597.89 661.216C1597.28 661.216 1596.78 661.7 1596.78 662.297C1596.78 662.894 1597.28 663.378 1597.89 663.378Z" fill="white"/>
<path opacity="0.1" d="M1597.89 795.254C1598.5 795.254 1599 794.77 1599 794.173C1599 793.576 1598.5 793.092 1597.89 793.092C1597.28 793.092 1596.78 793.576 1596.78 794.173C1596.78 794.77 1597.28 795.254 1597.89 795.254Z" fill="white"/>
<path opacity="0.1" d="M1597.89 927.13C1598.5 927.13 1599 926.646 1599 926.049C1599 925.452 1598.5 924.968 1597.89 924.968C1597.28 924.968 1596.78 925.452 1596.78 926.049C1596.78 926.646 1597.28 927.13 1597.89 927.13Z" fill="white"/>
<path opacity="0.1" d="M1597.89 1059.01C1598.5 1059.01 1599 1058.52 1599 1057.93C1599 1057.33 1598.5 1056.84 1597.89 1056.84C1597.28 1056.84 1596.78 1057.33 1596.78 1057.93C1596.78 1058.52 1597.28 1059.01 1597.89 1059.01Z" fill="white"/>
</g>
</svg>
