<svg width="1598" height="1060" viewBox="0 0 1598 1060" fill="none" xmlns="http://www.w3.org/2000/svg">
<g opacity="0.4">
<path opacity="0.4" d="M0.108033 2.79443C0.719983 2.79443 1.21607 2.31054 1.21607 1.71362C1.21607 1.11671 0.719983 0.632812 0.108033 0.632812C-0.503917 0.632812 -1 1.11671 -1 1.71362C-1 2.31054 -0.503917 2.79443 0.108033 2.79443Z" fill="white"/>
<path opacity="0.4" d="M0.108033 134.67C0.719983 134.67 1.21607 134.186 1.21607 133.589C1.21607 132.992 0.719983 132.508 0.108033 132.508C-0.503917 132.508 -1 132.992 -1 133.589C-1 134.186 -0.503917 134.67 0.108033 134.67Z" fill="white"/>
<path opacity="0.4" d="M0.108033 266.546C0.719983 266.546 1.21607 266.062 1.21607 265.465C1.21607 264.869 0.719983 264.385 0.108033 264.385C-0.503917 264.385 -1 264.869 -1 265.465C-1 266.062 -0.503917 266.546 0.108033 266.546Z" fill="white"/>
<path opacity="0.4" d="M0.108033 398.422C0.719983 398.422 1.21607 397.938 1.21607 397.341C1.21607 396.744 0.719983 396.26 0.108033 396.26C-0.503917 396.26 -1 396.744 -1 397.341C-1 397.938 -0.503917 398.422 0.108033 398.422Z" fill="white"/>
<path opacity="0.4" d="M0.108033 530.298C0.719983 530.298 1.21607 529.814 1.21607 529.217C1.21607 528.62 0.719983 528.136 0.108033 528.136C-0.503917 528.136 -1 528.62 -1 529.217C-1 529.814 -0.503917 530.298 0.108033 530.298Z" fill="white"/>
<path opacity="0.4" d="M0.108033 662.174C0.719983 662.174 1.21607 661.69 1.21607 661.093C1.21607 660.496 0.719983 660.012 0.108033 660.012C-0.503917 660.012 -1 660.496 -1 661.093C-1 661.69 -0.503917 662.174 0.108033 662.174Z" fill="white"/>
<path opacity="0.4" d="M0.108033 794.05C0.719983 794.05 1.21607 793.566 1.21607 792.969C1.21607 792.372 0.719983 791.889 0.108033 791.889C-0.503917 791.889 -1 792.372 -1 792.969C-1 793.566 -0.503917 794.05 0.108033 794.05Z" fill="white"/>
<path opacity="0.4" d="M0.108033 925.926C0.719983 925.926 1.21607 925.442 1.21607 924.845C1.21607 924.249 0.719983 923.765 0.108033 923.765C-0.503917 923.765 -1 924.249 -1 924.845C-1 925.442 -0.503917 925.926 0.108033 925.926Z" fill="white"/>
<path opacity="0.4" d="M0.108033 1028.26C0.719983 1028.26 1.21607 1027.61 1.21607 1026.82C1.21607 1026.02 0.719983 1025.37 0.108033 1025.37C-0.503917 1025.37 -1 1026.02 -1 1026.82C-1 1027.61 -0.503917 1028.26 0.108033 1028.26Z" fill="white"/>
</g>
<g opacity="0.4">
<path opacity="0.4" d="M133.069 2.79443C133.681 2.79443 134.177 2.31054 134.177 1.71362C134.177 1.11671 133.681 0.632812 133.069 0.632812C132.457 0.632812 131.961 1.11671 131.961 1.71362C131.961 2.31054 132.457 2.79443 133.069 2.79443Z" fill="white"/>
<path opacity="0.4" d="M133.07 134.67C133.682 134.67 134.178 134.186 134.178 133.589C134.178 132.992 133.682 132.508 133.07 132.508C132.458 132.508 131.962 132.992 131.962 133.589C131.962 134.186 132.458 134.67 133.07 134.67Z" fill="white"/>
<path opacity="0.4" d="M133.07 266.546C133.682 266.546 134.178 266.062 134.178 265.465C134.178 264.869 133.682 264.385 133.07 264.385C132.458 264.385 131.962 264.869 131.962 265.465C131.962 266.062 132.458 266.546 133.07 266.546Z" fill="white"/>
<path opacity="0.4" d="M133.07 398.422C133.682 398.422 134.178 397.938 134.178 397.341C134.178 396.744 133.682 396.26 133.07 396.26C132.458 396.26 131.962 396.744 131.962 397.341C131.962 397.938 132.458 398.422 133.07 398.422Z" fill="white"/>
<path opacity="0.4" d="M133.07 530.298C133.682 530.298 134.178 529.814 134.178 529.217C134.178 528.62 133.682 528.136 133.07 528.136C132.458 528.136 131.962 528.62 131.962 529.217C131.962 529.814 132.458 530.298 133.07 530.298Z" fill="white"/>
<path opacity="0.4" d="M133.07 662.174C133.682 662.174 134.178 661.69 134.178 661.093C134.178 660.496 133.682 660.012 133.07 660.012C132.458 660.012 131.962 660.496 131.962 661.093C131.962 661.69 132.458 662.174 133.07 662.174Z" fill="white"/>
<path opacity="0.4" d="M133.07 794.05C133.682 794.05 134.178 793.566 134.178 792.969C134.178 792.372 133.682 791.889 133.07 791.889C132.458 791.889 131.962 792.372 131.962 792.969C131.962 793.566 132.458 794.05 133.07 794.05Z" fill="white"/>
<path opacity="0.4" d="M133.07 925.926C133.682 925.926 134.178 925.442 134.178 924.845C134.178 924.249 133.682 923.765 133.07 923.765C132.458 923.765 131.962 924.249 131.962 924.845C131.962 925.442 132.458 925.926 133.07 925.926Z" fill="white"/>
<path opacity="0.4" d="M133.07 1057.8C133.682 1057.8 134.178 1057.32 134.178 1056.72C134.178 1056.12 133.682 1055.64 133.07 1055.64C132.458 1055.64 131.962 1056.12 131.962 1056.72C131.962 1057.32 132.458 1057.8 133.07 1057.8Z" fill="white"/>
</g>
<g opacity="0.4">
<path opacity="0.4" d="M266.036 2.79443C266.648 2.79443 267.144 2.31054 267.144 1.71362C267.144 1.11671 266.648 0.632812 266.036 0.632812C265.424 0.632812 264.928 1.11671 264.928 1.71362C264.928 2.31054 265.424 2.79443 266.036 2.79443Z" fill="white"/>
<path opacity="0.4" d="M266.036 134.67C266.648 134.67 267.144 134.186 267.144 133.589C267.144 132.992 266.648 132.508 266.036 132.508C265.424 132.508 264.928 132.992 264.928 133.589C264.928 134.186 265.424 134.67 266.036 134.67Z" fill="white"/>
<path opacity="0.4" d="M266.036 266.546C266.648 266.546 267.144 266.062 267.144 265.465C267.144 264.869 266.648 264.385 266.036 264.385C265.424 264.385 264.928 264.869 264.928 265.465C264.928 266.062 265.424 266.546 266.036 266.546Z" fill="white"/>
<path opacity="0.4" d="M266.036 398.422C266.648 398.422 267.144 397.938 267.144 397.341C267.144 396.744 266.648 396.26 266.036 396.26C265.424 396.26 264.928 396.744 264.928 397.341C264.928 397.938 265.424 398.422 266.036 398.422Z" fill="white"/>
<path opacity="0.4" d="M266.036 530.298C266.648 530.298 267.144 529.814 267.144 529.217C267.144 528.62 266.648 528.136 266.036 528.136C265.424 528.136 264.928 528.62 264.928 529.217C264.928 529.814 265.424 530.298 266.036 530.298Z" fill="white"/>
<path opacity="0.4" d="M266.036 662.174C266.648 662.174 267.144 661.69 267.144 661.093C267.144 660.496 266.648 660.012 266.036 660.012C265.424 660.012 264.928 660.496 264.928 661.093C264.928 661.69 265.424 662.174 266.036 662.174Z" fill="white"/>
<path opacity="0.4" d="M266.036 794.05C266.648 794.05 267.144 793.566 267.144 792.969C267.144 792.372 266.648 791.889 266.036 791.889C265.424 791.889 264.928 792.372 264.928 792.969C264.928 793.566 265.424 794.05 266.036 794.05Z" fill="white"/>
<path opacity="0.4" d="M266.036 925.926C266.648 925.926 267.144 925.442 267.144 924.845C267.144 924.249 266.648 923.765 266.036 923.765C265.424 923.765 264.928 924.249 264.928 924.845C264.928 925.442 265.424 925.926 266.036 925.926Z" fill="white"/>
<path opacity="0.4" d="M266.036 1057.8C266.648 1057.8 267.144 1057.32 267.144 1056.72C267.144 1056.12 266.648 1055.64 266.036 1055.64C265.424 1055.64 264.928 1056.12 264.928 1056.72C264.928 1057.32 265.424 1057.8 266.036 1057.8Z" fill="white"/>
</g>
<g opacity="0.4">
<path opacity="0.4" d="M398.999 2.79443C399.611 2.79443 400.107 2.31054 400.107 1.71362C400.107 1.11671 399.611 0.632812 398.999 0.632812C398.387 0.632812 397.891 1.11671 397.891 1.71362C397.891 2.31054 398.387 2.79443 398.999 2.79443Z" fill="white"/>
<path opacity="0.4" d="M399 134.67C399.612 134.67 400.108 134.186 400.108 133.589C400.108 132.992 399.612 132.508 399 132.508C398.388 132.508 397.892 132.992 397.892 133.589C397.892 134.186 398.388 134.67 399 134.67Z" fill="white"/>
<path opacity="0.4" d="M399 266.546C399.612 266.546 400.108 266.062 400.108 265.465C400.108 264.869 399.612 264.385 399 264.385C398.388 264.385 397.892 264.869 397.892 265.465C397.892 266.062 398.388 266.546 399 266.546Z" fill="white"/>
<path opacity="0.4" d="M399 398.422C399.612 398.422 400.108 397.938 400.108 397.341C400.108 396.744 399.612 396.26 399 396.26C398.388 396.26 397.892 396.744 397.892 397.341C397.892 397.938 398.388 398.422 399 398.422Z" fill="white"/>
<path opacity="0.4" d="M399 530.298C399.612 530.298 400.108 529.814 400.108 529.217C400.108 528.62 399.612 528.136 399 528.136C398.388 528.136 397.892 528.62 397.892 529.217C397.892 529.814 398.388 530.298 399 530.298Z" fill="white"/>
<path opacity="0.4" d="M399 662.174C399.612 662.174 400.108 661.69 400.108 661.093C400.108 660.496 399.612 660.012 399 660.012C398.388 660.012 397.892 660.496 397.892 661.093C397.892 661.69 398.388 662.174 399 662.174Z" fill="white"/>
<path opacity="0.4" d="M399 794.05C399.612 794.05 400.108 793.566 400.108 792.969C400.108 792.372 399.612 791.889 399 791.889C398.388 791.889 397.892 792.372 397.892 792.969C397.892 793.566 398.388 794.05 399 794.05Z" fill="white"/>
<path opacity="0.4" d="M399 925.926C399.612 925.926 400.108 925.442 400.108 924.845C400.108 924.249 399.612 923.765 399 923.765C398.388 923.765 397.892 924.249 397.892 924.845C397.892 925.442 398.388 925.926 399 925.926Z" fill="white"/>
<path opacity="0.4" d="M399 1057.8C399.612 1057.8 400.108 1057.32 400.108 1056.72C400.108 1056.12 399.612 1055.64 399 1055.64C398.388 1055.64 397.892 1056.12 397.892 1056.72C397.892 1057.32 398.388 1057.8 399 1057.8Z" fill="white"/>
</g>
<g opacity="0.4">
<path opacity="0.4" d="M531.966 2.79443C532.578 2.79443 533.074 2.31054 533.074 1.71362C533.074 1.11671 532.578 0.632812 531.966 0.632812C531.354 0.632812 530.858 1.11671 530.858 1.71362C530.858 2.31054 531.354 2.79443 531.966 2.79443Z" fill="white"/>
<path opacity="0.4" d="M531.965 134.67C532.577 134.67 533.073 134.186 533.073 133.589C533.073 132.992 532.577 132.508 531.965 132.508C531.354 132.508 530.857 132.992 530.857 133.589C530.857 134.186 531.354 134.67 531.965 134.67Z" fill="white"/>
<path opacity="0.4" d="M531.965 266.546C532.577 266.546 533.073 266.062 533.073 265.465C533.073 264.869 532.577 264.385 531.965 264.385C531.354 264.385 530.857 264.869 530.857 265.465C530.857 266.062 531.354 266.546 531.965 266.546Z" fill="white"/>
<path opacity="0.4" d="M531.965 398.422C532.577 398.422 533.073 397.938 533.073 397.341C533.073 396.744 532.577 396.26 531.965 396.26C531.354 396.26 530.857 396.744 530.857 397.341C530.857 397.938 531.354 398.422 531.965 398.422Z" fill="white"/>
<path opacity="0.4" d="M531.965 530.298C532.577 530.298 533.073 529.814 533.073 529.217C533.073 528.62 532.577 528.136 531.965 528.136C531.354 528.136 530.857 528.62 530.857 529.217C530.857 529.814 531.354 530.298 531.965 530.298Z" fill="white"/>
<path opacity="0.4" d="M531.965 662.174C532.577 662.174 533.073 661.69 533.073 661.093C533.073 660.496 532.577 660.012 531.965 660.012C531.354 660.012 530.857 660.496 530.857 661.093C530.857 661.69 531.354 662.174 531.965 662.174Z" fill="white"/>
<path opacity="0.4" d="M531.965 794.05C532.577 794.05 533.073 793.566 533.073 792.969C533.073 792.372 532.577 791.889 531.965 791.889C531.354 791.889 530.857 792.372 530.857 792.969C530.857 793.566 531.354 794.05 531.965 794.05Z" fill="white"/>
<path opacity="0.4" d="M531.965 925.926C532.577 925.926 533.073 925.442 533.073 924.845C533.073 924.249 532.577 923.765 531.965 923.765C531.354 923.765 530.857 924.249 530.857 924.845C530.857 925.442 531.354 925.926 531.965 925.926Z" fill="white"/>
<path opacity="0.4" d="M531.965 1057.8C532.577 1057.8 533.073 1057.32 533.073 1056.72C533.073 1056.12 532.577 1055.64 531.965 1055.64C531.354 1055.64 530.857 1056.12 530.857 1056.72C530.857 1057.32 531.354 1057.8 531.965 1057.8Z" fill="white"/>
</g>
<g opacity="0.2">
<path opacity="0.2" d="M664.926 2.79443C665.538 2.79443 666.034 2.31054 666.034 1.71362C666.034 1.11671 665.538 0.632812 664.926 0.632812C664.314 0.632812 663.818 1.11671 663.818 1.71362C663.818 2.31054 664.314 2.79443 664.926 2.79443Z" fill="white"/>
<path opacity="0.2" d="M664.927 134.67C665.539 134.67 666.035 134.186 666.035 133.589C666.035 132.992 665.539 132.508 664.927 132.508C664.315 132.508 663.819 132.992 663.819 133.589C663.819 134.186 664.315 134.67 664.927 134.67Z" fill="white"/>
<path opacity="0.2" d="M664.927 266.546C665.539 266.546 666.035 266.062 666.035 265.465C666.035 264.869 665.539 264.385 664.927 264.385C664.315 264.385 663.819 264.869 663.819 265.465C663.819 266.062 664.315 266.546 664.927 266.546Z" fill="white"/>
<path opacity="0.2" d="M664.927 398.422C665.539 398.422 666.035 397.938 666.035 397.341C666.035 396.744 665.539 396.26 664.927 396.26C664.315 396.26 663.819 396.744 663.819 397.341C663.819 397.938 664.315 398.422 664.927 398.422Z" fill="white"/>
<path opacity="0.2" d="M664.927 530.298C665.539 530.298 666.035 529.814 666.035 529.217C666.035 528.62 665.539 528.136 664.927 528.136C664.315 528.136 663.819 528.62 663.819 529.217C663.819 529.814 664.315 530.298 664.927 530.298Z" fill="white"/>
<path opacity="0.2" d="M664.927 662.174C665.539 662.174 666.035 661.69 666.035 661.093C666.035 660.496 665.539 660.012 664.927 660.012C664.315 660.012 663.819 660.496 663.819 661.093C663.819 661.69 664.315 662.174 664.927 662.174Z" fill="white"/>
<path opacity="0.2" d="M664.927 794.05C665.539 794.05 666.035 793.566 666.035 792.969C666.035 792.372 665.539 791.889 664.927 791.889C664.315 791.889 663.819 792.372 663.819 792.969C663.819 793.566 664.315 794.05 664.927 794.05Z" fill="white"/>
<path opacity="0.2" d="M664.927 925.926C665.539 925.926 666.035 925.442 666.035 924.845C666.035 924.249 665.539 923.765 664.927 923.765C664.315 923.765 663.819 924.249 663.819 924.845C663.819 925.442 664.315 925.926 664.927 925.926Z" fill="white"/>
<path opacity="0.2" d="M664.927 1057.8C665.539 1057.8 666.035 1057.32 666.035 1056.72C666.035 1056.12 665.539 1055.64 664.927 1055.64C664.315 1055.64 663.819 1056.12 663.819 1056.72C663.819 1057.32 664.315 1057.8 664.927 1057.8Z" fill="white"/>
</g>
<g opacity="0.1">
<path opacity="0.1" d="M797.891 2.79492C798.503 2.79492 798.999 2.31092 798.999 1.71387C798.999 1.11682 798.503 0.632812 797.891 0.632812C797.279 0.632812 796.783 1.11682 796.783 1.71387C796.783 2.31092 797.279 2.79492 797.891 2.79492Z" fill="white"/>
<path opacity="0.1" d="M797.891 134.671C798.503 134.671 798.999 134.187 798.999 133.59C798.999 132.992 798.503 132.508 797.891 132.508C797.279 132.508 796.783 132.992 796.783 133.59C796.783 134.187 797.279 134.671 797.891 134.671Z" fill="white"/>
<path opacity="0.1" d="M797.891 266.546C798.503 266.546 798.999 266.062 798.999 265.466C798.999 264.869 798.503 264.385 797.891 264.385C797.279 264.385 796.783 264.869 796.783 265.466C796.783 266.062 797.279 266.546 797.891 266.546Z" fill="white"/>
<path opacity="0.1" d="M797.891 398.422C798.503 398.422 798.999 397.938 798.999 397.342C798.999 396.745 798.503 396.261 797.891 396.261C797.279 396.261 796.783 396.745 796.783 397.342C796.783 397.938 797.279 398.422 797.891 398.422Z" fill="white"/>
<path opacity="0.1" d="M797.891 530.299C798.503 530.299 798.999 529.815 798.999 529.218C798.999 528.621 798.503 528.137 797.891 528.137C797.279 528.137 796.783 528.621 796.783 529.218C796.783 529.815 797.279 530.299 797.891 530.299Z" fill="white"/>
<path opacity="0.1" d="M797.891 662.175C798.503 662.175 798.999 661.691 798.999 661.094C798.999 660.496 798.503 660.012 797.891 660.012C797.279 660.012 796.783 660.496 796.783 661.094C796.783 661.691 797.279 662.175 797.891 662.175Z" fill="white"/>
<path opacity="0.1" d="M797.891 794.05C798.503 794.05 798.999 793.566 798.999 792.969C798.999 792.373 798.503 791.889 797.891 791.889C797.279 791.889 796.783 792.373 796.783 792.969C796.783 793.566 797.279 794.05 797.891 794.05Z" fill="white"/>
<path opacity="0.1" d="M797.891 925.926C798.503 925.926 798.999 925.442 798.999 924.845C798.999 924.249 798.503 923.765 797.891 923.765C797.279 923.765 796.783 924.249 796.783 924.845C796.783 925.442 797.279 925.926 797.891 925.926Z" fill="white"/>
<path opacity="0.1" d="M797.891 1057.8C798.503 1057.8 798.999 1057.32 798.999 1056.72C798.999 1056.12 798.503 1055.64 797.891 1055.64C797.279 1055.64 796.783 1056.12 796.783 1056.72C796.783 1057.32 797.279 1057.8 797.891 1057.8Z" fill="white"/>
</g>
<g opacity="0.4">
<path opacity="0.4" d="M799.108 4.20508C799.72 4.20508 800.216 3.72107 800.216 3.12402C800.216 2.52697 799.72 2.04297 799.108 2.04297C798.496 2.04297 798 2.52697 798 3.12402C798 3.72107 798.496 4.20508 799.108 4.20508Z" fill="white"/>
<path opacity="0.4" d="M799.108 136.081C799.72 136.081 800.216 135.597 800.216 135C800.216 134.403 799.72 133.919 799.108 133.919C798.496 133.919 798 134.403 798 135C798 135.597 798.496 136.081 799.108 136.081Z" fill="white"/>
<path opacity="0.4" d="M799.108 267.958C799.72 267.958 800.216 267.473 800.216 266.876C800.216 266.279 799.72 265.795 799.108 265.795C798.496 265.795 798 266.279 798 266.876C798 267.473 798.496 267.958 799.108 267.958Z" fill="white"/>
<path opacity="0.4" d="M799.108 399.833C799.72 399.833 800.216 399.349 800.216 398.752C800.216 398.155 799.72 397.671 799.108 397.671C798.496 397.671 798 398.155 798 398.752C798 399.349 798.496 399.833 799.108 399.833Z" fill="white"/>
<path opacity="0.4" d="M799.108 531.709C799.72 531.709 800.216 531.225 800.216 530.628C800.216 530.031 799.72 529.547 799.108 529.547C798.496 529.547 798 530.031 798 530.628C798 531.225 798.496 531.709 799.108 531.709Z" fill="white"/>
<path opacity="0.4" d="M799.108 663.585C799.72 663.585 800.216 663.101 800.216 662.504C800.216 661.907 799.72 661.423 799.108 661.423C798.496 661.423 798 661.907 798 662.504C798 663.101 798.496 663.585 799.108 663.585Z" fill="white"/>
<path opacity="0.4" d="M799.108 795.461C799.72 795.461 800.216 794.977 800.216 794.38C800.216 793.783 799.72 793.299 799.108 793.299C798.496 793.299 798 793.783 798 794.38C798 794.977 798.496 795.461 799.108 795.461Z" fill="white"/>
<path opacity="0.4" d="M799.108 927.337C799.72 927.337 800.216 926.853 800.216 926.256C800.216 925.659 799.72 925.175 799.108 925.175C798.496 925.175 798 925.659 798 926.256C798 926.853 798.496 927.337 799.108 927.337Z" fill="white"/>
<path opacity="0.4" d="M799.108 1029.67C799.72 1029.67 800.216 1029.02 800.216 1028.23C800.216 1027.43 799.72 1026.78 799.108 1026.78C798.496 1026.78 798 1027.43 798 1028.23C798 1029.02 798.496 1029.67 799.108 1029.67Z" fill="white"/>
</g>
<g opacity="0.4">
<path opacity="0.4" d="M932.069 4.20508C932.681 4.20508 933.177 3.72107 933.177 3.12402C933.177 2.52697 932.681 2.04297 932.069 2.04297C931.457 2.04297 930.961 2.52697 930.961 3.12402C930.961 3.72107 931.457 4.20508 932.069 4.20508Z" fill="white"/>
<path opacity="0.4" d="M932.07 136.081C932.682 136.081 933.178 135.597 933.178 135C933.178 134.403 932.682 133.919 932.07 133.919C931.458 133.919 930.962 134.403 930.962 135C930.962 135.597 931.458 136.081 932.07 136.081Z" fill="white"/>
<path opacity="0.4" d="M932.07 267.958C932.682 267.958 933.178 267.473 933.178 266.876C933.178 266.279 932.682 265.795 932.07 265.795C931.458 265.795 930.962 266.279 930.962 266.876C930.962 267.473 931.458 267.958 932.07 267.958Z" fill="white"/>
<path opacity="0.4" d="M932.07 399.833C932.682 399.833 933.178 399.349 933.178 398.752C933.178 398.155 932.682 397.671 932.07 397.671C931.458 397.671 930.962 398.155 930.962 398.752C930.962 399.349 931.458 399.833 932.07 399.833Z" fill="white"/>
<path opacity="0.4" d="M932.07 531.709C932.682 531.709 933.178 531.225 933.178 530.628C933.178 530.031 932.682 529.547 932.07 529.547C931.458 529.547 930.962 530.031 930.962 530.628C930.962 531.225 931.458 531.709 932.07 531.709Z" fill="white"/>
<path opacity="0.4" d="M932.07 663.585C932.682 663.585 933.178 663.101 933.178 662.504C933.178 661.907 932.682 661.423 932.07 661.423C931.458 661.423 930.962 661.907 930.962 662.504C930.962 663.101 931.458 663.585 932.07 663.585Z" fill="white"/>
<path opacity="0.4" d="M932.07 795.461C932.682 795.461 933.178 794.977 933.178 794.38C933.178 793.783 932.682 793.299 932.07 793.299C931.458 793.299 930.962 793.783 930.962 794.38C930.962 794.977 931.458 795.461 932.07 795.461Z" fill="white"/>
<path opacity="0.4" d="M932.07 927.337C932.682 927.337 933.178 926.853 933.178 926.256C933.178 925.659 932.682 925.175 932.07 925.175C931.458 925.175 930.962 925.659 930.962 926.256C930.962 926.853 931.458 927.337 932.07 927.337Z" fill="white"/>
<path opacity="0.4" d="M932.07 1059.21C932.682 1059.21 933.178 1058.73 933.178 1058.13C933.178 1057.53 932.682 1057.05 932.07 1057.05C931.458 1057.05 930.962 1057.53 930.962 1058.13C930.962 1058.73 931.458 1059.21 932.07 1059.21Z" fill="white"/>
</g>
<g opacity="0.4">
<path opacity="0.4" d="M1065.04 4.20508C1065.65 4.20508 1066.14 3.72107 1066.14 3.12402C1066.14 2.52697 1065.65 2.04297 1065.04 2.04297C1064.42 2.04297 1063.93 2.52697 1063.93 3.12402C1063.93 3.72107 1064.42 4.20508 1065.04 4.20508Z" fill="white"/>
<path opacity="0.4" d="M1065.04 136.081C1065.65 136.081 1066.14 135.597 1066.14 135C1066.14 134.403 1065.65 133.919 1065.04 133.919C1064.42 133.919 1063.93 134.403 1063.93 135C1063.93 135.597 1064.42 136.081 1065.04 136.081Z" fill="white"/>
<path opacity="0.4" d="M1065.04 267.958C1065.65 267.958 1066.14 267.473 1066.14 266.876C1066.14 266.279 1065.65 265.795 1065.04 265.795C1064.42 265.795 1063.93 266.279 1063.93 266.876C1063.93 267.473 1064.42 267.958 1065.04 267.958Z" fill="white"/>
<path opacity="0.4" d="M1065.04 399.833C1065.65 399.833 1066.14 399.349 1066.14 398.752C1066.14 398.155 1065.65 397.671 1065.04 397.671C1064.42 397.671 1063.93 398.155 1063.93 398.752C1063.93 399.349 1064.42 399.833 1065.04 399.833Z" fill="white"/>
<path opacity="0.4" d="M1065.04 531.709C1065.65 531.709 1066.14 531.225 1066.14 530.628C1066.14 530.031 1065.65 529.547 1065.04 529.547C1064.42 529.547 1063.93 530.031 1063.93 530.628C1063.93 531.225 1064.42 531.709 1065.04 531.709Z" fill="white"/>
<path opacity="0.4" d="M1065.04 663.585C1065.65 663.585 1066.14 663.101 1066.14 662.504C1066.14 661.907 1065.65 661.423 1065.04 661.423C1064.42 661.423 1063.93 661.907 1063.93 662.504C1063.93 663.101 1064.42 663.585 1065.04 663.585Z" fill="white"/>
<path opacity="0.4" d="M1065.04 795.461C1065.65 795.461 1066.14 794.977 1066.14 794.38C1066.14 793.783 1065.65 793.299 1065.04 793.299C1064.42 793.299 1063.93 793.783 1063.93 794.38C1063.93 794.977 1064.42 795.461 1065.04 795.461Z" fill="white"/>
<path opacity="0.4" d="M1065.04 927.337C1065.65 927.337 1066.14 926.853 1066.14 926.256C1066.14 925.659 1065.65 925.175 1065.04 925.175C1064.42 925.175 1063.93 925.659 1063.93 926.256C1063.93 926.853 1064.42 927.337 1065.04 927.337Z" fill="white"/>
<path opacity="0.4" d="M1065.04 1059.21C1065.65 1059.21 1066.14 1058.73 1066.14 1058.13C1066.14 1057.53 1065.65 1057.05 1065.04 1057.05C1064.42 1057.05 1063.93 1057.53 1063.93 1058.13C1063.93 1058.73 1064.42 1059.21 1065.04 1059.21Z" fill="white"/>
</g>
<g opacity="0.4">
<path opacity="0.4" d="M1198 4.20508C1198.61 4.20508 1199.11 3.72107 1199.11 3.12402C1199.11 2.52697 1198.61 2.04297 1198 2.04297C1197.39 2.04297 1196.89 2.52697 1196.89 3.12402C1196.89 3.72107 1197.39 4.20508 1198 4.20508Z" fill="white"/>
<path opacity="0.4" d="M1198 136.081C1198.61 136.081 1199.11 135.597 1199.11 135C1199.11 134.403 1198.61 133.919 1198 133.919C1197.39 133.919 1196.89 134.403 1196.89 135C1196.89 135.597 1197.39 136.081 1198 136.081Z" fill="white"/>
<path opacity="0.4" d="M1198 267.958C1198.61 267.958 1199.11 267.473 1199.11 266.876C1199.11 266.279 1198.61 265.795 1198 265.795C1197.39 265.795 1196.89 266.279 1196.89 266.876C1196.89 267.473 1197.39 267.958 1198 267.958Z" fill="white"/>
<path opacity="0.4" d="M1198 399.833C1198.61 399.833 1199.11 399.349 1199.11 398.752C1199.11 398.155 1198.61 397.671 1198 397.671C1197.39 397.671 1196.89 398.155 1196.89 398.752C1196.89 399.349 1197.39 399.833 1198 399.833Z" fill="white"/>
<path opacity="0.4" d="M1198 531.709C1198.61 531.709 1199.11 531.225 1199.11 530.628C1199.11 530.031 1198.61 529.547 1198 529.547C1197.39 529.547 1196.89 530.031 1196.89 530.628C1196.89 531.225 1197.39 531.709 1198 531.709Z" fill="white"/>
<path opacity="0.4" d="M1198 663.585C1198.61 663.585 1199.11 663.101 1199.11 662.504C1199.11 661.907 1198.61 661.423 1198 661.423C1197.39 661.423 1196.89 661.907 1196.89 662.504C1196.89 663.101 1197.39 663.585 1198 663.585Z" fill="white"/>
<path opacity="0.4" d="M1198 795.461C1198.61 795.461 1199.11 794.977 1199.11 794.38C1199.11 793.783 1198.61 793.299 1198 793.299C1197.39 793.299 1196.89 793.783 1196.89 794.38C1196.89 794.977 1197.39 795.461 1198 795.461Z" fill="white"/>
<path opacity="0.4" d="M1198 927.337C1198.61 927.337 1199.11 926.853 1199.11 926.256C1199.11 925.659 1198.61 925.175 1198 925.175C1197.39 925.175 1196.89 925.659 1196.89 926.256C1196.89 926.853 1197.39 927.337 1198 927.337Z" fill="white"/>
<path opacity="0.4" d="M1198 1059.21C1198.61 1059.21 1199.11 1058.73 1199.11 1058.13C1199.11 1057.53 1198.61 1057.05 1198 1057.05C1197.39 1057.05 1196.89 1057.53 1196.89 1058.13C1196.89 1058.73 1197.39 1059.21 1198 1059.21Z" fill="white"/>
</g>
<g opacity="0.4">
<path opacity="0.4" d="M1330.97 4.20508C1331.58 4.20508 1332.07 3.72107 1332.07 3.12402C1332.07 2.52697 1331.58 2.04297 1330.97 2.04297C1330.35 2.04297 1329.86 2.52697 1329.86 3.12402C1329.86 3.72107 1330.35 4.20508 1330.97 4.20508Z" fill="white"/>
<path opacity="0.4" d="M1330.97 136.081C1331.58 136.081 1332.07 135.597 1332.07 135C1332.07 134.403 1331.58 133.919 1330.97 133.919C1330.35 133.919 1329.86 134.403 1329.86 135C1329.86 135.597 1330.35 136.081 1330.97 136.081Z" fill="white"/>
<path opacity="0.4" d="M1330.97 267.958C1331.58 267.958 1332.07 267.473 1332.07 266.876C1332.07 266.279 1331.58 265.795 1330.97 265.795C1330.35 265.795 1329.86 266.279 1329.86 266.876C1329.86 267.473 1330.35 267.958 1330.97 267.958Z" fill="white"/>
<path opacity="0.4" d="M1330.97 399.833C1331.58 399.833 1332.07 399.349 1332.07 398.752C1332.07 398.155 1331.58 397.671 1330.97 397.671C1330.35 397.671 1329.86 398.155 1329.86 398.752C1329.86 399.349 1330.35 399.833 1330.97 399.833Z" fill="white"/>
<path opacity="0.4" d="M1330.97 531.709C1331.58 531.709 1332.07 531.225 1332.07 530.628C1332.07 530.031 1331.58 529.547 1330.97 529.547C1330.35 529.547 1329.86 530.031 1329.86 530.628C1329.86 531.225 1330.35 531.709 1330.97 531.709Z" fill="white"/>
<path opacity="0.4" d="M1330.97 663.585C1331.58 663.585 1332.07 663.101 1332.07 662.504C1332.07 661.907 1331.58 661.423 1330.97 661.423C1330.35 661.423 1329.86 661.907 1329.86 662.504C1329.86 663.101 1330.35 663.585 1330.97 663.585Z" fill="white"/>
<path opacity="0.4" d="M1330.97 795.461C1331.58 795.461 1332.07 794.977 1332.07 794.38C1332.07 793.783 1331.58 793.299 1330.97 793.299C1330.35 793.299 1329.86 793.783 1329.86 794.38C1329.86 794.977 1330.35 795.461 1330.97 795.461Z" fill="white"/>
<path opacity="0.4" d="M1330.97 927.337C1331.58 927.337 1332.07 926.853 1332.07 926.256C1332.07 925.659 1331.58 925.175 1330.97 925.175C1330.35 925.175 1329.86 925.659 1329.86 926.256C1329.86 926.853 1330.35 927.337 1330.97 927.337Z" fill="white"/>
<path opacity="0.4" d="M1330.97 1059.21C1331.58 1059.21 1332.07 1058.73 1332.07 1058.13C1332.07 1057.53 1331.58 1057.05 1330.97 1057.05C1330.35 1057.05 1329.86 1057.53 1329.86 1058.13C1329.86 1058.73 1330.35 1059.21 1330.97 1059.21Z" fill="white"/>
</g>
<g opacity="0.2">
<path opacity="0.2" d="M1463.93 4.20508C1464.54 4.20508 1465.03 3.72107 1465.03 3.12402C1465.03 2.52697 1464.54 2.04297 1463.93 2.04297C1463.31 2.04297 1462.82 2.52697 1462.82 3.12402C1462.82 3.72107 1463.31 4.20508 1463.93 4.20508Z" fill="white"/>
<path opacity="0.2" d="M1463.93 136.081C1464.54 136.081 1465.04 135.597 1465.04 135C1465.04 134.403 1464.54 133.919 1463.93 133.919C1463.32 133.919 1462.82 134.403 1462.82 135C1462.82 135.597 1463.32 136.081 1463.93 136.081Z" fill="white"/>
<path opacity="0.2" d="M1463.93 267.958C1464.54 267.958 1465.04 267.473 1465.04 266.876C1465.04 266.279 1464.54 265.795 1463.93 265.795C1463.32 265.795 1462.82 266.279 1462.82 266.876C1462.82 267.473 1463.32 267.958 1463.93 267.958Z" fill="white"/>
<path opacity="0.2" d="M1463.93 399.833C1464.54 399.833 1465.04 399.349 1465.04 398.752C1465.04 398.155 1464.54 397.671 1463.93 397.671C1463.32 397.671 1462.82 398.155 1462.82 398.752C1462.82 399.349 1463.32 399.833 1463.93 399.833Z" fill="white"/>
<path opacity="0.2" d="M1463.93 531.709C1464.54 531.709 1465.04 531.225 1465.04 530.628C1465.04 530.031 1464.54 529.547 1463.93 529.547C1463.32 529.547 1462.82 530.031 1462.82 530.628C1462.82 531.225 1463.32 531.709 1463.93 531.709Z" fill="white"/>
<path opacity="0.2" d="M1463.93 663.585C1464.54 663.585 1465.04 663.101 1465.04 662.504C1465.04 661.907 1464.54 661.423 1463.93 661.423C1463.32 661.423 1462.82 661.907 1462.82 662.504C1462.82 663.101 1463.32 663.585 1463.93 663.585Z" fill="white"/>
<path opacity="0.2" d="M1463.93 795.461C1464.54 795.461 1465.04 794.977 1465.04 794.38C1465.04 793.783 1464.54 793.299 1463.93 793.299C1463.32 793.299 1462.82 793.783 1462.82 794.38C1462.82 794.977 1463.32 795.461 1463.93 795.461Z" fill="white"/>
<path opacity="0.2" d="M1463.93 927.337C1464.54 927.337 1465.04 926.853 1465.04 926.256C1465.04 925.659 1464.54 925.175 1463.93 925.175C1463.32 925.175 1462.82 925.659 1462.82 926.256C1462.82 926.853 1463.32 927.337 1463.93 927.337Z" fill="white"/>
<path opacity="0.2" d="M1463.93 1059.21C1464.54 1059.21 1465.04 1058.73 1465.04 1058.13C1465.04 1057.53 1464.54 1057.05 1463.93 1057.05C1463.32 1057.05 1462.82 1057.53 1462.82 1058.13C1462.82 1058.73 1463.32 1059.21 1463.93 1059.21Z" fill="white"/>
</g>
<g opacity="0.1">
<path opacity="0.1" d="M1596.89 4.20508C1597.5 4.20508 1598 3.72118 1598 3.12427C1598 2.52735 1597.5 2.04346 1596.89 2.04346C1596.28 2.04346 1595.78 2.52735 1595.78 3.12427C1595.78 3.72118 1596.28 4.20508 1596.89 4.20508Z" fill="white"/>
<path opacity="0.1" d="M1596.89 136.081C1597.5 136.081 1598 135.597 1598 135C1598 134.403 1597.5 133.919 1596.89 133.919C1596.28 133.919 1595.78 134.403 1595.78 135C1595.78 135.597 1596.28 136.081 1596.89 136.081Z" fill="white"/>
<path opacity="0.1" d="M1596.89 267.958C1597.5 267.958 1598 267.473 1598 266.876C1598 266.279 1597.5 265.795 1596.89 265.795C1596.28 265.795 1595.78 266.279 1595.78 266.876C1595.78 267.473 1596.28 267.958 1596.89 267.958Z" fill="white"/>
<path opacity="0.1" d="M1596.89 399.833C1597.5 399.833 1598 399.349 1598 398.752C1598 398.155 1597.5 397.671 1596.89 397.671C1596.28 397.671 1595.78 398.155 1595.78 398.752C1595.78 399.349 1596.28 399.833 1596.89 399.833Z" fill="white"/>
<path opacity="0.1" d="M1596.89 531.709C1597.5 531.709 1598 531.225 1598 530.628C1598 530.031 1597.5 529.547 1596.89 529.547C1596.28 529.547 1595.78 530.031 1595.78 530.628C1595.78 531.225 1596.28 531.709 1596.89 531.709Z" fill="white"/>
<path opacity="0.1" d="M1596.89 663.585C1597.5 663.585 1598 663.101 1598 662.504C1598 661.907 1597.5 661.423 1596.89 661.423C1596.28 661.423 1595.78 661.907 1595.78 662.504C1595.78 663.101 1596.28 663.585 1596.89 663.585Z" fill="white"/>
<path opacity="0.1" d="M1596.89 795.461C1597.5 795.461 1598 794.977 1598 794.38C1598 793.783 1597.5 793.299 1596.89 793.299C1596.28 793.299 1595.78 793.783 1595.78 794.38C1595.78 794.977 1596.28 795.461 1596.89 795.461Z" fill="white"/>
<path opacity="0.1" d="M1596.89 927.337C1597.5 927.337 1598 926.853 1598 926.256C1598 925.659 1597.5 925.175 1596.89 925.175C1596.28 925.175 1595.78 925.659 1595.78 926.256C1595.78 926.853 1596.28 927.337 1596.89 927.337Z" fill="white"/>
<path opacity="0.1" d="M1596.89 1059.21C1597.5 1059.21 1598 1058.73 1598 1058.13C1598 1057.54 1597.5 1057.05 1596.89 1057.05C1596.28 1057.05 1595.78 1057.54 1595.78 1058.13C1595.78 1058.73 1596.28 1059.21 1596.89 1059.21Z" fill="white"/>
</g>
</svg>
