<svg width="1599" height="1060" viewBox="0 0 1599 1060" fill="none" xmlns="http://www.w3.org/2000/svg">
<g opacity="0.4">
<path opacity="0.4" d="M1.10803 2.92896C1.71998 2.92896 2.21607 2.44501 2.21607 1.84802C2.21607 1.25104 1.71998 0.76709 1.10803 0.76709C0.496083 0.76709 0 1.25104 0 1.84802C0 2.44501 0.496083 2.92896 1.10803 2.92896Z" fill="white"/>
<path opacity="0.4" d="M1.10803 134.805C1.71998 134.805 2.21607 134.321 2.21607 133.724C2.21607 133.127 1.71998 132.643 1.10803 132.643C0.496083 132.643 0 133.127 0 133.724C0 134.321 0.496083 134.805 1.10803 134.805Z" fill="white"/>
<path opacity="0.4" d="M1.10803 266.681C1.71998 266.681 2.21607 266.197 2.21607 265.6C2.21607 265.003 1.71998 264.519 1.10803 264.519C0.496083 264.519 0 265.003 0 265.6C0 266.197 0.496083 266.681 1.10803 266.681Z" fill="white"/>
<path opacity="0.4" d="M1.10803 398.557C1.71998 398.557 2.21607 398.073 2.21607 397.476C2.21607 396.879 1.71998 396.395 1.10803 396.395C0.496083 396.395 0 396.879 0 397.476C0 398.073 0.496083 398.557 1.10803 398.557Z" fill="white"/>
<path opacity="0.4" d="M1.10803 530.433C1.71998 530.433 2.21607 529.949 2.21607 529.352C2.21607 528.755 1.71998 528.271 1.10803 528.271C0.496083 528.271 0 528.755 0 529.352C0 529.949 0.496083 530.433 1.10803 530.433Z" fill="white"/>
<path opacity="0.4" d="M1.10803 662.309C1.71998 662.309 2.21607 661.825 2.21607 661.228C2.21607 660.631 1.71998 660.147 1.10803 660.147C0.496083 660.147 0 660.631 0 661.228C0 661.825 0.496083 662.309 1.10803 662.309Z" fill="white"/>
<path opacity="0.4" d="M1.10803 794.185C1.71998 794.185 2.21607 793.701 2.21607 793.104C2.21607 792.507 1.71998 792.023 1.10803 792.023C0.496083 792.023 0 792.507 0 793.104C0 793.701 0.496083 794.185 1.10803 794.185Z" fill="white"/>
<path opacity="0.4" d="M1.10803 926.061C1.71998 926.061 2.21607 925.577 2.21607 924.98C2.21607 924.383 1.71998 923.899 1.10803 923.899C0.496083 923.899 0 924.383 0 924.98C0 925.577 0.496083 926.061 1.10803 926.061Z" fill="white"/>
<path opacity="0.4" d="M1.10803 1028.39C1.71998 1028.39 2.21607 1027.75 2.21607 1026.95C2.21607 1026.15 1.71998 1025.51 1.10803 1025.51C0.496083 1025.51 0 1026.15 0 1026.95C0 1027.75 0.496083 1028.39 1.10803 1028.39Z" fill="white"/>
</g>
<g opacity="0.4">
<path opacity="0.4" d="M134.069 2.92896C134.681 2.92896 135.177 2.44501 135.177 1.84802C135.177 1.25104 134.681 0.76709 134.069 0.76709C133.457 0.76709 132.961 1.25104 132.961 1.84802C132.961 2.44501 133.457 2.92896 134.069 2.92896Z" fill="white"/>
<path opacity="0.4" d="M134.07 134.805C134.682 134.805 135.178 134.321 135.178 133.724C135.178 133.127 134.682 132.643 134.07 132.643C133.458 132.643 132.962 133.127 132.962 133.724C132.962 134.321 133.458 134.805 134.07 134.805Z" fill="white"/>
<path opacity="0.4" d="M134.07 266.681C134.682 266.681 135.178 266.197 135.178 265.6C135.178 265.003 134.682 264.519 134.07 264.519C133.458 264.519 132.962 265.003 132.962 265.6C132.962 266.197 133.458 266.681 134.07 266.681Z" fill="white"/>
<path opacity="0.4" d="M134.07 398.557C134.682 398.557 135.178 398.073 135.178 397.476C135.178 396.879 134.682 396.395 134.07 396.395C133.458 396.395 132.962 396.879 132.962 397.476C132.962 398.073 133.458 398.557 134.07 398.557Z" fill="white"/>
<path opacity="0.4" d="M134.07 530.433C134.682 530.433 135.178 529.949 135.178 529.352C135.178 528.755 134.682 528.271 134.07 528.271C133.458 528.271 132.962 528.755 132.962 529.352C132.962 529.949 133.458 530.433 134.07 530.433Z" fill="white"/>
<path opacity="0.4" d="M134.942 639.899C135.538 639.899 136.021 639.428 136.021 638.847C136.021 638.266 135.538 637.795 134.942 637.795C134.347 637.795 133.864 638.266 133.864 638.847C133.864 639.428 134.347 639.899 134.942 639.899Z" fill="white"/>
<path opacity="0.4" d="M112.07 775.649C112.682 775.649 113.178 775.165 113.178 774.568C113.178 773.971 112.682 773.487 112.07 773.487C111.458 773.487 110.962 773.971 110.962 774.568C110.962 775.165 111.458 775.649 112.07 775.649Z" fill="white"/>
<path opacity="0.4" d="M134.07 926.061C134.682 926.061 135.178 925.577 135.178 924.98C135.178 924.383 134.682 923.899 134.07 923.899C133.458 923.899 132.962 924.383 132.962 924.98C132.962 925.577 133.458 926.061 134.07 926.061Z" fill="white"/>
<path opacity="0.4" d="M134.07 1057.94C134.682 1057.94 135.178 1057.45 135.178 1056.86C135.178 1056.26 134.682 1055.77 134.07 1055.77C133.458 1055.77 132.962 1056.26 132.962 1056.86C132.962 1057.45 133.458 1057.94 134.07 1057.94Z" fill="white"/>
</g>
<g opacity="0.4">
<path opacity="0.4" d="M267.036 2.92896C267.648 2.92896 268.144 2.44501 268.144 1.84802C268.144 1.25104 267.648 0.76709 267.036 0.76709C266.424 0.76709 265.928 1.25104 265.928 1.84802C265.928 2.44501 266.424 2.92896 267.036 2.92896Z" fill="white"/>
<path opacity="0.4" d="M267.036 134.805C267.648 134.805 268.144 134.321 268.144 133.724C268.144 133.127 267.648 132.643 267.036 132.643C266.424 132.643 265.928 133.127 265.928 133.724C265.928 134.321 266.424 134.805 267.036 134.805Z" fill="white"/>
<path opacity="0.4" d="M267.036 266.681C267.648 266.681 268.144 266.197 268.144 265.6C268.144 265.003 267.648 264.519 267.036 264.519C266.424 264.519 265.928 265.003 265.928 265.6C265.928 266.197 266.424 266.681 267.036 266.681Z" fill="white"/>
<path opacity="0.4" d="M267.036 398.557C267.648 398.557 268.144 398.073 268.144 397.476C268.144 396.879 267.648 396.395 267.036 396.395C266.424 396.395 265.928 396.879 265.928 397.476C265.928 398.073 266.424 398.557 267.036 398.557Z" fill="white"/>
<path opacity="0.4" d="M267.036 530.433C267.648 530.433 268.144 529.949 268.144 529.352C268.144 528.755 267.648 528.271 267.036 528.271C266.424 528.271 265.928 528.755 265.928 529.352C265.928 529.949 266.424 530.433 267.036 530.433Z" fill="white"/>
<path opacity="0.4" d="M264.344 639.899C264.94 639.899 265.422 639.428 265.422 638.847C265.422 638.266 264.94 637.795 264.344 637.795C263.748 637.795 263.266 638.266 263.266 638.847C263.266 639.428 263.748 639.899 264.344 639.899Z" fill="white"/>
<path opacity="0.4" d="M245.036 775.649C245.648 775.649 246.144 775.165 246.144 774.568C246.144 773.971 245.648 773.487 245.036 773.487C244.424 773.487 243.928 773.971 243.928 774.568C243.928 775.165 244.424 775.649 245.036 775.649Z" fill="white"/>
<path opacity="0.4" d="M267.036 926.061C267.648 926.061 268.144 925.577 268.144 924.98C268.144 924.383 267.648 923.899 267.036 923.899C266.424 923.899 265.928 924.383 265.928 924.98C265.928 925.577 266.424 926.061 267.036 926.061Z" fill="white"/>
<path opacity="0.4" d="M267.036 1057.94C267.648 1057.94 268.144 1057.45 268.144 1056.86C268.144 1056.26 267.648 1055.77 267.036 1055.77C266.424 1055.77 265.928 1056.26 265.928 1056.86C265.928 1057.45 266.424 1057.94 267.036 1057.94Z" fill="white"/>
</g>
<g opacity="0.4">
<path opacity="0.4" d="M399.999 2.92896C400.611 2.92896 401.107 2.44501 401.107 1.84802C401.107 1.25104 400.611 0.76709 399.999 0.76709C399.387 0.76709 398.891 1.25104 398.891 1.84802C398.891 2.44501 399.387 2.92896 399.999 2.92896Z" fill="white"/>
<path opacity="0.4" d="M400 134.805C400.612 134.805 401.108 134.321 401.108 133.724C401.108 133.127 400.612 132.643 400 132.643C399.388 132.643 398.892 133.127 398.892 133.724C398.892 134.321 399.388 134.805 400 134.805Z" fill="white"/>
<path opacity="0.4" d="M400 266.681C400.612 266.681 401.108 266.197 401.108 265.6C401.108 265.003 400.612 264.519 400 264.519C399.388 264.519 398.892 265.003 398.892 265.6C398.892 266.197 399.388 266.681 400 266.681Z" fill="white"/>
<path opacity="0.4" d="M400 398.557C400.612 398.557 401.108 398.073 401.108 397.476C401.108 396.879 400.612 396.395 400 396.395C399.388 396.395 398.892 396.879 398.892 397.476C398.892 398.073 399.388 398.557 400 398.557Z" fill="white"/>
<path opacity="0.4" d="M400 530.433C400.612 530.433 401.108 529.949 401.108 529.352C401.108 528.755 400.612 528.271 400 528.271C399.388 528.271 398.892 528.755 398.892 529.352C398.892 529.949 399.388 530.433 400 530.433Z" fill="white"/>
<path opacity="0.4" d="M393.744 639.899C394.339 639.899 394.822 639.428 394.822 638.847C394.822 638.266 394.339 637.795 393.744 637.795C393.148 637.795 392.666 638.266 392.666 638.847C392.666 639.428 393.148 639.899 393.744 639.899Z" fill="white"/>
<path opacity="0.4" d="M378 775.649C378.611 775.649 379.108 775.165 379.108 774.568C379.108 773.971 378.611 773.487 378 773.487C377.388 773.487 376.892 773.971 376.892 774.568C376.892 775.165 377.388 775.649 378 775.649Z" fill="white"/>
<path opacity="0.4" d="M400 926.061C400.612 926.061 401.108 925.577 401.108 924.98C401.108 924.383 400.612 923.899 400 923.899C399.388 923.899 398.892 924.383 398.892 924.98C398.892 925.577 399.388 926.061 400 926.061Z" fill="white"/>
<path opacity="0.4" d="M400 1057.94C400.612 1057.94 401.108 1057.45 401.108 1056.86C401.108 1056.26 400.612 1055.77 400 1055.77C399.388 1055.77 398.892 1056.26 398.892 1056.86C398.892 1057.45 399.388 1057.94 400 1057.94Z" fill="white"/>
</g>
<g opacity="0.4">
<path opacity="0.4" d="M532.966 2.92896C533.578 2.92896 534.074 2.44501 534.074 1.84802C534.074 1.25104 533.578 0.76709 532.966 0.76709C532.354 0.76709 531.858 1.25104 531.858 1.84802C531.858 2.44501 532.354 2.92896 532.966 2.92896Z" fill="white"/>
<path opacity="0.4" d="M532.965 134.805C533.577 134.805 534.073 134.321 534.073 133.724C534.073 133.127 533.577 132.643 532.965 132.643C532.354 132.643 531.857 133.127 531.857 133.724C531.857 134.321 532.354 134.805 532.965 134.805Z" fill="white"/>
<path opacity="0.4" d="M532.965 266.681C533.577 266.681 534.073 266.197 534.073 265.6C534.073 265.003 533.577 264.519 532.965 264.519C532.354 264.519 531.857 265.003 531.857 265.6C531.857 266.197 532.354 266.681 532.965 266.681Z" fill="white"/>
<path opacity="0.4" d="M532.965 398.557C533.577 398.557 534.073 398.073 534.073 397.476C534.073 396.879 533.577 396.395 532.965 396.395C532.354 396.395 531.857 396.879 531.857 397.476C531.857 398.073 532.354 398.557 532.965 398.557Z" fill="white"/>
<path opacity="0.4" d="M532.965 530.433C533.577 530.433 534.073 529.949 534.073 529.352C534.073 528.755 533.577 528.271 532.965 528.271C532.354 528.271 531.857 528.755 531.857 529.352C531.857 529.949 532.354 530.433 532.965 530.433Z" fill="white"/>
<path opacity="0.4" d="M523.146 639.899C523.741 639.899 524.224 639.428 524.224 638.847C524.224 638.266 523.741 637.795 523.146 637.795C522.55 637.795 522.067 638.266 522.067 638.847C522.067 639.428 522.55 639.899 523.146 639.899Z" fill="white"/>
<path opacity="0.4" d="M510.965 775.649C511.577 775.649 512.073 775.165 512.073 774.568C512.073 773.971 511.577 773.487 510.965 773.487C510.354 773.487 509.857 773.971 509.857 774.568C509.857 775.165 510.354 775.649 510.965 775.649Z" fill="white"/>
<path opacity="0.4" d="M532.965 926.061C533.577 926.061 534.073 925.577 534.073 924.98C534.073 924.383 533.577 923.899 532.965 923.899C532.354 923.899 531.857 924.383 531.857 924.98C531.857 925.577 532.354 926.061 532.965 926.061Z" fill="white"/>
<path opacity="0.4" d="M532.965 1057.94C533.577 1057.94 534.073 1057.45 534.073 1056.86C534.073 1056.26 533.577 1055.77 532.965 1055.77C532.354 1055.77 531.857 1056.26 531.857 1056.86C531.857 1057.45 532.354 1057.94 532.965 1057.94Z" fill="white"/>
</g>
<g opacity="0.2">
<path opacity="0.2" d="M665.926 2.92896C666.538 2.92896 667.034 2.44501 667.034 1.84802C667.034 1.25104 666.538 0.76709 665.926 0.76709C665.314 0.76709 664.818 1.25104 664.818 1.84802C664.818 2.44501 665.314 2.92896 665.926 2.92896Z" fill="white"/>
<path opacity="0.2" d="M665.927 134.805C666.539 134.805 667.035 134.321 667.035 133.724C667.035 133.127 666.539 132.643 665.927 132.643C665.315 132.643 664.819 133.127 664.819 133.724C664.819 134.321 665.315 134.805 665.927 134.805Z" fill="white"/>
<path opacity="0.2" d="M665.927 266.681C666.539 266.681 667.035 266.197 667.035 265.6C667.035 265.003 666.539 264.519 665.927 264.519C665.315 264.519 664.819 265.003 664.819 265.6C664.819 266.197 665.315 266.681 665.927 266.681Z" fill="white"/>
<path opacity="0.2" d="M665.927 398.557C666.539 398.557 667.035 398.073 667.035 397.476C667.035 396.879 666.539 396.395 665.927 396.395C665.315 396.395 664.819 396.879 664.819 397.476C664.819 398.073 665.315 398.557 665.927 398.557Z" fill="white"/>
<path opacity="0.2" d="M665.927 530.433C666.539 530.433 667.035 529.949 667.035 529.352C667.035 528.755 666.539 528.271 665.927 528.271C665.315 528.271 664.819 528.755 664.819 529.352C664.819 529.949 665.315 530.433 665.927 530.433Z" fill="white"/>
<path opacity="0.2" d="M652.544 639.899C653.139 639.899 653.622 639.428 653.622 638.847C653.622 638.266 653.139 637.795 652.544 637.795C651.948 637.795 651.465 638.266 651.465 638.847C651.465 639.428 651.948 639.899 652.544 639.899Z" fill="white"/>
<path opacity="0.2" d="M643.927 775.649C644.539 775.649 645.035 775.165 645.035 774.568C645.035 773.971 644.539 773.487 643.927 773.487C643.315 773.487 642.819 773.971 642.819 774.568C642.819 775.165 643.315 775.649 643.927 775.649Z" fill="white"/>
<path opacity="0.2" d="M665.927 926.061C666.539 926.061 667.035 925.577 667.035 924.98C667.035 924.383 666.539 923.899 665.927 923.899C665.315 923.899 664.819 924.383 664.819 924.98C664.819 925.577 665.315 926.061 665.927 926.061Z" fill="white"/>
<path opacity="0.2" d="M665.927 1057.94C666.539 1057.94 667.035 1057.45 667.035 1056.86C667.035 1056.26 666.539 1055.77 665.927 1055.77C665.315 1055.77 664.819 1056.26 664.819 1056.86C664.819 1057.45 665.315 1057.94 665.927 1057.94Z" fill="white"/>
</g>
<g opacity="0.1">
<path opacity="0.1" d="M798.891 2.9292C799.503 2.9292 799.999 2.44522 799.999 1.84821C799.999 1.25119 799.503 0.767212 798.891 0.767212C798.279 0.767212 797.783 1.25119 797.783 1.84821C797.783 2.44522 798.279 2.9292 798.891 2.9292Z" fill="white"/>
<path opacity="0.1" d="M798.891 134.805C799.503 134.805 799.999 134.321 799.999 133.724C799.999 133.127 799.503 132.643 798.891 132.643C798.279 132.643 797.783 133.127 797.783 133.724C797.783 134.321 798.279 134.805 798.891 134.805Z" fill="white"/>
<path opacity="0.1" d="M798.891 266.681C799.503 266.681 799.999 266.197 799.999 265.6C799.999 265.003 799.503 264.519 798.891 264.519C798.279 264.519 797.783 265.003 797.783 265.6C797.783 266.197 798.279 266.681 798.891 266.681Z" fill="white"/>
<path opacity="0.1" d="M798.891 398.557C799.503 398.557 799.999 398.073 799.999 397.476C799.999 396.879 799.503 396.395 798.891 396.395C798.279 396.395 797.783 396.879 797.783 397.476C797.783 398.073 798.279 398.557 798.891 398.557Z" fill="white"/>
<path opacity="0.1" d="M798.891 530.433C799.503 530.433 799.999 529.949 799.999 529.352C799.999 528.755 799.503 528.271 798.891 528.271C798.279 528.271 797.783 528.755 797.783 529.352C797.783 529.949 798.279 530.433 798.891 530.433Z" fill="white"/>
<path opacity="0.1" d="M781.944 639.899C782.539 639.899 783.022 639.428 783.022 638.847C783.022 638.266 782.539 637.795 781.944 637.795C781.348 637.795 780.865 638.266 780.865 638.847C780.865 639.428 781.348 639.899 781.944 639.899Z" fill="white"/>
<path opacity="0.1" d="M776.891 775.649C777.503 775.649 777.999 775.165 777.999 774.568C777.999 773.971 777.503 773.487 776.891 773.487C776.279 773.487 775.783 773.971 775.783 774.568C775.783 775.165 776.279 775.649 776.891 775.649Z" fill="white"/>
<path opacity="0.1" d="M798.891 926.061C799.503 926.061 799.999 925.577 799.999 924.98C799.999 924.383 799.503 923.899 798.891 923.899C798.279 923.899 797.783 924.383 797.783 924.98C797.783 925.577 798.279 926.061 798.891 926.061Z" fill="white"/>
<path opacity="0.1" d="M798.891 1057.94C799.503 1057.94 799.999 1057.45 799.999 1056.86C799.999 1056.26 799.503 1055.77 798.891 1055.77C798.279 1055.77 797.783 1056.26 797.783 1056.86C797.783 1057.45 798.279 1057.94 798.891 1057.94Z" fill="white"/>
</g>
<g opacity="0.4">
<path opacity="0.4" d="M800.108 4.33972C800.72 4.33972 801.216 3.85574 801.216 3.25873C801.216 2.66171 800.72 2.17773 800.108 2.17773C799.496 2.17773 799 2.66171 799 3.25873C799 3.85574 799.496 4.33972 800.108 4.33972Z" fill="white"/>
<path opacity="0.4" d="M800.108 136.216C800.72 136.216 801.216 135.732 801.216 135.135C801.216 134.538 800.72 134.054 800.108 134.054C799.496 134.054 799 134.538 799 135.135C799 135.732 799.496 136.216 800.108 136.216Z" fill="white"/>
<path opacity="0.4" d="M800.108 268.092C800.72 268.092 801.216 267.608 801.216 267.011C801.216 266.414 800.72 265.93 800.108 265.93C799.496 265.93 799 266.414 799 267.011C799 267.608 799.496 268.092 800.108 268.092Z" fill="white"/>
<path opacity="0.4" d="M800.108 399.968C800.72 399.968 801.216 399.484 801.216 398.887C801.216 398.29 800.72 397.806 800.108 397.806C799.496 397.806 799 398.29 799 398.887C799 399.484 799.496 399.968 800.108 399.968Z" fill="white"/>
<path opacity="0.4" d="M800.108 531.844C800.72 531.844 801.216 531.36 801.216 530.763C801.216 530.166 800.72 529.682 800.108 529.682C799.496 529.682 799 530.166 799 530.763C799 531.36 799.496 531.844 800.108 531.844Z" fill="white"/>
<path opacity="0.4" d="M783.128 641.272C783.723 641.272 784.206 640.801 784.206 640.22C784.206 639.639 783.723 639.168 783.128 639.168C782.532 639.168 782.049 639.639 782.049 640.22C782.049 640.801 782.532 641.272 783.128 641.272Z" fill="white"/>
<path opacity="0.4" d="M778.108 777.06C778.72 777.06 779.216 776.576 779.216 775.979C779.216 775.382 778.72 774.898 778.108 774.898C777.496 774.898 777 775.382 777 775.979C777 776.576 777.496 777.06 778.108 777.06Z" fill="white"/>
<path opacity="0.4" d="M800.108 927.471C800.72 927.471 801.216 926.987 801.216 926.391C801.216 925.794 800.72 925.31 800.108 925.31C799.496 925.31 799 925.794 799 926.391C799 926.987 799.496 927.471 800.108 927.471Z" fill="white"/>
<path opacity="0.4" d="M800.108 1029.8C800.72 1029.8 801.216 1029.16 801.216 1028.36C801.216 1027.56 800.72 1026.92 800.108 1026.92C799.496 1026.92 799 1027.56 799 1028.36C799 1029.16 799.496 1029.8 800.108 1029.8Z" fill="white"/>
</g>
<g opacity="0.4">
<path opacity="0.4" d="M933.069 4.33972C933.681 4.33972 934.177 3.85574 934.177 3.25873C934.177 2.66171 933.681 2.17773 933.069 2.17773C932.457 2.17773 931.961 2.66171 931.961 3.25873C931.961 3.85574 932.457 4.33972 933.069 4.33972Z" fill="white"/>
<path opacity="0.4" d="M933.07 136.216C933.682 136.216 934.178 135.732 934.178 135.135C934.178 134.538 933.682 134.054 933.07 134.054C932.458 134.054 931.962 134.538 931.962 135.135C931.962 135.732 932.458 136.216 933.07 136.216Z" fill="white"/>
<path opacity="0.4" d="M933.07 268.092C933.682 268.092 934.178 267.608 934.178 267.011C934.178 266.414 933.682 265.93 933.07 265.93C932.458 265.93 931.962 266.414 931.962 267.011C931.962 267.608 932.458 268.092 933.07 268.092Z" fill="white"/>
<path opacity="0.4" d="M933.07 399.968C933.682 399.968 934.178 399.484 934.178 398.887C934.178 398.29 933.682 397.806 933.07 397.806C932.458 397.806 931.962 398.29 931.962 398.887C931.962 399.484 932.458 399.968 933.07 399.968Z" fill="white"/>
<path opacity="0.4" d="M933.07 531.844C933.682 531.844 934.178 531.36 934.178 530.763C934.178 530.166 933.682 529.682 933.07 529.682C932.458 529.682 931.962 530.166 931.962 530.763C931.962 531.36 932.458 531.844 933.07 531.844Z" fill="white"/>
<path opacity="0.4" d="M912.526 641.272C913.121 641.272 913.604 640.801 913.604 640.22C913.604 639.639 913.121 639.168 912.526 639.168C911.93 639.168 911.447 639.639 911.447 640.22C911.447 640.801 911.93 641.272 912.526 641.272Z" fill="white"/>
<path opacity="0.4" d="M911.07 777.06C911.682 777.06 912.178 776.576 912.178 775.979C912.178 775.382 911.682 774.898 911.07 774.898C910.458 774.898 909.962 775.382 909.962 775.979C909.962 776.576 910.458 777.06 911.07 777.06Z" fill="white"/>
<path opacity="0.4" d="M933.07 927.471C933.682 927.471 934.178 926.987 934.178 926.391C934.178 925.794 933.682 925.31 933.07 925.31C932.458 925.31 931.962 925.794 931.962 926.391C931.962 926.987 932.458 927.471 933.07 927.471Z" fill="white"/>
<path opacity="0.4" d="M933.07 1059.35C933.682 1059.35 934.178 1058.86 934.178 1058.27C934.178 1057.67 933.682 1057.19 933.07 1057.19C932.458 1057.19 931.962 1057.67 931.962 1058.27C931.962 1058.86 932.458 1059.35 933.07 1059.35Z" fill="white"/>
</g>
<g opacity="0.4">
<path opacity="0.4" d="M1066.04 4.33972C1066.65 4.33972 1067.14 3.85574 1067.14 3.25873C1067.14 2.66171 1066.65 2.17773 1066.04 2.17773C1065.42 2.17773 1064.93 2.66171 1064.93 3.25873C1064.93 3.85574 1065.42 4.33972 1066.04 4.33972Z" fill="white"/>
<path opacity="0.4" d="M1066.04 136.216C1066.65 136.216 1067.14 135.732 1067.14 135.135C1067.14 134.538 1066.65 134.054 1066.04 134.054C1065.42 134.054 1064.93 134.538 1064.93 135.135C1064.93 135.732 1065.42 136.216 1066.04 136.216Z" fill="white"/>
<path opacity="0.4" d="M1066.04 268.092C1066.65 268.092 1067.14 267.608 1067.14 267.011C1067.14 266.414 1066.65 265.93 1066.04 265.93C1065.42 265.93 1064.93 266.414 1064.93 267.011C1064.93 267.608 1065.42 268.092 1066.04 268.092Z" fill="white"/>
<path opacity="0.4" d="M1066.04 399.968C1066.65 399.968 1067.14 399.484 1067.14 398.887C1067.14 398.29 1066.65 397.806 1066.04 397.806C1065.42 397.806 1064.93 398.29 1064.93 398.887C1064.93 399.484 1065.42 399.968 1066.04 399.968Z" fill="white"/>
<path opacity="0.4" d="M1066.04 531.844C1066.65 531.844 1067.14 531.36 1067.14 530.763C1067.14 530.166 1066.65 529.682 1066.04 529.682C1065.42 529.682 1064.93 530.166 1064.93 530.763C1064.93 531.36 1065.42 531.844 1066.04 531.844Z" fill="white"/>
<path opacity="0.4" d="M1041.93 641.272C1042.52 641.272 1043.01 640.801 1043.01 640.22C1043.01 639.639 1042.52 639.168 1041.93 639.168C1041.33 639.168 1040.85 639.639 1040.85 640.22C1040.85 640.801 1041.33 641.272 1041.93 641.272Z" fill="white"/>
<path opacity="0.4" d="M1044.04 777.06C1044.65 777.06 1045.14 776.576 1045.14 775.979C1045.14 775.382 1044.65 774.898 1044.04 774.898C1043.42 774.898 1042.93 775.382 1042.93 775.979C1042.93 776.576 1043.42 777.06 1044.04 777.06Z" fill="white"/>
<path opacity="0.4" d="M1066.04 927.471C1066.65 927.471 1067.14 926.987 1067.14 926.391C1067.14 925.794 1066.65 925.31 1066.04 925.31C1065.42 925.31 1064.93 925.794 1064.93 926.391C1064.93 926.987 1065.42 927.471 1066.04 927.471Z" fill="white"/>
<path opacity="0.4" d="M1066.04 1059.35C1066.65 1059.35 1067.14 1058.86 1067.14 1058.27C1067.14 1057.67 1066.65 1057.19 1066.04 1057.19C1065.42 1057.19 1064.93 1057.67 1064.93 1058.27C1064.93 1058.86 1065.42 1059.35 1066.04 1059.35Z" fill="white"/>
</g>
<g opacity="0.4">
<path opacity="0.4" d="M1199 4.33972C1199.61 4.33972 1200.11 3.85574 1200.11 3.25873C1200.11 2.66171 1199.61 2.17773 1199 2.17773C1198.39 2.17773 1197.89 2.66171 1197.89 3.25873C1197.89 3.85574 1198.39 4.33972 1199 4.33972Z" fill="white"/>
<path opacity="0.4" d="M1199 136.216C1199.61 136.216 1200.11 135.732 1200.11 135.135C1200.11 134.538 1199.61 134.054 1199 134.054C1198.39 134.054 1197.89 134.538 1197.89 135.135C1197.89 135.732 1198.39 136.216 1199 136.216Z" fill="white"/>
<path opacity="0.4" d="M1199 268.092C1199.61 268.092 1200.11 267.608 1200.11 267.011C1200.11 266.414 1199.61 265.93 1199 265.93C1198.39 265.93 1197.89 266.414 1197.89 267.011C1197.89 267.608 1198.39 268.092 1199 268.092Z" fill="white"/>
<path opacity="0.4" d="M1199 399.968C1199.61 399.968 1200.11 399.484 1200.11 398.887C1200.11 398.29 1199.61 397.806 1199 397.806C1198.39 397.806 1197.89 398.29 1197.89 398.887C1197.89 399.484 1198.39 399.968 1199 399.968Z" fill="white"/>
<path opacity="0.4" d="M1199 531.844C1199.61 531.844 1200.11 531.36 1200.11 530.763C1200.11 530.166 1199.61 529.682 1199 529.682C1198.39 529.682 1197.89 530.166 1197.89 530.763C1197.89 531.36 1198.39 531.844 1199 531.844Z" fill="white"/>
<path opacity="0.4" d="M1171.33 641.272C1171.92 641.272 1172.41 640.801 1172.41 640.22C1172.41 639.639 1171.92 639.168 1171.33 639.168C1170.73 639.168 1170.25 639.639 1170.25 640.22C1170.25 640.801 1170.73 641.272 1171.33 641.272Z" fill="white"/>
<path opacity="0.4" d="M1177 777.06C1177.61 777.06 1178.11 776.576 1178.11 775.979C1178.11 775.382 1177.61 774.898 1177 774.898C1176.39 774.898 1175.89 775.382 1175.89 775.979C1175.89 776.576 1176.39 777.06 1177 777.06Z" fill="white"/>
<path opacity="0.4" d="M1199 927.471C1199.61 927.471 1200.11 926.987 1200.11 926.391C1200.11 925.794 1199.61 925.31 1199 925.31C1198.39 925.31 1197.89 925.794 1197.89 926.391C1197.89 926.987 1198.39 927.471 1199 927.471Z" fill="white"/>
<path opacity="0.4" d="M1199 1059.35C1199.61 1059.35 1200.11 1058.86 1200.11 1058.27C1200.11 1057.67 1199.61 1057.19 1199 1057.19C1198.39 1057.19 1197.89 1057.67 1197.89 1058.27C1197.89 1058.86 1198.39 1059.35 1199 1059.35Z" fill="white"/>
</g>
<g opacity="0.4">
<path opacity="0.4" d="M1331.97 4.33972C1332.58 4.33972 1333.07 3.85574 1333.07 3.25873C1333.07 2.66171 1332.58 2.17773 1331.97 2.17773C1331.35 2.17773 1330.86 2.66171 1330.86 3.25873C1330.86 3.85574 1331.35 4.33972 1331.97 4.33972Z" fill="white"/>
<path opacity="0.4" d="M1331.97 136.216C1332.58 136.216 1333.07 135.732 1333.07 135.135C1333.07 134.538 1332.58 134.054 1331.97 134.054C1331.35 134.054 1330.86 134.538 1330.86 135.135C1330.86 135.732 1331.35 136.216 1331.97 136.216Z" fill="white"/>
<path opacity="0.4" d="M1331.97 268.092C1332.58 268.092 1333.07 267.608 1333.07 267.011C1333.07 266.414 1332.58 265.93 1331.97 265.93C1331.35 265.93 1330.86 266.414 1330.86 267.011C1330.86 267.608 1331.35 268.092 1331.97 268.092Z" fill="white"/>
<path opacity="0.4" d="M1331.97 399.968C1332.58 399.968 1333.07 399.484 1333.07 398.887C1333.07 398.29 1332.58 397.806 1331.97 397.806C1331.35 397.806 1330.86 398.29 1330.86 398.887C1330.86 399.484 1331.35 399.968 1331.97 399.968Z" fill="white"/>
<path opacity="0.4" d="M1331.97 531.844C1332.58 531.844 1333.07 531.36 1333.07 530.763C1333.07 530.166 1332.58 529.682 1331.97 529.682C1331.35 529.682 1330.86 530.166 1330.86 530.763C1330.86 531.36 1331.35 531.844 1331.97 531.844Z" fill="white"/>
<path opacity="0.4" d="M1300.73 641.272C1301.32 641.272 1301.81 640.801 1301.81 640.22C1301.81 639.639 1301.32 639.168 1300.73 639.168C1300.13 639.168 1299.65 639.639 1299.65 640.22C1299.65 640.801 1300.13 641.272 1300.73 641.272Z" fill="white"/>
<path opacity="0.4" d="M1309.97 777.06C1310.58 777.06 1311.07 776.576 1311.07 775.979C1311.07 775.382 1310.58 774.898 1309.97 774.898C1309.35 774.898 1308.86 775.382 1308.86 775.979C1308.86 776.576 1309.35 777.06 1309.97 777.06Z" fill="white"/>
<path opacity="0.4" d="M1331.97 927.471C1332.58 927.471 1333.07 926.987 1333.07 926.391C1333.07 925.794 1332.58 925.31 1331.97 925.31C1331.35 925.31 1330.86 925.794 1330.86 926.391C1330.86 926.987 1331.35 927.471 1331.97 927.471Z" fill="white"/>
<path opacity="0.4" d="M1331.97 1059.35C1332.58 1059.35 1333.07 1058.86 1333.07 1058.27C1333.07 1057.67 1332.58 1057.19 1331.97 1057.19C1331.35 1057.19 1330.86 1057.67 1330.86 1058.27C1330.86 1058.86 1331.35 1059.35 1331.97 1059.35Z" fill="white"/>
</g>
<g opacity="0.2">
<path opacity="0.2" d="M1464.93 4.33972C1465.54 4.33972 1466.03 3.85574 1466.03 3.25873C1466.03 2.66171 1465.54 2.17773 1464.93 2.17773C1464.31 2.17773 1463.82 2.66171 1463.82 3.25873C1463.82 3.85574 1464.31 4.33972 1464.93 4.33972Z" fill="white"/>
<path opacity="0.2" d="M1464.93 136.216C1465.54 136.216 1466.04 135.732 1466.04 135.135C1466.04 134.538 1465.54 134.054 1464.93 134.054C1464.32 134.054 1463.82 134.538 1463.82 135.135C1463.82 135.732 1464.32 136.216 1464.93 136.216Z" fill="white"/>
<path opacity="0.2" d="M1464.93 268.092C1465.54 268.092 1466.04 267.608 1466.04 267.011C1466.04 266.414 1465.54 265.93 1464.93 265.93C1464.32 265.93 1463.82 266.414 1463.82 267.011C1463.82 267.608 1464.32 268.092 1464.93 268.092Z" fill="white"/>
<path opacity="0.2" d="M1464.93 399.968C1465.54 399.968 1466.04 399.484 1466.04 398.887C1466.04 398.29 1465.54 397.806 1464.93 397.806C1464.32 397.806 1463.82 398.29 1463.82 398.887C1463.82 399.484 1464.32 399.968 1464.93 399.968Z" fill="white"/>
<path opacity="0.2" d="M1464.93 531.844C1465.54 531.844 1466.04 531.36 1466.04 530.763C1466.04 530.166 1465.54 529.682 1464.93 529.682C1464.32 529.682 1463.82 530.166 1463.82 530.763C1463.82 531.36 1464.32 531.844 1464.93 531.844Z" fill="white"/>
<path opacity="0.2" d="M1430.13 641.272C1430.72 641.272 1431.21 640.801 1431.21 640.22C1431.21 639.639 1430.72 639.168 1430.13 639.168C1429.53 639.168 1429.05 639.639 1429.05 640.22C1429.05 640.801 1429.53 641.272 1430.13 641.272Z" fill="white"/>
<path opacity="0.2" d="M1442.93 777.06C1443.54 777.06 1444.04 776.576 1444.04 775.979C1444.04 775.382 1443.54 774.898 1442.93 774.898C1442.32 774.898 1441.82 775.382 1441.82 775.979C1441.82 776.576 1442.32 777.06 1442.93 777.06Z" fill="white"/>
<path opacity="0.2" d="M1464.93 927.471C1465.54 927.471 1466.04 926.987 1466.04 926.391C1466.04 925.794 1465.54 925.31 1464.93 925.31C1464.32 925.31 1463.82 925.794 1463.82 926.391C1463.82 926.987 1464.32 927.471 1464.93 927.471Z" fill="white"/>
<path opacity="0.2" d="M1464.93 1059.35C1465.54 1059.35 1466.04 1058.86 1466.04 1058.27C1466.04 1057.67 1465.54 1057.19 1464.93 1057.19C1464.32 1057.19 1463.82 1057.67 1463.82 1058.27C1463.82 1058.86 1464.32 1059.35 1464.93 1059.35Z" fill="white"/>
</g>
<g opacity="0.1">
<path opacity="0.1" d="M1597.89 4.33984C1598.5 4.33984 1599 3.85587 1599 3.25885C1599 2.66183 1598.5 2.17786 1597.89 2.17786C1597.28 2.17786 1596.78 2.66183 1596.78 3.25885C1596.78 3.85587 1597.28 4.33984 1597.89 4.33984Z" fill="white"/>
<path opacity="0.1" d="M1597.89 136.216C1598.5 136.216 1599 135.732 1599 135.135C1599 134.538 1598.5 134.054 1597.89 134.054C1597.28 134.054 1596.78 134.538 1596.78 135.135C1596.78 135.732 1597.28 136.216 1597.89 136.216Z" fill="white"/>
<path opacity="0.1" d="M1597.89 268.092C1598.5 268.092 1599 267.608 1599 267.011C1599 266.414 1598.5 265.93 1597.89 265.93C1597.28 265.93 1596.78 266.414 1596.78 267.011C1596.78 267.608 1597.28 268.092 1597.89 268.092Z" fill="white"/>
<path opacity="0.1" d="M1597.89 399.968C1598.5 399.968 1599 399.484 1599 398.887C1599 398.29 1598.5 397.806 1597.89 397.806C1597.28 397.806 1596.78 398.29 1596.78 398.887C1596.78 399.484 1597.28 399.968 1597.89 399.968Z" fill="white"/>
<path opacity="0.1" d="M1597.89 531.844C1598.5 531.844 1599 531.36 1599 530.763C1599 530.166 1598.5 529.682 1597.89 529.682C1597.28 529.682 1596.78 530.166 1596.78 530.763C1596.78 531.36 1597.28 531.844 1597.89 531.844Z" fill="white"/>
<path opacity="0.1" d="M1597.89 663.719C1598.5 663.719 1599 663.236 1599 662.639C1599 662.042 1598.5 661.558 1597.89 661.558C1597.28 661.558 1596.78 662.042 1596.78 662.639C1596.78 663.236 1597.28 663.719 1597.89 663.719Z" fill="white"/>
<path opacity="0.1" d="M1597.89 795.595C1598.5 795.595 1599 795.111 1599 794.514C1599 793.917 1598.5 793.433 1597.89 793.433C1597.28 793.433 1596.78 793.917 1596.78 794.514C1596.78 795.111 1597.28 795.595 1597.89 795.595Z" fill="white"/>
<path opacity="0.1" d="M1597.89 927.471C1598.5 927.471 1599 926.987 1599 926.391C1599 925.794 1598.5 925.31 1597.89 925.31C1597.28 925.31 1596.78 925.794 1596.78 926.391C1596.78 926.987 1597.28 927.471 1597.89 927.471Z" fill="white"/>
<path opacity="0.1" d="M1597.89 1059.35C1598.5 1059.35 1599 1058.86 1599 1058.27C1599 1057.67 1598.5 1057.19 1597.89 1057.19C1597.28 1057.19 1596.78 1057.67 1596.78 1058.27C1596.78 1058.86 1597.28 1059.35 1597.89 1059.35Z" fill="white"/>
</g>
</svg>
