<svg width="222" height="36" viewBox="0 0 222 36" fill="none" xmlns="http://www.w3.org/2000/svg">
<path d="M21.3435 0.748653C25.1718 0.490985 29.0736 1.26398 32.4969 2.99404C37.5767 5.49711 41.6257 9.98792 43.503 15.2885C44.3497 17.6444 44.7914 20.1106 44.7914 22.6137V31.853C44.7914 32.2211 44.7914 32.6259 44.7178 32.994C44.4969 33.9143 43.8343 34.7609 42.9509 35.1658C42.3251 35.4603 41.6257 35.4971 41 35.3867C39.6012 35.129 38.4969 33.8039 38.4969 32.3683C38.4969 29.4971 38.4969 26.626 38.4969 23.7548C38.5337 22.945 38.5337 22.0615 38.092 21.3622C37.3926 20.037 35.6257 19.4112 34.2638 19.9634C33.0859 20.3683 32.2392 21.583 32.2024 22.8345C32.2024 25.7425 32.2024 28.6505 32.2024 31.5585C32.2024 32.1106 32.2392 32.6628 32.0552 33.1781C31.7607 34.2088 30.9141 35.0186 29.8834 35.3131C28.5215 35.6812 26.9754 35.0922 26.3129 33.8407C25.8343 33.1045 25.8711 32.1842 25.908 31.3376C25.908 28.4296 25.908 25.5585 25.908 22.6505C25.8711 21.1781 24.6564 19.8529 23.2208 19.6689C22.2638 19.5217 21.2699 19.8529 20.5705 20.5155C19.9448 21.1045 19.6135 21.9511 19.6135 22.7977V31.2272C19.6135 31.9266 19.6871 32.6628 19.4294 33.3253C19.0245 34.5401 17.8098 35.4235 16.5215 35.3867C15.1963 35.4603 13.908 34.5401 13.503 33.3253C13.2822 32.6996 13.319 32.0738 13.319 31.4112C13.319 28.5033 13.319 25.5953 13.319 22.6873C13.319 21.2517 12.1779 19.9266 10.7791 19.6689C9.49078 19.4112 8.092 20.037 7.42943 21.2149C7.17176 21.6934 7.02452 22.2456 7.02452 22.7977V32.2579C7.02452 33.1781 6.61961 34.0983 5.92022 34.6873C4.85274 35.6075 3.12268 35.6812 2.01838 34.8345C1.20857 34.2824 0.730042 33.3253 0.730042 32.3315V22.7609C0.730042 19.1536 1.65029 15.5462 3.38035 12.3437C4.77912 9.73025 6.73004 7.41122 9.04906 5.57073C12.4724 2.69956 16.8527 1.00632 21.3435 0.748653Z" fill="#5741D9"/>
<path d="M107.368 11.8282H102.583C102.767 8.47846 103.466 5.46006 106.521 3.54595C109.577 1.66865 112.926 1.22693 116.423 1.52141C118.301 1.66865 120.178 2.07356 121.908 2.88338C124.963 4.28215 126.472 6.67479 126.472 10.0245C126.472 15.9509 126.472 21.8772 126.472 27.8036C126.472 29.9754 126.914 30.3803 129.086 30.1595C129.307 30.1226 129.564 30.0858 129.785 30.049C129.822 30.1594 129.822 30.2699 129.822 30.3435V33.9509C128.092 34.5398 126.325 34.7239 124.595 34.2453C123.307 33.8773 122.497 32.957 122.055 31.7423C121.834 31.1165 121.687 30.4539 121.503 29.7545C121.319 29.9754 121.172 30.1595 120.988 30.3435C117.196 34.1717 112.705 35.7914 107.405 34.4294C103.65 33.4723 101.074 30.049 100.963 26.1472C100.926 24.8957 101.037 23.6441 101.331 22.4294C102.031 19.6318 104.018 17.9386 106.521 16.7975C108.288 15.9877 110.202 15.7668 112.117 15.5091C114.362 15.2147 116.571 14.957 118.816 14.6257C120.325 14.4048 121.098 13.595 121.319 12.0858C121.798 9.03062 120.436 7.00608 117.491 6.26989C115.724 5.82817 113.92 5.75455 112.117 6.08584C109.466 6.56436 107.994 8.07357 107.478 10.6871C107.515 11.0552 107.442 11.4233 107.368 11.8282ZM121.466 17.7177C119.258 18.8956 117.123 19.1901 114.951 19.5214C113.147 19.8159 111.307 20.0736 109.54 20.6257C107.221 21.3987 106.153 23.3128 106.374 25.8895C106.558 28.0245 107.994 29.7545 110.313 30.1226C113.883 30.7116 117.049 29.7177 119.552 27.0674C120.288 26.2944 120.877 25.1901 121.024 24.1594C121.356 22.0981 121.319 19.9999 121.466 17.7177ZM189.675 23.9018C189.564 24.4171 189.491 24.8588 189.38 25.2637C187.319 31.5582 183.123 34.2453 178.043 34.8343C169.245 35.7914 164.202 30.049 162.914 23.9386C161.883 19.0797 162.031 14.2576 164.166 9.69319C166.19 5.38644 169.429 2.55208 174.252 1.70546C180.031 0.674784 188.202 3.54595 189.564 12.5644C189.932 14.8834 190.006 17.276 190.227 19.7055H167.847C168.031 23.0184 168.546 26.1104 170.975 28.503C171.969 29.4969 173.258 29.9754 174.656 30.2331C179.184 31.0429 182.939 28.8711 184.411 24.4907C184.558 24.0122 184.779 23.865 185.258 23.9018C186.693 23.9018 188.129 23.9018 189.675 23.9018ZM168.031 15.4355H184.779C184.595 13.4846 184.264 11.6809 183.344 9.98767C182.46 8.36804 181.172 7.19013 179.405 6.60117C173.626 4.61344 167.663 9.21467 168.031 15.4355ZM201.712 33.7668H196.632V2.18399H201.454V6.60117C201.822 6.19626 202.043 5.93859 202.264 5.68093C205.724 1.74228 210.067 0.711596 215 1.92632C218.423 2.77295 220.337 5.2024 221 8.5889C221.258 9.98767 221.442 11.4233 221.442 12.822C221.479 19.595 221.479 26.368 221.479 33.1411C221.479 33.3251 221.442 33.5091 221.442 33.73H216.252V32.8834C216.252 26.5521 216.288 20.2208 216.215 13.8895C216.215 12.4907 215.994 11.0552 215.589 9.69319C214.926 7.4846 213.159 6.30669 210.84 6.19626C206.607 6.04902 203.258 8.29442 202.227 12.049C201.859 13.411 201.748 14.8466 201.748 16.2821C201.712 21.8404 201.712 27.3619 201.712 32.8466V33.7668ZM134.755 2.18399H139.65V15.5828C139.945 15.2883 140.129 15.141 140.313 14.957C144.325 10.8711 148.337 6.74841 152.35 2.66252C152.681 2.29442 153.012 2.14718 153.528 2.14718C155.405 2.18399 157.319 2.14718 159.38 2.14718C159.086 2.44166 158.939 2.6257 158.755 2.80975C155.221 6.3435 151.724 9.91405 148.153 13.411C147.748 13.8159 147.748 14.0736 148.006 14.5153C151.871 20.6625 155.699 26.8098 159.528 32.957C159.675 33.1779 159.785 33.3987 159.969 33.73C159.712 33.7668 159.528 33.7668 159.307 33.7668C157.54 33.7668 155.81 33.7668 154.043 33.7668C153.564 33.7668 153.344 33.5828 153.086 33.2147C150.141 28.2822 147.196 23.3496 144.251 18.3803C144.104 18.1595 143.994 17.9386 143.81 17.6809C142.448 19.0429 141.123 20.3312 139.798 21.6932C139.613 21.8772 139.577 22.2085 139.577 22.4662C139.577 25.9263 139.577 29.3864 139.577 32.8466V33.73C138.62 33.73 137.663 33.73 136.742 33.73C136.08 33.73 135.159 33.9141 134.791 33.546C134.46 33.2515 134.644 32.2944 134.644 31.6318V3.03061C134.755 2.84657 134.755 2.55209 134.755 2.18399ZM78.2515 2.14718C74.276 6.08583 70.411 9.95087 66.5092 13.8159C70.7055 20.5153 74.7914 27.0674 78.9509 33.7668C78.6196 33.7668 78.3987 33.8036 78.1779 33.8036C76.4846 33.8036 74.7546 33.8036 73.0613 33.8036C72.5828 33.8036 72.2883 33.6196 72.0306 33.2147C69.0858 28.2822 66.1411 23.3496 63.1963 18.3803C63.0858 18.1595 62.9386 17.9754 62.7546 17.6809C62.0184 18.4539 61.3558 19.3006 60.546 19.8895C58.8895 21.1411 58.411 22.6871 58.5214 24.7484C58.7055 27.4355 58.5582 30.1595 58.5582 32.8466V33.73H53.6993V2.18399H58.5582V15.3619C58.6687 15.4355 58.7791 15.5091 58.8527 15.5828C59 15.3619 59.0736 15.1042 59.2208 14.9202C63.1963 10.8343 67.2085 6.78522 71.184 2.66252C71.5521 2.29442 71.8834 2.11037 72.4355 2.14718C74.092 2.18399 75.7484 2.14718 77.4049 2.14718C77.6625 2.14718 77.8834 2.14718 78.2515 2.14718ZM87.9693 7.41098C90.4355 3.80362 93.049 0.785222 97.9079 1.66866V7.07969C96.6196 7.15331 95.3313 7.11651 94.1165 7.37418C91.1349 7.99995 88.8159 10.7239 88.3374 14.0367C88.2638 14.6993 88.1901 15.3619 88.1901 16.0245C88.1901 21.6564 88.1901 27.2883 88.1901 32.9202V33.8036H83.184V2.25761H87.9693C87.9693 3.91405 87.9693 5.57049 87.9693 7.41098Z" fill="#5741D9"/>
</svg>
