<svg width="230" height="65" viewBox="0 0 230 65" fill="none" xmlns="http://www.w3.org/2000/svg">
<g filter="url(#filter0_i)">
<circle cx="32.1347" cy="32.1347" r="27.8255" stroke="url(#paint0_linear)" stroke-width="8.6185"/>
<g filter="url(#filter1_d)">
<rect x="27.85" y="19.2808" width="8.56925" height="25.7078" rx="4.28463" fill="url(#paint1_linear)"/>
</g>
<g filter="url(#filter2_d)">
<rect x="14.9962" y="19.2808" width="8.56925" height="25.7078" rx="4.28463" fill="url(#paint2_linear)"/>
</g>
<g filter="url(#filter3_d)">
<rect x="40.7041" y="19.2808" width="8.56925" height="25.7078" rx="4.28463" fill="url(#paint3_linear)"/>
</g>
</g>
<g filter="url(#filter4_i)">
<path d="M84.2952 44.3173C80.9949 44.3173 78.4225 43.48 76.5782 41.8056C74.7339 40.1311 73.7632 37.6437 73.6661 34.3434C73.6419 33.6396 73.6297 32.6083 73.6297 31.2493C73.6297 29.866 73.6419 28.8225 73.6661 28.1188C73.7632 24.8912 74.7582 22.416 76.651 20.693C78.5439 18.97 81.0919 18.1085 84.2952 18.1085C87.4985 18.1085 90.0466 18.97 91.9395 20.693C93.8566 22.416 94.8637 24.8912 94.9607 28.1188C95.0093 29.5263 95.0335 30.5698 95.0335 31.2493C95.0335 31.9045 95.0093 32.9359 94.9607 34.3434C94.8394 37.6437 93.8566 40.1311 92.0123 41.8056C90.1679 43.48 87.5956 44.3173 84.2952 44.3173ZM84.2952 40.1311C85.9211 40.1311 87.2194 39.6458 88.1901 38.6751C89.1608 37.6801 89.6826 36.1756 89.7554 34.1614C89.8039 32.7053 89.8282 31.7225 89.8282 31.2129C89.8282 30.6547 89.8039 29.6719 89.7554 28.2644C89.6826 26.2502 89.1608 24.7578 88.1901 23.7871C87.2194 22.7921 85.9211 22.2946 84.2952 22.2946C82.6936 22.2946 81.4074 22.7921 80.4367 23.7871C79.466 24.7578 78.9443 26.2502 78.8715 28.2644C78.8472 28.9681 78.8351 29.951 78.8351 31.2129C78.8351 32.4505 78.8472 33.4333 78.8715 34.1614C78.9443 36.1756 79.4539 37.6801 80.4003 38.6751C81.371 39.6458 82.6693 40.1311 84.2952 40.1311ZM100.723 43.9532C100.457 43.9532 100.238 43.8804 100.068 43.7348C99.8984 43.565 99.8135 43.3466 99.8135 43.0796V19.3825C99.8135 19.1156 99.8984 18.8972 100.068 18.7273C100.238 18.5574 100.457 18.4725 100.723 18.4725H103.599C104.109 18.4725 104.473 18.703 104.691 19.1641L111.717 32.2685L118.815 19.1641C119.057 18.703 119.421 18.4725 119.907 18.4725H122.746C123.013 18.4725 123.231 18.5574 123.401 18.7273C123.571 18.8972 123.656 19.1156 123.656 19.3825V43.0796C123.656 43.3466 123.571 43.565 123.401 43.7348C123.231 43.8804 123.013 43.9532 122.746 43.9532H119.688C119.446 43.9532 119.239 43.8683 119.07 43.6984C118.9 43.5286 118.815 43.3223 118.815 43.0796V27.318L113.719 37.037C113.403 37.5709 112.991 37.8379 112.481 37.8379H110.989C110.479 37.8379 110.066 37.5709 109.751 37.037L104.655 27.318V43.0796C104.655 43.3223 104.57 43.5286 104.4 43.6984C104.254 43.8683 104.048 43.9532 103.781 43.9532H100.723ZM130.192 43.9532C129.949 43.9532 129.743 43.8683 129.573 43.6984C129.403 43.5286 129.318 43.3223 129.318 43.0796V19.3825C129.318 19.1156 129.391 18.8972 129.537 18.7273C129.706 18.5574 129.925 18.4725 130.192 18.4725H146.208C146.475 18.4725 146.694 18.5574 146.864 18.7273C147.033 18.8972 147.118 19.1156 147.118 19.3825V21.785C147.118 22.0519 147.033 22.2703 146.864 22.4402C146.694 22.5858 146.475 22.6586 146.208 22.6586H134.232V29.1016H145.407C145.674 29.1016 145.893 29.1866 146.063 29.3564C146.233 29.502 146.318 29.7083 146.318 29.9752V32.2321C146.318 32.499 146.233 32.7175 146.063 32.8873C145.893 33.0329 145.674 33.1057 145.407 33.1057H134.232V39.7671H146.5C146.766 39.7671 146.985 39.8521 147.155 40.0219C147.325 40.1918 147.41 40.4102 147.41 40.6772V43.0796C147.41 43.3466 147.325 43.565 147.155 43.7348C146.985 43.8804 146.766 43.9532 146.5 43.9532H130.192ZM161.541 44.3173C158.24 44.3173 155.668 43.48 153.824 41.8056C151.979 40.1311 151.009 37.6437 150.912 34.3434C150.887 33.6396 150.875 32.6083 150.875 31.2493C150.875 29.866 150.887 28.8225 150.912 28.1188C151.009 24.8912 152.004 22.416 153.897 20.693C155.789 18.97 158.338 18.1085 161.541 18.1085C164.744 18.1085 167.292 18.97 169.185 20.693C171.102 22.416 172.109 24.8912 172.206 28.1188C172.255 29.5263 172.279 30.5698 172.279 31.2493C172.279 31.9045 172.255 32.9359 172.206 34.3434C172.085 37.6437 171.102 40.1311 169.258 41.8056C167.414 43.48 164.841 44.3173 161.541 44.3173ZM161.541 40.1311C163.167 40.1311 164.465 39.6458 165.436 38.6751C166.406 37.6801 166.928 36.1756 167.001 34.1614C167.05 32.7053 167.074 31.7225 167.074 31.2129C167.074 30.6547 167.05 29.6719 167.001 28.2644C166.928 26.2502 166.406 24.7578 165.436 23.7871C164.465 22.7921 163.167 22.2946 161.541 22.2946C159.939 22.2946 158.653 22.7921 157.682 23.7871C156.712 24.7578 156.19 26.2502 156.117 28.2644C156.093 28.9681 156.081 29.951 156.081 31.2129C156.081 32.4505 156.093 33.4333 156.117 34.1614C156.19 36.1756 156.699 37.6801 157.646 38.6751C158.617 39.6458 159.915 40.1311 161.541 40.1311ZM175.228 43.9532C175.148 43.9532 175.08 43.9252 175.024 43.8692C174.968 43.8132 174.94 43.7452 174.94 43.6652V42.4772C174.94 42.3972 174.968 42.3292 175.024 42.2732C175.08 42.2092 175.148 42.1772 175.228 42.1772H176.428C176.508 42.1772 176.576 42.2092 176.632 42.2732C176.688 42.3292 176.716 42.3972 176.716 42.4772V43.6652C176.716 43.7452 176.688 43.8132 176.632 43.8692C176.576 43.9252 176.508 43.9532 176.428 43.9532H175.228ZM178.596 43.9532C178.516 43.9532 178.448 43.9252 178.392 43.8692C178.336 43.8132 178.308 43.7452 178.308 43.6652V35.8532C178.308 35.7652 178.332 35.6932 178.38 35.6372C178.436 35.5812 178.508 35.5532 178.596 35.5532H183.804C183.892 35.5532 183.964 35.5812 184.02 35.6372C184.076 35.6932 184.104 35.7652 184.104 35.8532V36.6932C184.104 36.7812 184.076 36.8532 184.02 36.9092C183.964 36.9572 183.892 36.9812 183.804 36.9812H179.952V39.2612H183.564C183.652 39.2612 183.724 39.2892 183.78 39.3452C183.836 39.4012 183.864 39.4732 183.864 39.5612V40.4012C183.864 40.4892 183.836 40.5612 183.78 40.6172C183.724 40.6652 183.652 40.6892 183.564 40.6892H179.952V43.6652C179.952 43.7532 179.924 43.8252 179.868 43.8812C179.812 43.9292 179.74 43.9532 179.652 43.9532H178.596ZM185.803 43.9532C185.723 43.9532 185.655 43.9252 185.599 43.8692C185.543 43.8132 185.515 43.7452 185.515 43.6652V35.8412C185.515 35.7532 185.543 35.6852 185.599 35.6372C185.655 35.5812 185.723 35.5532 185.803 35.5532H186.931C187.019 35.5532 187.087 35.5812 187.135 35.6372C187.191 35.6852 187.219 35.7532 187.219 35.8412V43.6652C187.219 43.7452 187.191 43.8132 187.135 43.8692C187.087 43.9252 187.019 43.9532 186.931 43.9532H185.803ZM189.389 43.9532C189.309 43.9532 189.241 43.9252 189.185 43.8692C189.129 43.8132 189.101 43.7452 189.101 43.6652V35.8532C189.101 35.7652 189.125 35.6932 189.173 35.6372C189.229 35.5812 189.301 35.5532 189.389 35.5532H190.313C190.409 35.5532 190.481 35.5732 190.529 35.6132C190.577 35.6452 190.621 35.6892 190.661 35.7452L194.117 41.1212V35.8532C194.117 35.7652 194.141 35.6932 194.189 35.6372C194.245 35.5812 194.317 35.5532 194.405 35.5532H195.413C195.501 35.5532 195.573 35.5812 195.629 35.6372C195.685 35.6932 195.713 35.7652 195.713 35.8532V43.6532C195.713 43.7412 195.685 43.8132 195.629 43.8692C195.573 43.9252 195.505 43.9532 195.425 43.9532H194.489C194.353 43.9532 194.237 43.8892 194.141 43.7612L190.697 38.5052V43.6652C190.697 43.7532 190.669 43.8252 190.613 43.8812C190.557 43.9292 190.485 43.9532 190.397 43.9532H189.389ZM197.069 43.9532C197.005 43.9532 196.945 43.9292 196.889 43.8812C196.841 43.8332 196.817 43.7732 196.817 43.7012L196.841 43.5932L199.733 35.8532C199.789 35.6532 199.929 35.5532 200.153 35.5532H201.461C201.669 35.5532 201.809 35.6532 201.881 35.8532L204.773 43.5932C204.781 43.6172 204.785 43.6532 204.785 43.7012C204.785 43.7732 204.761 43.8332 204.713 43.8812C204.665 43.9292 204.609 43.9532 204.545 43.9532H203.501C203.397 43.9532 203.317 43.9292 203.261 43.8812C203.205 43.8332 203.169 43.7812 203.153 43.7252L202.589 42.2612H199.025L198.461 43.7252C198.397 43.8772 198.281 43.9532 198.113 43.9532H197.069ZM202.169 40.8812L200.801 37.1732L199.445 40.8812H202.169ZM206.194 43.9532C206.114 43.9532 206.046 43.9252 205.99 43.8692C205.934 43.8132 205.906 43.7452 205.906 43.6652V35.8532C205.906 35.7652 205.93 35.6932 205.978 35.6372C206.034 35.5812 206.106 35.5532 206.194 35.5532H207.118C207.214 35.5532 207.286 35.5732 207.334 35.6132C207.382 35.6452 207.426 35.6892 207.466 35.7452L210.922 41.1212V35.8532C210.922 35.7652 210.946 35.6932 210.994 35.6372C211.05 35.5812 211.122 35.5532 211.21 35.5532H212.218C212.306 35.5532 212.378 35.5812 212.434 35.6372C212.49 35.6932 212.518 35.7652 212.518 35.8532V43.6532C212.518 43.7412 212.49 43.8132 212.434 43.8692C212.378 43.9252 212.31 43.9532 212.23 43.9532H211.294C211.158 43.9532 211.042 43.8892 210.946 43.7612L207.502 38.5052V43.6652C207.502 43.7532 207.474 43.8252 207.418 43.8812C207.362 43.9292 207.29 43.9532 207.202 43.9532H206.194ZM217.63 44.0732C216.526 44.0732 215.67 43.7892 215.062 43.2212C214.462 42.6532 214.142 41.8532 214.102 40.8212C214.094 40.6052 214.09 40.2532 214.09 39.7652C214.09 39.2692 214.094 38.9092 214.102 38.6852C214.142 37.6612 214.466 36.8652 215.074 36.2972C215.69 35.7212 216.542 35.4332 217.63 35.4332C218.342 35.4332 218.962 35.5572 219.49 35.8052C220.018 36.0452 220.426 36.3772 220.714 36.8012C221.002 37.2172 221.154 37.6892 221.17 38.2172V38.2412C221.17 38.3052 221.142 38.3612 221.086 38.4092C221.038 38.4492 220.982 38.4692 220.918 38.4692H219.778C219.682 38.4692 219.61 38.4492 219.562 38.4092C219.514 38.3692 219.474 38.2932 219.442 38.1812C219.314 37.6772 219.102 37.3252 218.806 37.1252C218.51 36.9172 218.114 36.8132 217.618 36.8132C216.466 36.8132 215.866 37.4572 215.818 38.7452C215.81 38.9612 215.806 39.2932 215.806 39.7412C215.806 40.1892 215.81 40.5292 215.818 40.7612C215.866 42.0492 216.466 42.6932 217.618 42.6932C218.114 42.6932 218.51 42.5892 218.806 42.3812C219.11 42.1732 219.322 41.8212 219.442 41.3252C219.466 41.2132 219.502 41.1372 219.55 41.0972C219.606 41.0572 219.682 41.0372 219.778 41.0372H220.918C220.99 41.0372 221.05 41.0612 221.098 41.1092C221.154 41.1572 221.178 41.2172 221.17 41.2892C221.154 41.8172 221.002 42.2932 220.714 42.7172C220.426 43.1332 220.018 43.4652 219.49 43.7132C218.962 43.9532 218.342 44.0732 217.63 44.0732ZM222.881 43.9532C222.801 43.9532 222.733 43.9252 222.677 43.8692C222.621 43.8132 222.593 43.7452 222.593 43.6652V35.8532C222.593 35.7652 222.617 35.6932 222.665 35.6372C222.721 35.5812 222.793 35.5532 222.881 35.5532H228.161C228.249 35.5532 228.321 35.5812 228.377 35.6372C228.433 35.6932 228.461 35.7652 228.461 35.8532V36.6452C228.461 36.7332 228.433 36.8052 228.377 36.8612C228.321 36.9092 228.249 36.9332 228.161 36.9332H224.213V39.0572H227.897C227.985 39.0572 228.057 39.0852 228.113 39.1412C228.169 39.1892 228.197 39.2572 228.197 39.3452V40.0892C228.197 40.1772 228.169 40.2492 228.113 40.3052C228.057 40.3532 227.985 40.3772 227.897 40.3772H224.213V42.5732H228.257C228.345 42.5732 228.417 42.6012 228.473 42.6572C228.529 42.7132 228.557 42.7852 228.557 42.8732V43.6652C228.557 43.7532 228.529 43.8252 228.473 43.8812C228.417 43.9292 228.345 43.9532 228.257 43.9532H222.881Z" fill="white"/>
</g>
<defs>
<filter id="filter0_i" x="0" y="0" width="64.2757" height="64.2757" filterUnits="userSpaceOnUse" color-interpolation-filters="sRGB">
<feFlood flood-opacity="0" result="BackgroundImageFix"/>
<feBlend mode="normal" in="SourceGraphic" in2="BackgroundImageFix" result="shape"/>
<feColorMatrix in="SourceAlpha" type="matrix" values="0 0 0 0 0 0 0 0 0 0 0 0 0 0 0 0 0 0 127 0" result="hardAlpha"/>
<feOffset dx="0.849285" dy="0.849285"/>
<feGaussianBlur stdDeviation="0.00315592"/>
<feComposite in2="hardAlpha" operator="arithmetic" k2="-1" k3="1"/>
<feColorMatrix type="matrix" values="0 0 0 0 0 0 0 0 0 0 0 0 0 0 0 0 0 0 0.25 0"/>
<feBlend mode="normal" in2="shape" result="effect1_innerShadow"/>
</filter>
<filter id="filter1_d" x="27.0007" y="19.2808" width="10.2678" height="27.4063" filterUnits="userSpaceOnUse" color-interpolation-filters="sRGB">
<feFlood flood-opacity="0" result="BackgroundImageFix"/>
<feColorMatrix in="SourceAlpha" type="matrix" values="0 0 0 0 0 0 0 0 0 0 0 0 0 0 0 0 0 0 127 0"/>
<feOffset dy="0.849285"/>
<feGaussianBlur stdDeviation="0.424643"/>
<feColorMatrix type="matrix" values="0 0 0 0 0 0 0 0 0 0 0 0 0 0 0 0 0 0 0.25 0"/>
<feBlend mode="normal" in2="BackgroundImageFix" result="effect1_dropShadow"/>
<feBlend mode="normal" in="SourceGraphic" in2="effect1_dropShadow" result="shape"/>
</filter>
<filter id="filter2_d" x="14.1469" y="19.2808" width="10.2678" height="27.4063" filterUnits="userSpaceOnUse" color-interpolation-filters="sRGB">
<feFlood flood-opacity="0" result="BackgroundImageFix"/>
<feColorMatrix in="SourceAlpha" type="matrix" values="0 0 0 0 0 0 0 0 0 0 0 0 0 0 0 0 0 0 127 0"/>
<feOffset dy="0.849285"/>
<feGaussianBlur stdDeviation="0.424643"/>
<feColorMatrix type="matrix" values="0 0 0 0 0 0 0 0 0 0 0 0 0 0 0 0 0 0 0.25 0"/>
<feBlend mode="normal" in2="BackgroundImageFix" result="effect1_dropShadow"/>
<feBlend mode="normal" in="SourceGraphic" in2="effect1_dropShadow" result="shape"/>
</filter>
<filter id="filter3_d" x="39.8548" y="19.2808" width="10.2678" height="27.4063" filterUnits="userSpaceOnUse" color-interpolation-filters="sRGB">
<feFlood flood-opacity="0" result="BackgroundImageFix"/>
<feColorMatrix in="SourceAlpha" type="matrix" values="0 0 0 0 0 0 0 0 0 0 0 0 0 0 0 0 0 0 127 0"/>
<feOffset dy="0.849285"/>
<feGaussianBlur stdDeviation="0.424643"/>
<feColorMatrix type="matrix" values="0 0 0 0 0 0 0 0 0 0 0 0 0 0 0 0 0 0 0.25 0"/>
<feBlend mode="normal" in2="BackgroundImageFix" result="effect1_dropShadow"/>
<feBlend mode="normal" in="SourceGraphic" in2="effect1_dropShadow" result="shape"/>
</filter>
<filter id="filter4_i" x="73.6297" y="18.1085" width="154.928" height="26.2116" filterUnits="userSpaceOnUse" color-interpolation-filters="sRGB">
<feFlood flood-opacity="0" result="BackgroundImageFix"/>
<feBlend mode="normal" in="SourceGraphic" in2="BackgroundImageFix" result="shape"/>
<feColorMatrix in="SourceAlpha" type="matrix" values="0 0 0 0 0 0 0 0 0 0 0 0 0 0 0 0 0 0 127 0" result="hardAlpha"/>
<feOffset dy="0.5"/>
<feGaussianBlur stdDeviation="0.00142189"/>
<feComposite in2="hardAlpha" operator="arithmetic" k2="-1" k3="1"/>
<feColorMatrix type="matrix" values="0 0 0 0 0.267361 0 0 0 0 0.273843 0 0 0 0 0.291667 0 0 0 1 0"/>
<feBlend mode="normal" in2="shape" result="effect1_innerShadow"/>
</filter>
<linearGradient id="paint0_linear" x1="32.1347" y1="0" x2="32.1347" y2="64.2694" gradientUnits="userSpaceOnUse">
<stop stop-color="#00D395"/>
<stop offset="1" stop-color="#007553"/>
</linearGradient>
<linearGradient id="paint1_linear" x1="32.1346" y1="19.2808" x2="32.1346" y2="44.9886" gradientUnits="userSpaceOnUse">
<stop stop-color="#00D395"/>
<stop offset="1" stop-color="#00D395"/>
</linearGradient>
<linearGradient id="paint2_linear" x1="19.2809" y1="19.2808" x2="19.2809" y2="44.9886" gradientUnits="userSpaceOnUse">
<stop stop-color="#00D395"/>
<stop offset="1" stop-color="#00D395"/>
</linearGradient>
<linearGradient id="paint3_linear" x1="44.9887" y1="19.2808" x2="44.9887" y2="44.9886" gradientUnits="userSpaceOnUse">
<stop stop-color="#00D395"/>
<stop offset="1" stop-color="#00D395"/>
</linearGradient>
</defs>
</svg>
