<svg width="16" height="16" viewBox="0 0 16 16" fill="none" xmlns="http://www.w3.org/2000/svg">
<path d="M2.25627 3.86632C2.27498 3.64484 2.20448 3.42593 2.06645 3.27688L0.660398 1.24748V0.944336H5.0262L8.40072 9.81134L11.3675 0.944336H15.5294V1.24748L14.3272 2.62848C14.2236 2.72313 14.1721 2.8787 14.1937 3.03267V13.1796C14.1721 13.3336 14.2236 13.4891 14.3272 13.5839L15.5013 14.9648V15.2679H9.59585V14.9648L10.8121 13.5501C10.9316 13.407 10.9316 13.3649 10.9316 13.146V4.94417L7.55005 15.2343H7.09308L3.15614 4.94417V11.8407C3.12332 12.1307 3.20369 12.4226 3.37408 12.6323L4.95589 14.9312V15.2343H0.470581V14.9312L2.05239 12.6323C2.22154 12.4223 2.29723 12.1284 2.25627 11.8407V3.86632Z" fill="white"/>
</svg>
