<svg width="10" height="9" viewBox="0 0 10 9" fill="none" xmlns="http://www.w3.org/2000/svg">
<path d="M0.612445 9C0.0858359 9 -0.146307 8.64845 0.0961279 8.21887L4.55858 0.322186C4.8013 -0.107395 5.1984 -0.107395 5.44112 0.322186L9.90357 8.21913C10.1466 8.64845 9.91415 9 9.38754 9H0.612445Z" fill="#FFCC4D"/>
<path d="M4.30884 7.41121C4.30884 7.06097 4.61903 6.7759 5.00041 6.7759C5.3815 6.7759 5.69169 7.06097 5.69169 7.41121C5.69169 7.7617 5.38121 8.04678 5.00041 8.04678C4.61903 8.04678 4.30884 7.7617 4.30884 7.41121ZM4.36201 2.60488C4.36201 2.26279 4.63675 2.05103 5.00012 2.05103C5.35491 2.05103 5.63851 2.27094 5.63851 2.60488V5.74149C5.63851 6.07543 5.35491 6.29535 5.00012 6.29535C4.63675 6.29535 4.36201 6.08331 4.36201 5.74149V2.60488Z" fill="#231F20"/>
</svg>
