<svg width="171" height="28" viewBox="0 0 171 28" fill="none" xmlns="http://www.w3.org/2000/svg">
<g clip-path="url(#clip0)">
<path d="M24.5411 26.7452V20.0347H17.0401C15.0003 20.0347 13.1108 21.0779 12.066 22.7811L9.63425 26.7452H24.5411Z" fill="white"/>
<path d="M0.690155 0.861816V7.57234H20.4283L24.5409 0.861816H0.690155Z" fill="white"/>
<path d="M10.396 11.5205L0.690155 26.7453H8.95934L20.5658 8.53101H15.9996C13.7027 8.53101 11.5749 9.66623 10.396 11.5205Z" fill="white"/>
<path d="M41.5053 20.7947C37.4574 20.7947 34.4788 17.9138 34.4788 14.048C34.4788 10.2192 37.4765 7.30122 41.5244 7.30122C45.5722 7.30122 48.5699 10.2564 48.5699 14.048C48.5699 17.8767 45.5531 20.7947 41.5053 20.7947ZM41.5244 18.4342C44.0829 18.4342 45.9158 16.5756 45.9158 14.048C45.9158 11.5574 44.0829 9.66163 41.5244 9.66163C38.9467 9.66163 37.1137 11.5574 37.1137 14.048C37.1137 16.5756 38.9467 18.4342 41.5244 18.4342ZM51.2805 24.8278V10.7768H53.7245V12.0221H53.8581C54.1254 11.6131 55.0419 10.5352 56.8749 10.5352C59.6817 10.5352 61.61 12.5796 61.61 15.6278C61.61 18.6759 59.7007 20.7947 56.9513 20.7947C55.1755 20.7947 54.2209 19.8282 53.8963 19.2891H53.7626V24.8278H51.2805ZM56.3976 18.6015C58.0014 18.6015 59.0898 17.3935 59.0898 15.6649C59.0898 13.8807 58.0014 12.7283 56.3785 12.7283C54.7364 12.7283 53.7054 14.0107 53.7054 15.6649C53.7054 17.4863 54.8509 18.6015 56.3976 18.6015ZM68.7122 20.7947C65.7527 20.7947 63.6524 18.6386 63.6524 15.7207C63.6524 12.6354 65.7718 10.5352 68.7122 10.5352C71.939 10.5352 73.6956 12.8584 73.6956 15.6091V16.3712H66.0582C66.1346 17.8581 67.1847 18.8617 68.7886 18.8617C70.0105 18.8617 70.9461 18.3041 71.2898 17.5049H73.6001C73.1037 19.4937 71.309 20.7947 68.7122 20.7947ZM66.0964 14.6613H71.3279C71.2134 13.3416 70.1633 12.4681 68.7122 12.4681C67.3183 12.4681 66.2491 13.4346 66.0964 14.6613ZM76.368 20.553V10.7768H78.7356V11.9663H78.8693C79.2702 11.2414 80.263 10.5352 81.6951 10.5352C83.9482 10.5352 85.3229 12.0778 85.3229 14.1594V20.553H82.8407V14.7913C82.8407 13.6019 82.0579 12.8027 80.9123 12.8027C79.7094 12.8027 78.8502 13.732 78.8502 14.9586V20.553H76.368ZM87.7853 20.553V18.3413L94.7353 9.81033V9.68022H88.0335V7.54283H97.9048V9.73598L90.9548 18.2669V18.4156H97.943V20.553H87.7853ZM104.664 20.7947C101.704 20.7947 99.6035 18.6386 99.6035 15.7207C99.6035 12.6354 101.723 10.5352 104.664 10.5352C107.891 10.5352 109.647 12.8584 109.647 15.6091V16.3712H102.01C102.086 17.8581 103.135 18.8617 104.74 18.8617C105.961 18.8617 106.897 18.3041 107.241 17.5049H109.551C109.055 19.4937 107.26 20.7947 104.664 20.7947ZM102.048 14.6613H107.279C107.165 13.3416 106.114 12.4681 104.664 12.4681C103.269 12.4681 102.201 13.4346 102.048 14.6613ZM112.319 24.8278V10.7768H114.763V12.0221H114.897C115.164 11.6131 116.081 10.5352 117.914 10.5352C120.72 10.5352 122.649 12.5796 122.649 15.6278C122.649 18.6759 120.74 20.7947 117.99 20.7947C116.214 20.7947 115.26 19.8282 114.935 19.2891H114.801V24.8278H112.319ZM117.436 18.6015C119.04 18.6015 120.128 17.3935 120.128 15.6649C120.128 13.8807 119.04 12.7283 117.417 12.7283C115.775 12.7283 114.744 14.0107 114.744 15.6649C114.744 17.4863 115.89 18.6015 117.436 18.6015ZM125.321 24.8278V10.7768H127.765V12.0221H127.899C128.166 11.6131 129.083 10.5352 130.915 10.5352C133.722 10.5352 135.65 12.5796 135.65 15.6278C135.65 18.6759 133.741 20.7947 130.992 20.7947C129.217 20.7947 128.261 19.8282 127.937 19.2891H127.803V24.8278H125.321ZM130.438 18.6015C132.042 18.6015 133.13 17.3935 133.13 15.6649C133.13 13.8807 132.042 12.7283 130.419 12.7283C128.777 12.7283 127.746 14.0107 127.746 15.6649C127.746 17.4863 128.892 18.6015 130.438 18.6015ZM142.753 20.7947C139.794 20.7947 137.694 18.6386 137.694 15.7207C137.694 12.6354 139.813 10.5352 142.753 10.5352C145.979 10.5352 147.736 12.8584 147.736 15.6091V16.3712H140.099C140.176 17.8581 141.225 18.8617 142.83 18.8617C144.051 18.8617 144.987 18.3041 145.331 17.5049H147.641C147.144 19.4937 145.35 20.7947 142.753 20.7947ZM140.137 14.6613H145.369C145.254 13.3416 144.204 12.4681 142.753 12.4681C141.359 12.4681 140.29 13.4346 140.137 14.6613ZM152.853 20.553C151.096 20.553 150.103 19.5308 150.103 17.8023V6.61353H152.585V17.5793C152.585 18.1368 152.872 18.4342 153.388 18.4342H153.789V20.553H152.853ZM157.415 9.47578C156.518 9.47578 155.888 8.93678 155.888 8.06323C155.888 7.22687 156.518 6.66929 157.415 6.66929C158.313 6.66929 158.943 7.22687 158.943 8.06323C158.943 8.93678 158.313 9.47578 157.415 9.47578ZM156.175 20.553V10.7768H158.657V20.553H156.175ZM161.673 20.553V10.7768H164.04V11.9663H164.174C164.575 11.2414 165.567 10.5352 167 10.5352C169.253 10.5352 170.627 12.0778 170.627 14.1594V20.553H168.145V14.7913C168.145 13.6019 167.363 12.8027 166.217 12.8027C165.013 12.8027 164.155 13.732 164.155 14.9586V20.553H161.673Z" fill="white"/>
</g>
<defs>
<clipPath id="clip0">
<rect width="169.937" height="27" fill="white" transform="translate(0.690155 0.8125)"/>
</clipPath>
</defs>
</svg>
