<svg width="90" height="51" viewBox="0 0 90 51" fill="none" xmlns="http://www.w3.org/2000/svg">
<g clip-path="url(#clip0)">
<path d="M39.8989 36.5072C40.2029 36.6361 40.4412 36.7195 40.6629 36.8332C42.043 37.5006 42.8068 38.57 42.8068 39.9959C42.8233 43.3556 41.3693 45.9571 38.018 47.489C36.9994 47.9517 35.9068 48.1716 34.7815 48.2323C34.5843 48.2398 34.4119 48.2096 34.2394 48.1185C31.7011 46.8368 29.1629 45.5551 26.6165 44.2885C26.3865 44.1747 26.3536 44.0686 26.4276 43.8487C28.5058 37.8496 30.584 31.8505 32.6622 25.8514C32.7279 25.6617 32.8019 25.5631 33.0565 25.5631C35.5865 25.5935 38.1165 25.51 40.6465 25.6163C41.3858 25.6465 42.1086 25.7831 42.8068 26.0258C44.9015 26.7387 45.9447 28.3238 45.7558 30.5005C45.4683 33.6706 43.6364 35.5971 40.0632 36.4616C40.0222 36.4768 39.9976 36.4844 39.8989 36.5072ZM32.7279 44.8194C32.7279 44.8118 32.7279 44.8118 32.7279 44.8042C33.1797 44.8042 33.6315 44.8194 34.0833 44.8042C35.0854 44.7664 35.9397 44.4326 36.564 43.6666C37.3032 42.7489 37.8126 41.7478 38.0261 40.6178C38.2562 39.4195 37.6976 38.6307 36.4162 38.3349C35.4633 38.115 34.4858 38.1908 33.5165 38.1605C33.3522 38.1529 33.3193 38.2439 33.2782 38.3653C32.5554 40.4357 31.8325 42.5139 31.1015 44.5843C31.0358 44.7664 31.0687 44.8346 31.2904 44.827C31.7751 44.8118 32.2515 44.8194 32.7279 44.8194ZM35.8904 34.9069C36.0958 34.9069 36.3011 34.9145 36.5065 34.9069C39.2829 34.831 40.9175 33.3142 40.8765 30.8493C40.8601 29.9392 40.4165 29.4083 39.4636 29.196C38.5354 28.9836 37.5826 29.0519 36.6461 29.0443C36.4818 29.0443 36.449 29.1429 36.4162 29.2566C35.7836 31.0693 35.1593 32.8819 34.5187 34.6869C34.4447 34.8993 34.5187 34.9145 34.7157 34.9145C35.0937 34.9069 35.4961 34.9145 35.8904 34.9069Z" fill="#F9FAFB"/>
<path d="M26.789 13.2158C27.2161 13.3447 27.5857 13.4358 27.939 13.5571C29.3354 14.0576 29.9515 14.8995 29.9268 16.2874C29.9104 17.5388 29.4914 18.7219 29.089 19.8974C28.6454 21.2095 28.1689 22.514 28.2018 23.9171C28.2018 24.0764 28.1361 24.0991 27.9883 24.0991C26.3454 24.0991 24.7025 24.0916 23.0597 24.1066C22.7804 24.1066 22.8297 23.9777 22.8461 23.8261C22.9529 22.4458 23.3965 21.1261 23.799 19.8065C24.0947 18.8357 24.4479 17.88 24.6204 16.879C24.8504 15.5441 24.4397 15.036 22.9694 14.8995C22.2301 14.8312 21.4908 14.8691 20.7515 14.8919C20.5379 14.8995 20.4476 14.9829 20.39 15.1649C20.1354 15.9385 19.8561 16.6969 19.6097 17.4705C19.5357 17.6981 19.4536 17.7739 19.1826 17.7057C17.8025 17.3491 16.4143 17.0079 15.0262 16.6741C14.7714 16.6135 14.7469 16.5225 14.8208 16.3101C16.4719 11.4411 18.1229 6.57203 19.7658 1.70298C19.8397 1.48304 19.9465 1.42236 20.1929 1.42236C22.3286 1.42995 24.4643 1.41478 26.6 1.43753C27.9061 1.4527 29.1875 1.64989 30.3786 2.1732C32.1283 2.9392 33.0236 4.22093 33.1304 5.99564C33.2043 7.19393 33.0319 8.36948 32.5143 9.47678C31.4465 11.7444 29.4997 12.9049 26.789 13.2158ZM21.6961 11.3424C22.5997 11.3424 23.454 11.3274 24.3082 11.3424C25.1707 11.3576 25.8854 11.0695 26.4604 10.5007C27.4872 9.48436 27.9883 8.24814 28.095 6.87539C28.1772 5.83637 27.635 5.2448 26.5179 5.06278C25.6719 4.92626 24.8258 5.01727 23.9797 4.98693C23.7497 4.97935 23.7579 5.13104 23.7168 5.25239C23.4211 6.13214 23.1336 7.01191 22.8461 7.8841C22.4765 9.02931 22.0904 10.1669 21.6961 11.3424Z" fill="#F9FAFB"/>
<path d="M39.7511 15.7113C41.3858 15.7113 42.9383 15.7037 44.499 15.7189C44.8029 15.7189 44.7783 15.5596 44.7783 15.3777C44.7783 14.2931 44.8111 13.2086 44.8686 12.1164C44.9672 10.2583 45.148 8.41535 45.3697 6.5648C45.3944 6.37519 45.4518 6.32968 45.649 6.39036C46.9797 6.76957 48.3104 7.14119 49.6493 7.50524C49.8711 7.56592 49.8958 7.67968 49.8876 7.86169C49.8547 9.06 49.83 10.2583 49.7972 11.4642C49.6904 15.6052 49.5836 19.7537 49.485 23.8947C49.4768 24.1678 49.37 24.1904 49.1236 24.1904C47.6204 24.1828 46.109 24.1828 44.6057 24.1904C44.3182 24.1904 44.2444 24.1298 44.2608 23.8568C44.3347 22.4688 44.3758 21.081 44.4497 19.693C44.4661 19.4048 44.4087 19.3062 44.0718 19.3138C42.1004 19.329 40.1289 19.329 38.1575 19.3214C37.9029 19.3214 37.7715 19.3972 37.6565 19.602C36.8433 21.043 36.0136 22.4764 35.2005 23.9174C35.11 24.0691 35.0444 24.1828 34.8143 24.1828C33.114 24.1753 31.4219 24.1753 29.7215 24.1753C29.6393 24.0387 29.7625 23.9629 29.8201 23.872C33.5658 17.7287 37.3115 11.5855 41.049 5.44234C41.1804 5.22998 41.2954 5.16931 41.55 5.24515C42.5276 5.53335 43.5051 5.80638 44.4908 6.06424C44.77 6.14009 44.8029 6.22351 44.6797 6.4662C43.2258 9.45438 41.6404 12.3895 39.9893 15.2866C39.9154 15.4079 39.8497 15.5293 39.7511 15.7113Z" fill="#F9FAFB"/>
<path d="M46.8155 38.3654C46.8402 38.3654 46.7663 38.3578 46.7005 38.373C46.4459 38.4109 46.3966 38.3426 46.4788 38.1151C46.9387 36.8485 47.3659 35.5744 47.8259 34.3078C50.7913 26.1851 53.3788 17.9563 56.0237 9.75023C56.1306 9.42409 56.2455 9.371 56.5823 9.4696C58.0362 9.89434 59.5066 10.3039 60.9687 10.6907C61.2973 10.7817 61.1905 10.9258 61.133 11.1078C59.1205 16.9704 57.108 22.8253 55.0956 28.6879C54.0688 31.6761 53.0337 34.6643 52.0152 37.6601C51.9331 37.9027 51.8262 38.0317 51.5224 38.0468C49.9944 38.1378 48.4502 38.2517 46.8155 38.3654Z" fill="#F9FAFB"/>
<path d="M7.00927 5.23005C5.01319 5.23005 3.04999 5.23005 1.02106 5.23005C1.19356 4.7295 1.34963 4.25928 1.51391 3.78147C1.7357 3.12164 1.97391 2.46182 2.17927 1.79441C2.2532 1.54414 2.38463 1.47588 2.66391 1.47588C5.57998 1.48346 8.49605 1.47588 11.4039 1.46829C13.7039 1.46829 16.0039 1.46829 18.3039 1.45312C18.6078 1.45312 18.7064 1.48346 18.5996 1.79441C18.2217 2.83345 17.8685 3.88006 17.5317 4.92669C17.4578 5.1618 17.3346 5.22247 17.0799 5.22247C15.585 5.2073 14.0982 5.22247 12.6031 5.21488C12.3156 5.21488 12.1842 5.28314 12.1021 5.54859C11.0753 8.62777 10.0321 11.7069 8.99712 14.7937C8.91497 15.044 8.83283 15.1577 8.50426 15.0668C7.14891 14.7103 5.79355 14.369 4.42998 14.0581C4.10141 13.9822 4.06855 13.8836 4.15891 13.6106C5.08712 10.9334 5.99891 8.25614 6.9107 5.57134C6.94355 5.47275 6.9682 5.35898 7.00927 5.23005Z" fill="#F9FAFB"/>
<path d="M77.2412 37.7209C77.7012 37.6829 78.1612 37.645 78.613 37.6147C80.0833 37.5312 81.5537 37.4554 83.024 37.3569C83.3115 37.3417 83.5005 37.4327 83.6976 37.6223C85.1105 38.9268 85.4965 40.4967 85.1186 42.2486C84.7572 43.9095 84.0015 45.4188 82.9091 46.7612C81.8658 48.0429 80.4201 48.7786 78.7033 49.0668C76.6415 49.4081 74.5798 49.4687 72.5344 48.9682C70.7848 48.5359 69.4787 47.6334 69.0433 45.9118C68.8134 44.9941 68.8955 44.0764 69.1337 43.1739C69.2569 42.7188 69.4294 42.2865 69.5772 41.8391C69.6265 41.6874 69.7087 41.604 69.8976 41.604C71.5815 41.604 73.2573 41.604 74.9987 41.604C74.7769 42.0514 74.5798 42.461 74.4729 42.9085C74.3662 43.3786 74.2594 43.8413 74.3415 44.3267C74.5058 45.3202 75.3109 45.9042 76.4033 45.7828C78.2762 45.5781 80.1162 43.811 80.149 42.0894C80.1655 41.0579 79.7301 40.1251 79.0319 39.306C78.5966 38.7978 78.0708 38.3807 77.504 38.0015C77.4137 37.9332 77.2823 37.8877 77.2412 37.7209Z" fill="#F9FAFB"/>
<path d="M75.1382 25.6466C74.9328 26.2382 74.7357 26.8297 74.5303 27.4137C74.3414 27.9674 74.1361 28.5134 73.9718 29.0746C73.8979 29.3249 73.7664 29.378 73.5117 29.378C72.0168 29.3704 70.53 29.378 69.035 29.3628C68.7392 29.3628 68.616 29.4462 68.5257 29.7041C67.7124 32.1311 66.8664 34.558 66.0614 36.985C65.9629 37.2883 65.815 37.3945 65.4782 37.4097C63.9996 37.4855 62.5292 37.5765 61.059 37.6902C60.7057 37.713 60.6893 37.6296 60.7797 37.349C61.6422 34.8235 62.48 32.2979 63.3425 29.7724C63.4493 29.4614 63.441 29.3477 63.0221 29.3552C61.2971 29.378 59.5721 29.3552 57.8471 29.3704C57.5021 29.3704 57.4693 29.2946 57.5679 29.0064C57.9457 27.9674 58.2989 26.9207 58.6439 25.8741C58.7014 25.6921 58.7754 25.6086 58.9971 25.6086C64.32 25.6162 69.6428 25.6162 74.9657 25.6162C75.015 25.6162 75.056 25.6314 75.1382 25.6466Z" fill="#F9FAFB"/>
<path d="M82.5394 36.257C81.4387 36.3252 80.4366 36.3935 79.4262 36.4542C78.3994 36.5149 77.3808 36.5679 76.354 36.6438C76.1159 36.659 75.9269 36.621 75.7379 36.4997C74.7358 35.8399 74.0951 34.9222 74.0376 33.8149C73.9226 31.6003 74.5387 29.5601 76.1487 27.8537C77.2823 26.6478 78.728 25.9274 80.4119 25.6012C82.3915 25.222 84.363 25.3054 86.2687 25.9349C87.7637 26.4279 88.8726 27.3001 89.2669 28.7942C89.4148 29.363 89.4394 29.9393 89.3162 30.5234C89.1683 31.2059 88.9548 31.8658 88.7083 32.5256C88.6426 32.7076 88.5359 32.7683 88.3222 32.7683C86.8437 32.7607 85.3652 32.7607 83.8866 32.7683C83.6155 32.7683 83.5991 32.6925 83.6812 32.4801C83.8537 32.0175 84.0509 31.5624 84.1658 31.077C84.2479 30.7281 84.2644 30.3717 84.2069 30.0228C84.1247 29.5222 83.8208 29.1809 83.2869 29.0141C82.0384 28.6349 80.8637 28.9913 80.1984 30.038C79.3687 31.3273 79.1962 32.6242 80.2641 33.9134C80.9294 34.7325 81.644 35.5061 82.5394 36.257Z" fill="#F9FAFB"/>
<path d="M65.848 24.1449C63.934 24.1449 62.0201 24.1373 60.098 24.1525C59.7365 24.1525 59.7365 24.0615 59.8269 23.7961C61.1986 19.822 62.5623 15.8479 63.9093 11.8738C63.9998 11.6083 64.0983 11.5552 64.3858 11.6386C65.7494 12.0405 67.1211 12.4273 68.5012 12.7914C68.8133 12.8748 68.8708 12.9582 68.7723 13.2464C67.9754 15.5217 67.2033 17.8046 66.4065 20.0874C66.2915 20.4211 66.3654 20.4742 66.7269 20.4666C68.764 20.4514 70.8012 20.459 72.8465 20.4438C73.2326 20.4438 73.2654 20.5273 73.1504 20.8458C72.7726 21.847 72.4193 22.8556 72.0744 23.8643C72.0004 24.0843 71.8936 24.1525 71.6472 24.1525C69.7169 24.1449 67.7866 24.1449 65.8562 24.1449C65.848 24.1297 65.848 24.1373 65.848 24.1449Z" fill="#F9FAFB"/>
<path d="M65.0427 38.6232C65.4699 38.5473 65.5438 38.646 65.4453 38.9341C64.7799 40.8681 64.131 42.8021 63.482 44.7361C63.4246 44.903 63.3259 44.9788 63.1534 45.0319C61.4531 45.4945 59.7527 45.9572 58.0524 46.4273C57.9456 46.4577 57.8388 46.5259 57.7402 46.4577C57.6253 46.3743 57.732 46.268 57.7649 46.1847C58.5534 43.8639 59.3503 41.5507 60.1388 39.2299C60.1963 39.0556 60.2539 38.919 60.5085 38.9039C62.0527 38.8052 63.6052 38.7066 65.0427 38.6232Z" fill="#F9FAFB"/>
<path d="M71.3105 5.87464C71.1789 6.26144 71.0475 6.64823 70.9243 7.02745C70.4233 8.50637 69.9222 9.98531 69.4376 11.4718C69.3636 11.6993 69.2815 11.7675 69.0105 11.6917C67.6058 11.2822 66.1929 10.8954 64.7801 10.5086C64.5337 10.4403 64.509 10.3493 64.5829 10.1294C65.2154 8.29401 65.8315 6.45105 66.4475 4.60809C66.5872 4.19855 66.735 3.78899 66.8582 3.37945C66.9158 3.18226 66.9979 3.13675 67.1951 3.2581C68.5094 4.05444 69.8236 4.8432 71.1379 5.63954C71.22 5.70022 71.3268 5.7533 71.3105 5.87464Z" fill="#F9FAFB"/>
<path d="M14.7058 24.3345C13.9502 24.3345 13.2027 24.327 12.4469 24.3421C12.1348 24.3497 12.0773 24.2739 12.1759 24.0008C12.8987 21.991 13.6134 19.9812 14.3116 17.9638C14.3773 17.7666 14.4676 17.7514 14.6648 17.797C16.0859 18.1534 17.5069 18.5098 18.928 18.8512C19.1498 18.9042 19.1334 18.9877 19.0841 19.1394C18.5091 20.7927 17.9341 22.4537 17.3837 24.1146C17.3098 24.327 17.1866 24.3497 16.9977 24.3497C16.2337 24.3421 15.4698 24.3421 14.7058 24.3345C14.7058 24.3421 14.7058 24.3421 14.7058 24.3345Z" fill="#F9FAFB"/>
<path d="M50.1257 2.58397C50.1257 4.72565 50.0601 6.05675 50.0601 6.05675C50.0601 6.35253 49.9698 6.39045 49.674 6.30702C47.1275 5.58652 44.5811 4.88119 42.0348 4.18345C41.6979 4.09244 41.6568 3.99385 41.8458 3.73599C42.0348 3.47812 42.167 3.19463 42.3305 2.90931C42.5714 2.48853 42.8397 2.30257 43.3326 2.21915C45.493 1.84752 47.6369 1.44556 49.789 1.03601C50.0847 0.982922 50.134 1.0182 50.134 1.29387C50.134 1.68445 50.1257 2.43151 50.1257 2.43151C50.1257 2.16782 50.1257 2.52848 50.1257 2.58397Z" fill="#F9FAFB"/>
<path d="M6.22148 23.0603C5.14541 22.0213 4.15969 20.9747 3.05899 20.0267C2.41827 19.473 2.34434 18.9876 2.64006 18.2671C3.03434 17.3342 3.2972 16.3483 3.60935 15.3851C3.66685 15.2031 3.74077 15.1576 3.95435 15.2107C5.37541 15.5748 6.79648 15.9236 8.21755 16.2725C8.39826 16.318 8.51326 16.3332 8.43933 16.5607C7.71648 18.6767 7.01827 20.7926 6.30362 22.9086C6.2872 22.9466 6.26255 22.9769 6.22148 23.0603Z" fill="#F9FAFB"/>
<path d="M21.5649 32.7909C21.2691 32.7606 20.9652 32.753 20.6695 32.6999C19.503 32.48 18.9937 31.8504 19.273 30.7963C19.6016 29.5525 19.9795 28.3087 20.5873 27.1483C21.3019 25.7679 23.3391 25.2598 24.7766 26.0562C25.3433 26.3747 25.5734 26.8601 25.4665 27.4441C25.1955 28.8623 24.6862 30.2275 24.0619 31.5396C23.6266 32.4496 22.8791 32.7833 21.5649 32.7909ZM21.5073 31.7291C22.1234 31.7139 22.4519 31.4637 22.6244 31.0617C23.1173 29.9165 23.528 28.741 23.8566 27.5427C23.9798 27.0876 23.643 26.7615 23.1338 26.7691C22.5833 26.7767 22.2302 27.0572 22.0412 27.4971C21.5894 28.5362 21.228 29.6055 20.8994 30.6825C20.8666 30.7887 20.8583 30.91 20.8583 31.0238C20.8583 31.4788 21.1377 31.7291 21.5073 31.7291Z" fill="#F9FAFB"/>
<path d="M32.9249 48.877C31.3395 49.0894 29.7788 49.3017 28.2181 49.5065C26.9777 49.6733 25.7292 49.8098 24.4889 49.9995C24.1192 50.0526 24.1685 49.9464 24.2506 49.7189C24.7599 48.3234 25.2609 46.9203 25.7621 45.5173C25.8277 45.3352 25.8853 45.2442 26.1234 45.3656C28.3578 46.5107 30.6002 47.6484 32.8428 48.786C32.8674 48.786 32.8838 48.8239 32.9249 48.877Z" fill="#F9FAFB"/>
<path d="M24.6863 32.6848C25.1627 31.2514 25.6309 29.8634 26.0992 28.468C26.3702 27.6641 26.6413 26.8601 26.9041 26.0486C26.9699 25.8514 27.0438 25.7376 27.3148 25.7452C28.391 25.7604 29.4752 25.7604 30.5595 25.7452C30.8141 25.7452 30.8962 25.7756 30.8059 26.0334C30.5184 26.8753 30.5266 26.8829 29.5492 26.8829C29.2041 26.8829 28.8673 26.8829 28.5224 26.8829C28.3581 26.8829 28.2431 26.9056 28.1938 27.0801C28.0788 27.4668 27.9309 27.846 27.7995 28.2328C27.7666 28.3239 27.742 28.4225 27.701 28.5666C28.3252 28.5666 28.9166 28.5742 29.5081 28.559C29.7627 28.5514 29.8038 28.6197 29.738 28.8396C29.4752 29.6966 29.4834 29.6966 28.5059 29.7042C28.1117 29.7042 27.6188 29.5526 27.3477 29.7649C27.1013 29.962 27.0849 30.4095 26.9699 30.7433C26.7809 31.2968 26.5838 31.8429 26.4113 32.4042C26.3456 32.609 26.2635 32.6924 26.0252 32.6848C25.5898 32.6696 25.1545 32.6848 24.6863 32.6848Z" fill="#F9FAFB"/>
</g>
<defs>
<clipPath id="clip0">
<rect width="88.9671" height="50" fill="white" transform="translate(0.516602 0.8125)"/>
</clipPath>
</defs>
</svg>
