<svg width="231" height="87" viewBox="0 0 231 87" fill="none" xmlns="http://www.w3.org/2000/svg">
<path d="M95.5748 38.2446H92.1609V60.5348H95.5748V38.2446Z" fill="white"/>
<path d="M110.867 28.8027H83.041V32.2166H110.867V28.8027Z" fill="white"/>
<path d="M101.741 38.2446H98.3274V60.5348H101.741V38.2446Z" fill="white"/>
<path d="M196.053 60.5576H199.497V47.1328L196.053 43.3037V60.5576Z" fill="white"/>
<path d="M214.191 28.8027V53.6917L189.825 26.6113V60.5579H193.262V35.6612L217.643 62.7492V28.8027H214.191Z" fill="white"/>
<path d="M167.519 28.7871C158.761 28.7871 151.641 35.907 151.641 44.6647C151.641 53.4224 158.761 60.5423 167.519 60.5423C176.277 60.5423 183.397 53.4224 183.397 44.6647C183.397 35.9147 176.277 28.7871 167.519 28.7871ZM167.519 57.1207C160.653 57.1207 155.063 51.5386 155.063 44.6647C155.063 37.7908 160.645 32.2087 167.519 32.2087C174.385 32.2087 179.975 37.7908 179.975 44.6647C179.975 51.5309 174.385 57.1207 167.519 57.1207Z" fill="white"/>
<path d="M167.519 42.3809C166.258 42.3809 165.235 43.4035 165.235 44.6645C165.235 45.9254 166.258 46.9481 167.519 46.9481C168.78 46.9481 169.803 45.9254 169.803 44.6645C169.803 43.4035 168.78 42.3809 167.519 42.3809Z" fill="white"/>
<path d="M145.667 38.5447C145.667 33.1778 141.331 28.8105 136.002 28.8105H117.841V60.5657H121.232V32.2552H136.002C139.424 32.2552 142.207 35.077 142.207 38.5447C142.207 41.997 139.462 44.8035 136.072 44.8419L124.023 44.8342V60.5657H127.414V48.2789H135.357L141.846 60.558H145.79L139.017 47.7945C142.93 46.495 145.667 42.7121 145.667 38.5447Z" fill="white"/>
<path d="M59.5659 22.5131L13.2941 14.0015L37.6448 75.2667L71.5683 33.9311L59.5659 22.5131ZM58.8278 26.2653L65.9093 32.9931L46.5486 36.4992L58.8278 26.2653ZM42.3428 35.7995L21.9364 18.8762L55.2832 25.012L42.3428 35.7995ZM40.8819 38.7982L37.5603 66.3014L19.622 21.1521L40.8819 38.7982ZM43.9574 40.2514L65.3941 36.3685L40.8127 66.3245L43.9574 40.2514Z" fill="#B13030"/>
</svg>
